<svg width="1280px" height="720.0px" viewBox="-6.3 -0.5 27.2 15.299999999999999" xmlns="http://www.w3.org/2000/svg">
  <defs>
    <symbol id="1u">
      <path class="base" d="m.0234,.125 c0,-.0547 .0469,-.1016 .1016,-.1016 l.75,0 c.0547,0 .1016,.0469 .1016,.1016 l0,.75 c0,.0547 -.0469,.1016 -.1016,.1016 l-.75,0 c-.0547,0 -.1016,-.0469 -.1016,-.1016" />
      <path class="shade" d="m.0234,.125 c0,-.0547 .0469,-.1016 .1016,-.1016 l.75,0 c.0547,0 .1016,.0469 .1016,.1016 l0,.75 c0,.0547 -.0469,.1016 -.1016,.1016 l-.75,0 c-.0547,0 -.1016,-.0469 -.1016,-.1016 m.0781,-.0742 c0,.0547 .043,.0977 .0977,.0977 l.6016,0 c.0547,0 .0977,-.043 .0977,-.0977 l0,-.6016 c0,-.0547 -.043,-.0977 -.0977,-.0977 l-.6016,0 c-.0547,0 -.0977,.043 -.0977,.0977" />
    </symbol>
    <symbol id="1u_">
      <path class="base" d="m.0234,.125 c0,-.0547 .0469,-.1016 .1016,-.1016 l.75,0 c.0547,0 .1016,.0469 .1016,.1016 l0,.75 c0,.0547 -.0469,.1016 -.1016,.1016 l-.75,0 c-.0547,0 -.1016,-.0469 -.1016,-.1016" />
      <path class="shade" d="m.0234,.125 c0,-.0547 .0469,-.1016 .1016,-.1016 l.75,0 c.0547,0 .1016,.0469 .1016,.1016 l0,.75 c0,.0547 -.0469,.1016 -.1016,.1016 l-.75,0 c-.0547,0 -.1016,-.0469 -.1016,-.1016 m.0781,-.375 c0,.2227 .1758,.3984 .3984,.3984 c.2227,0 .3984,-.1758 .3984,-.3984 c0,-.2227 -.1758,-.3984 -.3984,-.3984 c-.2227,0 -.3984,.1758 -.3984,.3984" />
    </symbol>
    <path class="sym" id="x0" d="m.0197,.2883 c0,.048 .031,.0787 .069,.0787 c.021,0 .0373,-.0073 .0567,-.0273 l0,.1013 l.0287,0 l0,-.233 l-.0083,0 l-.0143,.0107 c-.0153,-.009 -.0313,-.0127 -.048,-.0127 c-.05,0 -.0837,.0367 -.0837,.0823 z m.0293,-.001 c0,-.0297 .02,-.0577 .0583,-.0577 c.012,0 .0243,.0037 .038,.0127 l0,.0743 c-.0207,.0207 -.0343,.0263 -.0487,.0263 c-.026,0 -.0477,-.0213 -.0477,-.0557 z" />
    <path class="sym" id="x1" d="m.1577,.364 l.0327,-.155 l-.027,0 l-.0233,.124 l-.0347,-.1027 l-.0057,0 l-.0347,.103 l-.0233,-.1243 l-.027,0 l.0317,.155 l.0283,0 l.0273,-.082 l.027,.082 z" />
    <path class="sym" id="x2" d="m.025,.234 l.0523,0 l0,.13 l.0283,0 l0,-.13 l.0647,0 l0,-.024 l-.065,0 l0,-.0222 c0,-.0245 .008,-.0348 .0367,-.0365 l.0417,-.003 l-.002,-.0243 l-.0427,.0027 c-.0457,.003 -.0617,.0197 -.0617,.0621 l0,.0212 l-.0523,0 z" />
    <path class="sym" id="x3" d="m.0307,.441 l.0287,0 l0,-.0957 c.0183,.0167 .0343,.0207 .0493,.0207 c.043,0 .0763,-.0336 .0763,-.0815 c0,-.0479 -.0313,-.0785 -.0687,-.0785 c-.022,0 -.0387,.008 -.0587,.03 l-.0027,-.027 l-.0243,0 z m.0773,-.2113 c.026,0 .0477,.0216 .0477,.0555 c0,.0319 -.0193,.0572 -.0537,.0572 c-.0107,0 -.0247,-.0033 -.0427,-.0196 l0,-.0665 c.0207,-.0209 .0343,-.0266 .0487,-.0266 z" />
    <path class="sym" id="x4" d="m.0593,.127 l-.0287,0 l0,.237 l.0083,0 l.0143,-.0097 c.0153,.0087 .0313,.0127 .048,.0127 c.05,0 .0837,-.0367 .0837,-.0823 c0,-.048 -.031,-.0787 -.069,-.0787 c-.021,0 -.0373,.0073 -.0567,.0273 z m.0487,.103 c.026,0 .0477,.0213 .0477,.0557 c0,.0293 -.02,.0573 -.0583,.0573 c-.012,0 -.0243,-.0037 -.038,-.0127 l0,-.074 c.0207,-.0207 .0343,-.0263 .0487,-.0263 z" />
    <path class="sym" id="x5" d="m.1207,.163 c.0153,0 .025,-.0073 .025,-.0207 c0,-.0133 -.0083,-.0213 -.0247,-.0213 c-.0153,0 -.025,.0093 -.025,.0207 c0,.0143 .0103,.0213 .0247,.0213 z m.0187,.2171 l0,-.1711 l-.0997,0 l0,.024 l.071,0 l0,.1474 c0,.024 -.0097,.0329 -.0347,.0349 l-.0427,.003 l.001,.0247 l.0437,-.0027 c.0447,-.0027 .0613,-.019 .0613,-.0603 z" />
    <path class="sym" id="x6" d="m.0807,.3087 c0,.0393 .0137,.0527 .054,.055 l.0397,.0023 l.0017,-.0247 l-.0363,-.0023 c-.022,-.001 -.0307,-.0093 -.0307,-.0333 l0,-.1787 l-.0893,0 l0,.024 l.061,0 z" />
    <path class="sym" id="x7" d="m.173,.364 l0,-.155 l-.0287,0 l0,.095 c-.0293,.0277 -.0437,.036 -.0587,.036 c-.0187,0 -.0263,-.0097 -.0263,-.0283 l0,-.1027 l-.0287,0 l0,.1077 c0,.0303 .0153,.0493 .047,.0493 c.0217,0 .039,-.0097 .0677,-.0366 l.0017,.0346 z" />
    <path class="sym" id="x8" d="m.1037,.405 l.083,-.196 l-.0303,0 l-.052,.1307 l-.0533,-.1307 l-.032,0 l.0697,.1637 l-.0113,.0257 c-.006,.013 -.0123,.0167 -.031,.0177 l-.0313,.0017 l.0007,.0243 l.037,-.0017 c.0243,-.0013 .0397,-.0083 .051,-.0353 z" />
    <path class="sym" id="x9" d="m.133,.2287 l.0263,0 l.0067,-.1017 l-.0397,0 z m-.0853,0 l.0267,0 l.0063,-.1017 l-.0397,0 z" />
    <path class="sym" id="x10" d="m.088,.2287 l.0287,0 l.0067,-.1017 l-.042,0 z" />
    <path class="sym" id="x11" d="m.163,.3247 l0,-.068 c0,-.0353 -.016,-.0507 -.0677,-.0507 c-.0143,0 -.0357,.002 -.059,.006 l.003,.023 c.022,-.0037 .0427,-.0057 .055,-.0057 c.033,0 .0407,.007 .0407,.0267 l0,.0117 l-.0577,.0067 c-.0413,.0047 -.055,.018 -.055,.0477 c0,.0283 .0193,.044 .047,.044 c.024,0 .044,-.0083 .0637,-.0243 l.003,0 c.0043,.0153 .0153,.0217 .038,.0227 l.0157,.0007 l.002,-.022 l-.015,-.001 c-.0113,-.001 -.0137,-.0043 -.0137,-.0173 z m-.0873,.019 c-.0173,0 -.025,-.0087 -.025,-.0237 c0,-.0137 .005,-.023 .0317,-.0267 l.0527,-.007 l0,.0317 c-.027,.02 -.0423,.0257 -.0593,.0257 z" />
    <path class="sym" id="x12" d="m.1428,.2077 l.048,0 l0,-.0486 l-.048,0 z m0,.0241 l0,.0276 c0,.0139 -.005,.0257 -.0151,.0356 c-.0101,.0099 -.0221,.0149 -.0363,.0149 c-.0141,0 -.0262,-.005 -.0362,-.0149 c-.01,-.01 -.015,-.022 -.015,-.0362 c0,-.0139 .005,-.0258 .015,-.0359 c.01,-.0101 .0219,-.0151 .0357,-.0151 l.0278,0 l0,-.0486 l-.0278,0 c-.0138,0 -.0257,-.005 -.0357,-.0151 c-.01,-.0101 -.015,-.0221 -.015,-.0361 c0,-.0141 .005,-.0261 .015,-.0361 c.01,-.01 .0221,-.015 .0362,-.015 c.0141,0 .0262,.005 .0363,.0149 c.0101,.0099 .0151,.0218 .0151,.0357 l0,.0276 l.048,0 l0,-.0276 c0,-.0139 .005,-.0257 .015,-.0357 c.01,-.0099 .0221,-.0149 .0362,-.0149 c.0142,0 .0263,.005 .0362,.015 c.0099,.01 .0149,.022 .0149,.0361 c0,.014 -.005,.026 -.0149,.0361 c-.0099,.0101 -.0218,.0151 -.0357,.0151 l-.0276,0 l0,.0486 l.0276,0 c.0139,0 .0258,.005 .0357,.0151 c.0099,.0101 .0149,.022 .0149,.0359 c0,.0142 -.005,.0263 -.0149,.0362 c-.0099,.01 -.022,.0149 -.0362,.0149 c-.0141,0 -.0261,-.005 -.0362,-.0149 c-.01,-.0099 -.015,-.0218 -.015,-.0356 l0,-.0276 z m-.0241,-.0967 l0,-.0271 c0,-.0075 -.0027,-.0138 -.008,-.0191 c-.0053,-.0053 -.0118,-.0079 -.0193,-.0079 c-.0074,0 -.0138,.0026 -.0191,.0079 c-.0053,.0052 -.008,.0116 -.008,.0191 c0,.0075 .0027,.0139 .008,.0192 c.0053,.0053 .0118,.008 .0193,.008 z m0,.0967 l-.0271,0 c-.0075,0 -.0139,.0027 -.0193,.008 c-.0053,.0053 -.008,.0116 -.008,.019 c0,.0075 .0027,.0138 .008,.0191 c.0053,.0053 .0118,.0079 .0193,.0079 c.0074,0 .0138,-.0026 .0191,-.0079 c.0053,-.0053 .008,-.0116 .008,-.019 z m.0962,-.0967 l.0271,0 c.0074,0 .0137,-.0026 .019,-.008 c.0053,-.0053 .008,-.0117 .008,-.0192 c0,-.0075 -.0026,-.0138 -.0079,-.0191 c-.0053,-.0053 -.0116,-.0079 -.0191,-.0079 c-.0075,0 -.0139,.0026 -.0192,.0079 c-.0053,.0052 -.008,.0116 -.008,.0191 z m0,.0967 l0,.0271 c0,.0074 .0027,.0137 .008,.019 c.0053,.0053 .0117,.0079 .0192,.0079 c.0075,0 .0138,-.0026 .0191,-.0079 c.0053,-.0053 .0079,-.0117 .0079,-.0191 c0,-.0074 -.0027,-.0137 -.008,-.019 c-.0053,-.0053 -.0116,-.008 -.019,-.008 z" />
    <path class="sym" id="x13" d="m.017,.34 l0,.024 l.1187,0 l0,-.024 l-.0497,0 l0,-.0517 c.037,-.0444 .042,-.0473 .0697,-.0493 l.0317,-.0027 l-.002,-.0283 l-.0327,.002 c-.0233,.0017 -.0357,.0073 -.068,.0532 l-.0017,-.0542 l-.0593,0 l0,.024 l.034,0 l0,.107 z" />
    <path class="sym" id="x14" d="m.0255,.1183 l.1136,0 l.1205,.164 l.0993,0 l0,.0277 l-.1136,0 l-.1204,-.164 l-.0993,0 z m.2194,0 l.1139,0 l0,.0277 l-.1139,0 z" />
    <path class="sym" id="x15" d="m.174,.3205 c0,-.0229 -.0087,-.0351 -.0513,-.0451 l-.0287,-.0066 c-.025,-.0063 -.0293,-.0119 -.0293,-.0219 c0,-.0106 .0093,-.0186 .045,-.0186 c.0137,0 .033,.0023 .054,.007 l.004,-.0243 c-.0197,-.0036 -.043,-.006 -.0577,-.006 c-.0537,0 -.0747,.0187 -.0747,.0442 c0,.0215 .0083,.0338 .051,.0441 l.029,.0066 c.0243,.006 .0297,.0119 .0297,.0225 c0,.0126 -.0113,.0219 -.048,.0219 c-.0143,0 -.0373,-.0023 -.0613,-.0073 l-.0043,.0243 c.0253,.005 .0457,.0066 .0653,.0066 c.0543,0 .0773,-.021 .0773,-.0475 z" />
    <path class="sym" id="x16" d="m.1588,.1263 l-.0535,.0531 l-.0234,-.0234 l.077,-.077 l.0176,0 l.0766,.077 l-.0234,.0234 l-.0531,-.0531 z" />
    <path class="sym" id="x17" d="m.073,.3048 c0,.0436 .012,.0569 .0527,.0589 l.0517,.0023 l.002,-.0243 l-.047,-.0027 c-.024,-.0013 -.031,-.0093 -.031,-.0382 l0,-.0678 l.0687,0 l0,-.024 l-.069,0 l0,-.0577 l-.0277,0 l0,.0577 l-.0527,0 l0,.024 l.0523,0 z" />
    <path class="sym" id="x18" d="m.1737,.1251 l-.0342,-.0342 l-.0341,.0342 l.0155,0 l0,.1621 l.0374,0 l0,-.1621 z m-.1233,.0228 l.0891,-.0892 l.0892,.0892 l-.0477,0 l0,.1621 l-.0829,0 l0,-.1621 z" />
    <path class="sym" id="x19" d="m.0197,.2845 c0,.0461 .0313,.0752 .0687,.0752 c.0213,0 .038,-.007 .0573,-.0273 l0,.0363 c0,.0322 -.0123,.0461 -.046,.0481 l-.0547,.003 l.001,.0243 l.0573,-.003 c.0517,-.0027 .0707,-.0243 .0707,-.0734 l0,-.1596 l-.0077,0 l-.016,.01 c-.015,-.0083 -.0307,-.012 -.047,-.012 c-.0497,0 -.0837,.035 -.0837,.0785 z m.0293,-.0007 c0,-.0278 .02,-.0538 .0583,-.0538 c.012,0 .0243,.0037 .0383,.0127 l0,.0662 c-.021,.0214 -.0343,.0271 -.049,.0271 c-.0257,0 -.0477,-.0201 -.0477,-.0522 z" />
    <path class="sym" id="x20" d="m.0861,.136 c.0128,0 .0208,-.0064 .0208,-.0172 c0,-.0117 -.0069,-.018 -.0203,-.018 c-.013,0 -.0208,.0075 -.0208,.0175 c0,.0117 .0083,.0178 .0203,.0178 z m-.0545,.147 l0,.02 l.1158,0 l0,-.02 l-.0461,0 l0,-.109 l-.0642,0 l0,.02 l.0403,0 l0,.089 z m.186,-.109 l-.0203,0 l0,.129 l.0239,0 l0,-.0793 c.0245,-.0231 .0364,-.03 .0489,-.03 c.0156,0 .022,.0078 .022,.0236 l0,.0857 l.0239,0 l0,-.0899 c0,-.0253 -.0128,-.0411 -.0392,-.0411 c-.0181,0 -.0325,.0078 -.0567,.0308 z m.2693,.0932 c0,-.0193 -.0072,-.0296 -.0428,-.038 l-.0239,-.0056 c-.0208,-.0053 -.0245,-.0101 -.0245,-.0184 c0,-.009 .0078,-.0157 .0375,-.0157 c.0114,0 .0275,.002 .045,.0059 l.0033,-.0203 c-.0164,-.0031 -.0358,-.005 -.0481,-.005 c-.0447,0 -.0622,.0156 -.0622,.0371 c0,.0182 .0069,.0285 .0425,.0372 l.0242,.0056 c.0203,.005 .0247,.0101 .0247,.019 c0,.0106 -.0094,.0184 -.04,.0184 c-.0119,0 -.0311,-.002 -.0511,-.0061 l-.0036,.0203 c.0211,.0042 .038,.0056 .0544,.0056 c.0453,0 .0645,-.0175 .0645,-.0398 z m.1252,.0184 c-.0358,-.0011 -.0522,-.0128 -.0547,-.0386 l.1047,0 c.0006,-.0025 .0008,-.0058 .0008,-.01 c0,-.044 -.0245,-.067 -.062,-.067 c-.0389,0 -.0672,.0297 -.0672,.0706 c0,.04 .0214,.063 .0714,.0638 l.0328,.0005 l.0008,-.0186 z m-.0111,-.0967 c.0217,0 .0364,.0122 .0383,.0403 l-.0814,0 c.0036,-.026 .0214,-.0403 .043,-.0403 z m.0971,.0941 l0,.02 l.0989,0 l0,-.02 l-.0414,0 l0,-.043 c.0308,-.037 .035,-.0395 .0581,-.0412 l.0264,-.0022 l-.0017,-.0236 l-.0272,.0017 c-.0195,.0014 -.0297,.0061 -.0567,.0444 l-.0014,-.045 l-.0494,0 l0,.02 l.0283,0 l0,.089 z m.2177,-.0291 c0,.0363 .01,.0475 .0439,.0491 l.0431,.0019 l.0017,-.0203 l-.0392,-.0022 c-.02,-.0011 -.0258,-.0078 -.0258,-.0319 l0,-.0566 l.0572,0 l0,-.02 l-.0575,0 l0,-.048 l-.023,0 l0,.048 l-.0439,0 l0,.02 l.0436,0 z" />
    <path class="sym" id="x21" d="m.04,.241 l0,.0277 l.1247,0 l0,-.0277 z" />
    <path class="sym" id="x22" d="m.039,.209 l-.0213,0 l0,.155 l.026,0 l0,-.0991 c.0203,-.0246 .0287,-.0296 .0363,-.0296 c.007,0 .01,.0033 .01,.0106 l0,.118 l.0253,0 l0,-.0994 c.0203,-.0243 .0287,-.0293 .036,-.0293 c.007,0 .01,.003 .01,.011 l0,.1177 l.0263,0 l0,-.126 c0,-.0217 -.0087,-.03 -.025,-.03 c-.014,0 -.0273,.0077 -.045,.0343 l-.0027,0 l0,-.0057 c0,-.021 -.0087,-.029 -.0243,-.029 c-.0133,0 -.0277,.008 -.0463,.036 l-.0023,0 z" />
    <path class="sym" id="x23" d="m.056,.209 l-.0243,0 l0,.155 l.0287,0 l0,-.0953 c.0293,-.0274 .0437,-.0357 .0587,-.0357 c.0187,0 .0263,.0093 .0263,.0283 l0,.1027 l.0287,0 l0,-.1077 c0,-.0303 -.0153,-.0493 -.047,-.0493 c-.0217,0 -.039,.0093 -.068,.037 z" />
    <path class="sym" id="x24" d="m.119,.3427 c-.043,-.0013 -.0627,-.0153 -.0657,-.0463 l.1257,0 c.0007,-.003 .001,-.007 .001,-.012 c0,-.0527 -.0293,-.0803 -.0743,-.0803 c-.0467,0 -.0807,.0356 -.0807,.0847 c0,.048 .0257,.0757 .0857,.0767 l.0393,.0007 l.001,-.0223 z m-.0133,-.116 c.026,0 .0437,.0146 .046,.0483 l-.0977,0 c.0043,-.0311 .0257,-.0483 .0517,-.0483 z" />
    <path class="sym" id="x25" d="m.1033,.163 c.0153,0 .025,-.0077 .025,-.0207 c0,-.014 -.0083,-.0217 -.0243,-.0217 c-.0157,0 -.025,.009 -.025,.021 c0,.014 .01,.0213 .0243,.0213 z m-.0653,.177 l0,.024 l.139,0 l0,-.024 l-.0553,0 l0,-.131 l-.077,0 l0,.024 l.0483,0 l0,.107 z" />
    <path class="sym" id="x26" d="m.1017,.369 c.048,0 .0817,-.0333 .0817,-.082 c0,-.0493 -.0333,-.083 -.0803,-.083 c-.048,0 -.0817,.0343 -.0817,.082 c0,.05 .0333,.083 .0803,.083 z m.0007,-.024 c-.031,0 -.052,-.022 -.052,-.0587 c0,-.0363 .0213,-.0587 .052,-.0587 c.031,0 .052,.0237 .052,.059 c0,.0373 -.021,.0583 -.052,.0583 z" />
    <path class="sym" id="x27" d="m.0287,.364 l.151,0 l0,-.0233 l-.11,0 l0,-.001 l.1047,-.1107 l0,-.02 l-.1417,0 l0,.023 l.102,0 l0,.001 l-.106,.1113 z" />
    <path class="sym" id="x28" d="m.0213,.364 l.0333,0 l.047,-.0637 l.0473,.0637 l.035,0 l-.0647,-.0803 l.059,-.0747 l-.033,0 l-.0427,.0573 l-.0417,-.0573 l-.0353,0 l.059,.075 z" />
    <path class="sym" id="x29" d="m.1093,.2283 c.015,0 .029,.0027 .0583,.0217 l.0133,-.021 c-.032,-.021 -.052,-.025 -.072,-.025 c-.0483,0 -.0857,.0353 -.0857,.0813 c0,.0523 .0343,.0837 .0817,.0837 c.0233,0 .044,-.0053 .0767,-.0243 l-.0123,-.02 c-.0293,.0163 -.0463,.02 -.063,.02 c-.0307,0 -.0533,-.0237 -.0533,-.059 c0,-.0337 .023,-.0573 .0563,-.0573 z" />
    <path class="sym" id="x30" d="m.0887,.367 c.0217,0 .0383,-.0077 .0583,-.0286 l.0027,.0256 l.0243,0 l0,-.237 l-.0287,0 l0,.0977 c-.0167,-.014 -.032,-.0177 -.0473,-.0177 c-.045,0 -.0783,.034 -.0783,.0815 c0,.0478 .031,.0785 .069,.0785 z m-.0397,-.0795 c0,-.0322 .0197,-.0572 .0533,-.0572 c.0107,0 .025,.0033 .043,.0196 l0,.0668 c-.0207,.0209 -.0343,.0266 -.0487,.0266 c-.026,0 -.0477,-.0216 -.0477,-.0558 z" />
    <path class="sym" id="x31" d="m.0183,.209 l.0673,.155 l.0337,0 l.067,-.155 l-.0303,0 l-.053,.1293 l-.0527,-.1293 z" />
    <path class="sym" id="x32" d="m.1,.34 l0,-.025 l.2,0 l0,.025 z m.1,-.2067 l.0979,.0979 l-.0179,.0179 l-.08,-.08 l-.0783,.0783 l-.0179,-.0179 z" />
    <path class="sym" id="x33" d="m.031,.234 l.1427,0 l0,-.0237 l-.1427,0 z m0,.065 l.1427,0 l0,-.024 l-.1427,0 z" />
    <path class="sym" id="x34" d="m.0653,.127 l-.0283,0 l0,.237 l.0283,0 l0,-.0763 l.081,.0763 l.0383,0 l0,-.0007 l-.0883,-.081 l.088,-.0727 l0,-.0007 l-.0367,0 l-.0823,.0693 z" />
    <path class="sym" id="x35" d="m.0603,.127 l-.0287,0 l0,.237 l.0287,0 l0,-.0951 c.0293,-.0276 .0437,-.0359 .0587,-.0359 c.0187,0 .0263,.0093 .0263,.0283 l0,.1027 l.0287,0 l0,-.1077 c0,-.0303 -.0153,-.0493 -.047,-.0493 c-.0213,0 -.0387,.0093 -.0667,.0357 z" />
    <path class="sym" id="x36" d="m.1053,.257 c.0183,0 .0297,-.009 .0297,-.0257 c0,-.017 -.0093,-.0263 -.029,-.0263 c-.0183,0 -.029,.011 -.029,.0257 c0,.018 .0117,.0263 .0283,.0263 z m-.06,.158 l.028,0 c.0383,-.0333 .0487,-.049 .055,-.0947 l-.0453,0 c-.004,.04 -.0087,.052 -.0377,.094 z" />
    <path class="sym" id="x37" d="m.0477,.4147 l.028,0 c.0383,-.0333 .049,-.049 .055,-.0947 l-.0453,0 c-.0037,.04 -.0087,.052 -.0377,.094 z" />
    <path class="sym" id="x38" d="m.092,.2833 c.003,-.0254 .0047,-.0277 .0143,-.0327 l.0273,-.0144 c.034,-.0174 .0457,-.0297 .0457,-.0568 c0,-.0357 -.0223,-.0574 -.0677,-.0574 c-.0263,0 -.0463,.0037 -.0897,.0197 l.0077,.0244 c.0423,-.016 .0627,-.02 .0787,-.02 c.0263,0 .0413,.0107 .0413,.0331 c0,.0154 -.0067,.0244 -.032,.0371 l-.0317,.0154 c-.0137,.0067 -.017,.01 -.017,.018 c0,.0047 .0013,.0124 .0047,.0337 z m-.011,.0857 c.0177,0 .027,-.0073 .027,-.021 c0,-.014 -.0073,-.0217 -.0263,-.0217 c-.0183,0 -.0267,.0087 -.0267,.021 c0,.0147 .0093,.0217 .026,.0217 z" />
    <path class="sym" id="x39" d="m.1023,.369 c.0183,0 .029,-.0097 .029,-.027 c0,-.0173 -.0097,-.027 -.029,-.027 c-.0183,0 -.029,.01 -.029,.0273 c0,.017 .0097,.0267 .029,.0267 z" />
    <path class="sym" id="x40" d="m.0137,.112 l.1477,.285 l.0297,0 l-.1483,-.285 z" />
    <path class="sym" id="x41" d="m.191,.112 l-.029,0 l-.1483,.285 l.0297,0 z" />
    <path class="sym" id="x42" d="m.0992,.2856 c-.0358,-.0011 -.0522,-.0128 -.0547,-.0386 l.1047,0 c.0006,-.0025 .0008,-.0058 .0008,-.01 c0,-.044 -.0245,-.067 -.062,-.067 c-.0389,0 -.0672,.0297 -.0672,.0706 c0,.04 .0214,.063 .0714,.0638 l.0328,.0005 l.0008,-.0186 z m-.0111,-.0967 c.0217,0 .0364,.0122 .0383,.0403 l-.0814,0 c.0036,-.026 .0214,-.0403 .043,-.0403 z m.228,.0783 c0,-.0193 -.0072,-.0296 -.0428,-.038 l-.0239,-.0056 c-.0208,-.0053 -.0245,-.0101 -.0245,-.0184 c0,-.009 .0078,-.0157 .0375,-.0157 c.0114,0 .0275,.002 .045,.0059 l.0033,-.0203 c-.0164,-.0031 -.0358,-.005 -.0481,-.005 c-.0447,0 -.0622,.0156 -.0622,.0371 c0,.0182 .0069,.0285 .0425,.0372 l.0242,.0056 c.0203,.005 .0247,.0101 .0247,.019 c0,.0106 -.0094,.0184 -.04,.0184 c-.0119,0 -.0311,-.002 -.0511,-.0061 l-.0036,.0203 c.0211,.0042 .038,.0056 .0544,.0056 c.0453,0 .0645,-.0175 .0645,-.0398 z m.1171,-.0769 c.0125,0 .0242,.0022 .0486,.018 l.0111,-.0174 c-.0267,-.0175 -.0433,-.0208 -.06,-.0208 c-.0403,0 -.0714,.0294 -.0714,.0675 c0,.0434 .0286,.0695 .0681,.0695 c.0194,0 .0367,-.0044 .0639,-.0203 l-.0103,-.0166 c-.0245,.0135 -.0386,.0166 -.0525,.0166 c-.0256,0 -.0445,-.0196 -.0445,-.0489 c0,-.0279 .0192,-.0475 .047,-.0475 z" />
    <path class="sym" id="x43" d="m0,.3768 l.0213,0 l0,.0377 l.1778,0 l0,-.0377 l.0213,0 l0,.0613 l-.2204,0 z" />
    <path class="sym" id="x44" d="m.0191,.1919 l.1696,0 l-.0381,-.0381 l.0195,-.0195 l.0641,.0641 l0,-.0625 l.0277,0 l0,.14 l-.0277,0 l0,-.0628 l-.0641,.0641 l-.0195,-.0195 l.0381,-.0381 l-.1696,0 z" />
    <path class="sym" id="x45" d="m.1496,.3401 l-.0996,-.0996 l.0996,-.0998 l.0179,.0179 l-.0696,.0698 l.2271,0 l0,-.0719 l.025,0 l0,.0965 l-.2517,0 l.0692,.0692 z" />
    <path class="sym" id="x46" d="m.3719,.258 l-.266,0 l-.1055,-.1055 l.1055,-.1055 l.266,0 z m-.0201,-.191 l-.0191,0 l-.0855,.0854 l.0855,.0855 l.0191,0 z m-.1902,0 l.0712,.0712 l.0712,-.0712 z m.1424,.1709 l-.0712,-.0712 l-.0712,.0712 z m-.1706,-.1709 l-.0192,0 l-.0855,.0857 l.0855,.0852 l.0192,0 l.0855,-.0855 z" />
    <path class="sym" id="x47" d="m.0211,.258 l0,-.211 l.266,0 l.1055,.1055 l-.1055,.1055 z m.0201,-.191 l0,.1709 l.0191,0 l.0855,-.0855 l-.0855,-.0854 z m.1902,0 l-.1424,0 l.0712,.0712 z m-.1424,.1709 l.1424,0 l-.0712,-.0712 z m.1706,-.1709 l-.0855,.0854 l.0855,.0855 l.0192,0 l.0855,-.0852 l-.0855,-.0857 z" />
    <path class="sym" id="x48" d="m.1913,.2227 l-.0223,-.0077 c-.015,.0377 -.0193,.047 -.027,.047 c-.0063,0 -.0107,-.002 -.0357,-.021 c-.0247,-.0187 -.033,-.024 -.0437,-.024 c-.018,0 -.0307,.0113 -.0493,.0677 l.0223,.0077 c.015,-.038 .0193,-.0473 .027,-.0473 c.0063,0 .0107,.002 .0357,.021 c.0247,.0187 .033,.024 .0437,.024 c.018,0 .0307,-.0113 .0493,-.0673 z" />
    <path class="sym" id="x49" d="m.017,.274 l.03,0 l.055,-.1067 l.055,.1067 l.0307,0 l-.0693,-.128 l-.0327,0 z" />
    <path class="sym" id="x50" d="m.158,.1477 c-.0247,-.0047 -.0393,-.0067 -.051,-.0067 c-.0367,0 -.0557,.0213 -.0557,.0467 c0,.0124 .005,.0254 .02,.0464 l.0057,.008 c-.0477,.0154 -.0583,.0334 -.0583,.0671 c0,.0364 .0233,.0577 .0557,.0577 c.0297,0 .0457,-.01 .0623,-.041 l.027,.038 l.0327,0 l-.0453,-.0633 l.0303,-.071 l-.0223,-.0087 l-.0237,.06 l-.0423,-.061 c-.0123,-.0177 -.015,-.0263 -.015,-.0337 c0,-.013 .01,-.0223 .028,-.0223 c.0117,0 .0247,.0017 .048,.0063 z m-.1123,.1589 c0,-.0234 .0043,-.0341 .0433,-.0471 l.0333,.0484 c-.013,.0287 -.025,.0347 -.0437,.0347 c-.019,0 -.033,-.012 -.033,-.0361 z" />
    <path class="sym" id="x51" d="m.063,.409 l.1117,0 l0,-.024 l-.0827,0 l0,-.259 l.0827,0 l0,-.024 l-.1117,0 z" />
    <path class="sym" id="x52" d="m.03,.126 l.0827,0 l0,.259 l-.0827,0 l0,.024 l.1117,0 l0,-.307 l-.1117,0 z" />
    <path class="sym" id="x53" d="m.1147,.2287 l.027,0 l-.047,-.1017 l-.044,0 z" />
    <path class="sym" id="x54" d="m.164,.3837 l-.0027,-.0156 c-.0197,.0046 -.034,.006 -.046,.006 c-.0517,0 -.0783,-.0288 -.0783,-.1168 c0,-.0938 .0273,-.1192 .0723,-.1192 c.0343,0 .0513,.0103 .0573,.054 l-.0327,0 c-.0393,0 -.0613,.018 -.0613,.0642 c0,.0455 .0173,.0648 .0567,.0648 c.037,0 .0573,-.0167 .0573,-.0765 c0,-.1011 -.0253,-.1225 -.0753,-.1225 c-.0563,0 -.0913,.0327 -.0913,.1368 c0,.097 .0307,.1312 .0937,.1312 c.0163,0 .0303,-.002 .0503,-.0063 z m-.069,-.1272 c0,-.0335 .013,-.0452 .0383,-.0452 l.0353,0 c.0007,.01 .001,.0211 .001,.0338 c0,.0432 -.0117,.0565 -.039,.0565 c-.0237,0 -.0357,-.0114 -.0357,-.0452 z" />
    <path class="sym" id="x55" d="m.0133,.3067 l.0377,0 l-.0113,.0613 l.0207,0 l.0117,-.062 l.042,0 l-.0117,.062 l.0213,0 l.0113,-.0613 l.0463,0 l0,-.0257 l-.0413,0 l.01,-.054 l.0413,0 l0,-.026 l-.0367,0 l.011,-.059 l-.021,0 l-.0113,.06 l-.0423,0 l.0113,-.06 l-.021,0 l-.011,.059 l-.0467,0 l0,.026 l.042,0 l-.01,.054 l-.0423,0 z m.106,-.0187 l-.046,0 l.0127,-.0677 l.0457,0 z" />
    <path class="sym" id="x56" d="m.1147,.4113 l0,-.048 c.0413,-.0037 .065,-.026 .065,-.0603 c0,-.0307 -.013,-.048 -.064,-.0637 l0,-.0697 c.0143,.001 .0313,.0047 .0523,.0107 l.0053,-.0247 c-.022,-.0057 -.038,-.009 -.0567,-.0097 l0,-.0477 l-.0213,0 l0,.0477 c-.043,.0037 -.064,.028 -.064,.0547 c0,.0283 .0153,.05 .063,.0637 l0,.0757 c-.017,-.0017 -.04,-.0077 -.0643,-.0163 l-.007,.0247 c.026,.009 .0483,.0143 .07,.0153 l0,.0477 z m-.054,-.213 c0,-.0147 .0107,-.027 .0377,-.0287 l0,.067 c-.0307,-.0103 -.0377,-.022 -.0377,-.0383 z m.0893,.106 c0,.0197 -.012,.033 -.0383,.0357 l0,-.0727 c.032,.0107 .0383,.022 .0383,.037 z" />
    <path class="sym" id="x57" d="m.0383,.2553 c0,.0593 .0383,.1123 .1223,.1577 l.0137,-.0193 c-.08,-.0447 -.1063,-.091 -.1063,-.1393 c0,-.0483 .0263,-.0947 .1063,-.1393 l-.0137,-.0193 c-.0843,.0453 -.1223,.0997 -.1223,.1597 z" />
    <path class="sym" id="x58" d="m.1663,.2533 c0,-.0593 -.0383,-.1123 -.1223,-.1577 l-.0137,.0193 c.08,.0447 .1063,.091 .1063,.1393 c0,.0483 -.0263,.0947 -.1063,.1393 l.0137,.0193 c.0843,-.0453 .1223,-.0997 .1223,-.1597 z" />
    <path class="sym" id="x59" d="m.0363,.2883 l.026,.0223 c.014,-.0163 .0243,-.044 .04,-.0633 c.0157,.0193 .0263,.047 .0403,.0633 l.026,-.0223 c-.014,-.0167 -.0403,-.0303 -.0573,-.0487 c.024,-.0077 .0533,-.0067 .0737,-.014 l-.0117,-.0327 c-.02,.007 -.042,.0257 -.065,.0347 c.001,-.0247 .0117,-.052 .0117,-.0737 l-.0347,0 c0,.0217 .0103,.0487 .0113,.074 c-.0233,-.0093 -.045,-.028 -.065,-.035 l-.0117,.0327 c.0203,.0073 .0497,.0063 .0737,.014 c-.017,.0183 -.0433,.032 -.0573,.0487 z" />
    <path class="sym" id="x60" d="m.015,.2002 c0,.0365 .0153,.0588 .0473,.0588 c.0323,0 .049,-.0227 .049,-.0592 c0,-.0368 -.0167,-.0588 -.0487,-.0588 c-.0317,0 -.0477,.0227 -.0477,.0592 z m.1167,.0382 l.0643,-.0923 l0,-.002 l-.0313,0 l-.0467,.0943 z m-.0693,-.079 c.019,0 .0273,.0151 .0273,.0408 c0,.0258 -.008,.0398 -.027,.0398 c-.0187,0 -.0263,-.0144 -.0263,-.0402 c0,-.0254 .0073,-.0405 .026,-.0405 z m.031,.1508 c0,.0365 .0167,.0588 .0487,.0588 c.0317,0 .0477,-.0227 .0477,-.0592 c0,-.0365 -.0153,-.0588 -.0473,-.0588 c-.0323,0 -.049,.0227 -.049,.0592 z m.049,.0405 c-.019,0 -.0273,-.0151 -.0273,-.0408 c0,-.0258 .008,-.0398 .027,-.0398 c.0187,0 .0267,.0144 .0267,.0402 c0,.0254 -.0077,.0405 -.0263,.0405 z m-.0693,-.079 l-.0643,.0923 l0,.002 l.0313,0 l.0467,-.0943 z" />
    <path class="sym" id="x61" d="m.065,.3697 c0,.0153 .009,.0253 .0367,.0297 l.0773,.011 l.0033,-.0237 l-.0737,-.0103 c-.0103,-.0017 -.013,-.005 -.013,-.0097 c0,-.0033 .002,-.007 .0103,-.0167 l.0163,-.0183 c.0167,-.0187 .0187,-.0247 .0187,-.0317 c0,-.0137 -.0067,-.0247 -.093,-.0457 l0,-.0013 c.0867,-.021 .093,-.032 .093,-.0457 c0,-.007 -.002,-.013 -.0187,-.0317 l-.0163,-.0183 c-.0083,-.0097 -.0103,-.0133 -.0103,-.0167 c0,-.0047 .0027,-.008 .013,-.0097 l.0737,-.0103 l-.0033,-.0237 l-.0773,.011 c-.0277,.0043 -.0367,.0143 -.0367,.0297 c0,.0087 .0043,.018 .0173,.032 l.016,.018 c.0097,.0113 .011,.0143 .011,.0183 c0,.0077 -.004,.014 -.0847,.0347 l0,.026 c.0807,.021 .0847,.027 .0847,.0347 c0,.004 -.0013,.007 -.011,.018 l-.016,.0183 c-.013,.014 -.0173,.0233 -.0173,.032 z" />
    <path class="sym" id="x62" d="m.1397,.3697 c0,-.0087 -.0043,-.018 -.0173,-.032 l-.016,-.0183 c-.0097,-.011 -.011,-.014 -.011,-.018 c0,-.0077 .004,-.0137 .0847,-.0347 l0,-.026 c-.0807,-.021 -.0847,-.027 -.0847,-.0347 c0,-.004 .0013,-.007 .011,-.0183 l.016,-.018 c.013,-.014 .0173,-.0233 .0173,-.032 c0,-.0153 -.009,-.0253 -.0367,-.0297 l-.0773,-.011 l-.0033,.0237 l.0737,.0103 c.0103,.0017 .013,.005 .013,.0097 c0,.0033 -.002,.007 -.0103,.0167 l-.0163,.0183 c-.0167,.0187 -.0187,.0247 -.0187,.0317 c0,.0137 .0067,.0247 .093,.0457 l0,.0013 c-.0863,.021 -.093,.032 -.093,.0457 c0,.007 .002,.013 .0187,.0317 l.0163,.0183 c.0083,.0097 .0103,.0133 .0103,.0167 c0,.0047 -.0027,.008 -.013,.0097 l-.0737,.0103 l.0033,.0237 l.0773,-.011 c.0277,-.0043 .0367,-.0143 .0367,-.0297 z" />
    <path class="sym" id="x63" d="m.102,.257 c.0183,0 .0293,-.009 .0293,-.0257 c0,-.017 -.0093,-.0263 -.0287,-.0263 c-.0187,0 -.0293,.011 -.0293,.0257 c0,.018 .0117,.0263 .0287,.0263 z m0,.112 c.0183,0 .0293,-.0093 .0293,-.0257 c0,-.017 -.0093,-.0267 -.0287,-.0267 c-.0187,0 -.0293,.0113 -.0293,.026 c0,.0177 .0117,.0263 .0287,.0263 z" />
    <path class="sym" id="x64" d="m.0933,.2833 l.018,0 l.0187,-.1563 l-.055,0 z m.008,.0857 c.0177,0 .0267,-.0073 .0267,-.021 c0,-.014 -.0073,-.0217 -.026,-.0217 c-.0183,0 -.027,.0087 -.027,.021 c0,.0147 .0093,.0217 .0263,.0217 z" />
    <path class="sym" id="x65" d="m.1157,.112 l-.0267,0 l0,.285 l.0267,0 z" />
    <path class="sym" id="x66" d="m.0233,.2667 l.0653,0 l0,.0683 l.027,0 l0,-.0683 l.0657,0 l0,-.0237 l-.0657,0 l0,-.068 l-.027,0 l0,.068 l-.0653,0 z" />
    <path class="sym" id="x67" d="m.026,.3723 l0,.0267 l.1527,0 l0,-.0267 z" />
    <path class="sym" id="x68" d="m.2717,.382 l.025,.025 l-.205,0 c-.0067,0 -.0125,-.0025 -.0175,-.0075 c-.005,-.005 -.0075,-.0108 -.0075,-.0175 l0,-.2831 c0,-.0067 .0025,-.0125 .0075,-.0175 c.005,-.005 .0108,-.0075 .0175,-.0075 l.155,0 l.0867,.0992 l0,.203 c0,.0039 -.001,.0079 -.0031,.0119 c-.0021,.004 -.0047,.0073 -.0077,.0098 l-.0883,-.088 c-.0056,.0033 -.0111,.0057 -.0165,.0071 c-.0054,.0014 -.0113,.0021 -.0177,.0021 c-.0172,0 -.0317,-.0059 -.0435,-.0178 c-.0118,-.0119 -.0177,-.0264 -.0177,-.0437 c0,-.0173 .0059,-.0319 .0177,-.0437 c.0118,-.0119 .0263,-.0178 .0435,-.0178 c.0172,0 .0317,.0059 .0435,.0178 c.0118,.0119 .0177,.0264 .0177,.0437 c0,.0064 -.0009,.0126 -.0027,.0184 c-.0018,.0059 -.0045,.011 -.0081,.0155 l.0579,.0578 l0,-.1682 l-.0717,-.0821 l-.145,0 l0,.283 z m-.0717,-.088 c.0106,0 .0192,-.0041 .026,-.0124 c.0068,-.0083 .0102,-.0178 .0102,-.0287 c0,-.0092 -.0036,-.0168 -.0108,-.0229 c-.0072,-.006 -.0157,-.009 -.0254,-.009 c-.0097,0 -.0182,.003 -.0254,.009 c-.0072,.006 -.0108,.0136 -.0108,.0229 c0,.0109 .0034,.0205 .0102,.0287 c.0068,.0083 .0155,.0124 .026,.0124 z m0,-.0415 z m0,0 z m.3103,-.016 l.0122,0 l.0532,.0534 l-.0163,.0163 l-.0315,-.0317 l0,.1655 l-.0231,0 l0,-.1655 l-.0317,.0317 l-.0163,-.0163 z" />
    <path class="sym" id="x69" d="m.2625,.067 l0,.0161 l-.2266,0 l0,.2267 l-.0161,0 l0,-.2428 z m-.1955,.0573 l.0103,-.0103 l.0905,0 l0,.0275 l-.0537,0 l.1403,.1403 l-.0195,.0195 l-.1403,-.1403 l0,.0537 l-.0275,0 z" />
    <path class="sym" id="x70" d="m.1324,.0659 l.0146,0 l.0638,.0641 l-.0195,.0195 l-.0377,-.0381 l0,.1986 l-.0277,0 l0,-.1986 l-.0381,.0381 l-.0195,-.0195 z" />
    <path class="sym" id="x71" d="m.02,.31 l0,-.0161 l.2268,0 l0,-.2267 l.0161,0 l0,.2428 z m.1955,-.0573 l-.0103,.0103 l-.0905,0 l0,-.0275 l.0537,0 l-.1403,-.1403 l.0195,-.0195 l.1403,.1403 l0,-.0537 l.0275,0 z" />
    <path class="sym" id="x72" d="m.3258,.393 l-.1254,-.1255 l-.0488,.0487 c.0031,.0047 .0049,.0093 .0056,.0138 c.0007,.0044 .001,.0093 .001,.0146 c0,.0178 -.006,.0326 -.0179,.0446 c-.0119,.0119 -.0268,.0179 -.0446,.0179 c-.0178,0 -.0326,-.006 -.0446,-.0179 c-.0119,-.0119 -.0179,-.0268 -.0179,-.0446 c0,-.0178 .006,-.0326 .0179,-.0446 c.0119,-.0119 .0268,-.0179 .0446,-.0179 c.005,0 .0099,.0007 .0148,.0021 c.0049,.0014 .0099,.0035 .0152,.0063 l.0483,-.0482 l-.0492,-.049 c-.0047,.0022 -.0095,.0037 -.0144,.0046 c-.0049,.0008 -.0098,.0013 -.0148,.0013 c-.0178,0 -.0326,-.006 -.0446,-.0179 c-.0119,-.0119 -.0179,-.0268 -.0179,-.0446 c0,-.0178 .006,-.0326 .0179,-.0446 c.0119,-.0119 .0268,-.0179 .0446,-.0179 c.0178,0 .0326,.006 .0446,.0179 c.0119,.0119 .0179,.0268 .0179,.0445 c0,.0053 -.0004,.0103 -.001,.015 c-.0007,.0047 -.0021,.0092 -.0044,.0133 l.2142,.2139 l0,.0143 z m-.0762,-.1719 l-.0275,-.0275 l.1037,-.1039 l.0413,0 l0,.0139 z m-.1537,-.0471 c.0106,0 .0195,-.0036 .0267,-.0108 c.0072,-.0072 .0108,-.0161 .0108,-.0267 c0,-.0106 -.0036,-.0194 -.0108,-.0267 c-.0072,-.0072 -.0161,-.0108 -.0267,-.0108 c-.0106,0 -.0194,.0036 -.0267,.0108 c-.0072,.0072 -.0108,.0161 -.0108,.0267 c0,.0106 .0036,.0195 .0108,.0267 c.0072,.0072 .0161,.0108 .0267,.0108 z m.1054,.076 c.0022,0 .0041,-.0008 .0056,-.0023 c.0015,-.0015 .0023,-.0034 .0023,-.0056 c0,-.0022 -.0008,-.0041 -.0023,-.0056 c-.0015,-.0015 -.0034,-.0023 -.0056,-.0023 c-.0022,0 -.0041,.0008 -.0056,.0023 c-.0015,.0015 -.0023,.0034 -.0023,.0056 c0,.0022 .0008,.0041 .0023,.0056 c.0015,.0015 .0034,.0023 .0056,.0023 z m-.1054,.132 c.0106,0 .0195,-.0036 .0267,-.0108 c.0072,-.0072 .0108,-.0161 .0108,-.0267 c0,-.0106 -.0036,-.0195 -.0108,-.0267 c-.0072,-.0072 -.0161,-.0108 -.0267,-.0108 c-.0106,0 -.0194,.0036 -.0267,.0108 c-.0072,.0072 -.0108,.0161 -.0108,.0267 c0,.0106 .0036,.0194 .0108,.0267 c.0072,.0072 .0161,.0108 .0267,.0108 z" />
    <path class="sym" id="x73" d="m.2717,.382 l.025,.025 l-.205,0 c-.0067,0 -.0125,-.0025 -.0175,-.0075 c-.005,-.005 -.0075,-.0108 -.0075,-.0175 l0,-.2831 c0,-.0067 .0025,-.0125 .0075,-.0175 c.005,-.005 .0108,-.0075 .0175,-.0075 l.155,0 l.0867,.0992 l0,.203 c0,.0039 -.001,.0079 -.0031,.0119 c-.0021,.004 -.0047,.0073 -.0077,.0098 l-.0883,-.088 c-.0056,.0033 -.0111,.0057 -.0165,.0071 c-.0054,.0014 -.0113,.0021 -.0177,.0021 c-.0172,0 -.0317,-.0059 -.0435,-.0178 c-.0118,-.0119 -.0177,-.0264 -.0177,-.0437 c0,-.0173 .0059,-.0319 .0177,-.0437 c.0118,-.0119 .0263,-.0178 .0435,-.0178 c.0172,0 .0317,.0059 .0435,.0178 c.0118,.0119 .0177,.0264 .0177,.0437 c0,.0064 -.0009,.0126 -.0027,.0184 c-.0018,.0059 -.0045,.011 -.0081,.0155 l.0579,.0578 l0,-.1682 l-.0717,-.0821 l-.145,0 l0,.283 z m-.0717,-.088 c.0106,0 .0192,-.0041 .026,-.0124 c.0068,-.0083 .0102,-.0178 .0102,-.0287 c0,-.0092 -.0036,-.0168 -.0108,-.0229 c-.0072,-.006 -.0157,-.009 -.0254,-.009 c-.0097,0 -.0182,.003 -.0254,.009 c-.0072,.006 -.0108,.0136 -.0108,.0229 c0,.0109 .0034,.0205 .0102,.0287 c.0068,.0083 .0155,.0124 .026,.0124 z m0,-.0415 z m0,0 z m.3225,.1885 l-.0122,0 l-.0534,-.0534 l.0163,-.0163 l.0317,.0317 l0,-.1655 l.0231,0 l0,.1655 l.0315,-.0317 l.0163,.0163 z" />
    <path class="sym" id="x74" d="m.0161,.213 l0,-.0146 l.064,-.064 l.0195,.0195 l-.0379,.0379 l.1984,0 l0,.0277 l-.1984,0 l.0379,.0379 l-.0195,.0195 z" />
    <path class="sym" id="x75" d="m.1471,.3111 l-.0146,0 l-.0641,-.0641 l.0195,-.0195 l.0381,.0381 l0,-.1986 l.0277,0 l0,.1986 l.0377,-.0381 l.0195,.0195 z" />
    <path class="sym" id="x76" d="m.263,.1984 l0,.0146 l-.064,.064 l-.0195,-.0195 l.0379,-.0379 l-.1984,0 l0,-.0277 l.1984,0 l-.0379,-.0379 l.0195,-.0195 z" />
    <path class="sym" id="x77" d="m.125,.357 c-.0067,0 -.0125,-.0025 -.0175,-.0075 c-.005,-.005 -.0075,-.0108 -.0075,-.0175 l0,-.2331 c0,-.0067 .0025,-.0125 .0075,-.0175 c.005,-.005 .0108,-.0075 .0175,-.0075 l.1833,0 c.0067,0 .0125,.0025 .0175,.0075 c.005,.005 .0075,.0108 .0075,.0175 l0,.2331 c0,.0067 -.0025,.0125 -.0075,.0175 c-.005,.005 -.0108,.0075 -.0175,.0075 z m0,-.025 l.1833,0 l0,-.233 l-.1833,0 z m-.05,.075 c-.0067,0 -.0125,-.0025 -.0175,-.0075 c-.005,-.005 -.0075,-.0108 -.0075,-.0175 l0,-.2581 l.025,0 l0,.258 l.2083,0 l0,.025 z m.05,-.0753 l0,-.2333 z" />
    <path class="sym" id="x78" d="m.1079,.357 l0,-.025 l.1292,0 c.0194,0 .0362,-.0065 .0502,-.0194 c.014,-.0129 .021,-.029 .021,-.0481 c0,-.0192 -.007,-.0352 -.021,-.0481 c-.014,-.0129 -.0308,-.0194 -.0502,-.0194 l-.1229,0 l.0475,.0475 l-.0175,.0175 l-.0775,-.0775 l.0775,-.0775 l.0175,.0175 l-.0475,.0475 l.1225,0 c.0264,0 .0491,.0089 .0681,.0267 c.019,.0178 .0285,.0397 .0285,.0658 c0,.0261 -.0095,.048 -.0285,.0658 c-.019,.0178 -.0417,.0267 -.0681,.0267 z" />
    <path class="sym" id="x79" d="m.3387,.4146 l-.2225,-.2225 l-.0471,.0471 l.0821,.0821 l-.0179,.0179 l-.1,-.1 l.065,-.065 l-.0729,-.0729 l.0179,-.0179 l.3133,.3133 z m-.0379,-.1096 l-.0179,-.0179 l.0479,-.0479 l-.0821,-.0821 l.0179,-.0179 l.1,.1 z" />
    <path class="sym" id="x80" d="m.1323,.0659 l.0146,0 l.0638,.0641 l-.0195,.0195 l-.0377,-.0381 l0,.0602 l.0482,0 l0,.0277 l-.0482,0 l0,.0277 l.0482,0 l0,.0277 l-.0482,0 l0,.0553 l-.0277,0 l0,-.0553 l-.0478,0 l0,-.0277 l.0478,0 l0,-.0277 l-.0478,0 l0,-.0277 l.0478,0 l0,-.0602 l-.0381,.0381 l-.0195,-.0195 z" />
    <path class="sym" id="x81" d="m.1466,.3111 l-.0146,0 l-.0638,-.0641 l.0195,-.0195 l.0377,.0381 l0,-.0602 l-.0482,0 l0,-.0277 l.0482,0 l0,-.0277 l-.0482,0 l0,-.0277 l.0482,0 l0,-.0553 l.0277,0 l0,.0553 l.0478,0 l0,.0277 l-.0478,0 l0,.0277 l.0478,0 l0,.0277 l-.0478,0 l0,.0602 l.0381,-.0381 l.0195,.0195 z" />
    <path class="sym" id="x82" d="m.075,.39 c-.0072,0 -.0132,-.0024 -.0179,-.0071 c-.0047,-.0047 -.0071,-.0107 -.0071,-.0179 l0,-.25 c0,-.0072 .0024,-.0132 .0071,-.0179 c.0047,-.0047 .0107,-.0071 .0179,-.0071 l.0842,0 c.0019,-.0096 .0067,-.0175 .0144,-.0237 c.0076,-.0062 .0165,-.0093 .0265,-.0093 c.01,0 .0188,.0031 .0265,.0093 c.0076,.0062 .0124,.0141 .0144,.0237 l.0842,0 c.0072,0 .0132,.0024 .0179,.0071 c.0047,.0047 .0071,.0107 .0071,.0179 l0,.25 c0,.0072 -.0024,.0132 -.0071,.0179 c-.0047,.0047 -.0107,.0071 -.0179,.0071 z m0,-.025 l.25,0 l0,-.25 l-.025,0 l0,.0375 l-.2,0 l0,-.0375 l-.025,0 z m.125,-.25 c.0047,0 .0087,-.0016 .0119,-.0047 c.0032,-.0032 .0048,-.0071 .0048,-.0118 c0,-.0047 -.0016,-.0086 -.0048,-.0118 c-.0032,-.0032 -.0072,-.0047 -.0119,-.0047 c-.0047,0 -.0087,.0016 -.0119,.0047 c-.0032,.0032 -.0048,.0071 -.0048,.0118 c0,.0047 .0016,.0086 .0048,.0118 c.0032,.0032 .0072,.0047 .0119,.0047 z" />
    <path class="sym" id="x83" d="m.1633,.357 c-.0264,0 -.0491,-.0089 -.0681,-.0267 c-.019,-.0178 -.0285,-.0397 -.0285,-.0658 c0,-.0261 .0095,-.0481 .0285,-.0658 c.019,-.0178 .0417,-.0267 .0681,-.0267 l.1225,0 l-.0475,-.0475 l.0175,-.0175 l.0775,.0775 l-.0775,.0775 l-.0175,-.0175 l.0475,-.0475 l-.1229,0 c-.0194,0 -.0362,.0065 -.0502,.0194 c-.014,.0129 -.021,.029 -.021,.0481 c0,.0192 .007,.0352 .021,.0481 c.014,.0129 .0308,.0194 .0502,.0194 l.1292,0 l0,.025 z" />
    <path class="sym" id="x84" d="m.038,.364 l.1383,0 l0,-.024 l-.0533,0 l0,-.198 l-.008,0 l-.0773,.04 l0,.0297 l.0563,-.0293 l0,.1577 l-.056,0 z" />
    <path class="sym" id="x85" d="m.0283,.364 l.1533,0 l0,-.024 l-.1153,0 l0,-.001 l.054,-.0546 c.046,-.0466 .055,-.0602 .055,-.0845 c0,-.0359 -.0273,-.0589 -.0657,-.0589 c-.029,0 -.0507,.01 -.086,.044 l.016,.0196 c.032,-.0303 .047,-.0389 .0687,-.0389 c.0243,0 .0373,.0143 .0373,.0353 c0,.0176 -.0063,.0283 -.047,.0702 l-.0703,.0729 z" />
    <path class="sym" id="x86" d="m.0253,.17 l.1047,0 l0,.001 l-.0683,.0753 l.0053,.0133 c.0103,-.0017 .0193,-.0027 .0293,-.0027 c.038,0 .0527,.0143 .0527,.0359 c0,.0249 -.0197,.0412 -.0787,.0455 l-.04,.003 l.0023,.0257 l.0397,-.0027 c.0767,-.0053 .1063,-.0326 .1063,-.0718 c0,-.0309 -.0207,-.0579 -.0753,-.0579 l0,-.0007 l.0653,-.0697 l0,-.0183 l-.1433,0 z" />
    <path class="sym" id="x87" d="m.0177,.306 l.1053,0 l0,.058 l.0283,0 l0,-.058 l.0433,0 l0,-.0233 l-.0433,0 l0,-.1367 l-.039,0 l-.0947,.1393 z m.1077,-.14 l0,.1187 l-.0797,0 l0,-.0017 z" />
    <path class="sym" id="x88" d="m.1787,.2869 c0,-.0405 -.0297,-.0632 -.0643,-.0632 c-.019,0 -.0363,.0053 -.0527,.016 l.006,-.0697 l.0983,0 l0,-.024 l-.123,0 l-.0083,.114 l.001,.0017 l.0197,.003 c.0177,-.0116 .0357,-.0176 .0537,-.0176 c.0217,0 .0403,.0143 .0403,.0395 c0,.0286 -.019,.0462 -.08,.0518 l-.0397,.0037 l.0027,.025 l.0387,-.0033 c.0783,-.0067 .1077,-.035 .1077,-.0768 z" />
    <path class="sym" id="x89" d="m.18,.293 c0,-.0437 -.0287,-.071 -.0717,-.071 c-.0117,0 -.023,.0013 -.036,.0057 c.0083,-.013 .02,-.0259 .0353,-.0395 l.0463,-.0415 l-.0003,-.0007 l-.0397,0 l-.0323,.0305 c-.041,.0388 -.0563,.0671 -.0563,.1118 c0,.0527 .0363,.0807 .0767,.0807 c.0453,0 .078,-.0313 .078,-.076 z m-.1253,-.006 c0,-.0127 .002,-.0247 .0063,-.0367 c.0137,-.0043 .027,-.0063 .0407,-.0063 c.031,0 .0487,.0193 .0487,.0483 c0,.0307 -.0183,.053 -.0477,.053 c-.0273,0 -.048,-.022 -.048,-.0583 z" />
    <path class="sym" id="x90" d="m.085,.364 l.0923,-.194 l0,-.024 l-.1577,0 l0,.025 l.128,0 l0,.002 l-.097,.1903 l0,.0007 z" />
    <path class="sym" id="x91" d="m.102,.369 c.0443,0 .0773,-.0243 .0773,-.0632 c0,-.0259 -.02,-.0462 -.049,-.0538 l0,-.0017 c.0253,-.008 .0423,-.0267 .0423,-.05 c0,-.0363 -.029,-.0593 -.0697,-.0593 c-.0407,0 -.071,.0233 -.071,.06 c0,.0233 .017,.0417 .0427,.0493 l0,.0017 c-.0293,.008 -.0493,.0286 -.0493,.0545 c0,.0385 .033,.0625 .0767,.0625 z m.0007,-.128 c-.0227,0 -.042,-.0153 -.042,-.0387 c0,-.024 .0177,-.0383 .0417,-.0383 c.0243,0 .0417,.0143 .0417,.0377 c0,.0233 -.019,.0393 -.0413,.0393 z m0,.105 c-.028,0 -.0487,-.0159 -.0487,-.0408 c0,-.0256 .0217,-.0425 .0483,-.0425 c.0267,0 .0483,.0163 .0483,.0418 c0,.0259 -.0207,.0415 -.048,.0415 z" />
    <path class="sym" id="x92" d="m.1233,.3335 c.04,-.0378 .0567,-.0691 .0567,-.1118 c0,-.0527 -.035,-.0807 -.075,-.0807 c-.0473,0 -.08,.0313 -.08,.076 c0,.0437 .0287,.071 .0717,.071 c.0117,0 .023,-.0017 .0363,-.006 c-.0083,.0133 -.02,.0262 -.0353,.0399 l-.0467,.0415 l.0003,.0007 l.0397,0 z m.0273,-.1105 c0,.0127 -.002,.0247 -.0063,.0367 c-.014,.0043 -.0273,.0063 -.041,.0063 c-.0307,0 -.0487,-.0193 -.0487,-.0483 c0,-.0307 .0187,-.053 .0477,-.053 c.0273,0 .0483,.022 .0483,.0583 z" />
    <path class="sym" id="x93" d="m.1823,.2541 c0,-.074 -.0303,-.1131 -.0797,-.1131 c-.0493,0 -.0803,.0401 -.0803,.1145 c0,.0752 .0303,.1135 .0797,.1135 c.0493,0 .0803,-.0394 .0803,-.1149 z m-.1317,.0007 c0,-.0615 .0183,-.0891 .0517,-.0891 c.0227,0 .0387,.0131 .0463,.0413 l-.0967,.0749 c-.001,-.0084 -.0013,-.017 -.0013,-.0271 z m.1033,0 c0,.0615 -.0187,.0896 -.0517,.0896 c-.0223,0 -.0383,-.013 -.0463,-.0411 l.0967,-.0748 c.001,.008 .0013,.0167 .0013,.0264 z" />
    <path class="sym" id="x94" d="m.1793,.338 l0,-.0267 l-.1307,-.0543 l.1307,-.054 l0,-.0263 l-.1567,.0673 l0,.0263 z" />
    <path class="sym" id="x95" d="m.182,.2703 l0,-.0263 l-.1567,-.0673 l0,.0263 l.1307,.054 l-.1307,.0543 l0,.0267 z" />
    <path class="sym" id="x96" d="m.0467,.174 l-.0203,0 l0,.129 l.0239,0 l0,-.0793 c.0245,-.0231 .0364,-.03 .0489,-.03 c.0156,0 .022,.0078 .022,.0236 l0,.0857 l.0239,0 l0,-.0899 c0,-.0253 -.0128,-.0411 -.0392,-.0411 c-.0181,0 -.0325,.0078 -.0567,.0308 z m.2685,.129 l0,-.129 l-.0239,0 l0,.0791 c-.0245,.0233 -.0364,.0303 -.0489,.0303 c-.0156,0 -.022,-.008 -.022,-.0236 l0,-.0858 l-.0239,0 l0,.0899 c0,.0253 .0128,.0411 .0392,.0411 c.018,0 .0325,-.008 .0564,-.0305 l.0014,.0285 z m.0593,-.129 l-.0178,0 l0,.129 l.0217,0 l0,-.0825 c.017,-.0205 .0239,-.0247 .0303,-.0247 c.0058,0 .0083,.0028 .0083,.0089 l0,.0983 l.0211,0 l0,-.0828 c.0169,-.0202 .0239,-.0244 .03,-.0244 c.0058,0 .0083,.0025 .0083,.0092 l0,.0981 l.022,0 l0,-.105 c0,-.018 -.0072,-.025 -.0208,-.025 c-.0117,0 -.0228,.0064 -.0375,.0286 l-.0022,0 l0,-.0047 c0,-.0175 -.0072,-.0242 -.0203,-.0242 c-.0111,0 -.023,.0067 -.0386,.03 l-.0019,0 z m-.2081,.549 c-.0058,0 -.0107,-.002 -.0148,-.0061 c-.004,-.0041 -.0061,-.009 -.0061,-.0148 l0,-.1511 c0,-.0058 .002,-.0107 .0061,-.0148 c.0041,-.0041 .009,-.0061 .0148,-.0061 l.0243,0 l0,-.0333 c0,-.0182 .0064,-.0338 .0193,-.0466 c.0129,-.0128 .0284,-.0192 .0467,-.0192 c.0183,0 .0338,.0064 .0467,.0192 c.0129,.0128 .0193,.0284 .0193,.0466 l0,.0333 l.0243,0 c.0058,0 .0107,.002 .0148,.0061 c.0041,.0041 .0061,.009 .0061,.0148 l0,.1511 c0,.0058 -.002,.0107 -.0061,.0148 c-.0041,.0041 -.009,.0061 -.0148,.0061 z m0,-.0209 l.1805,0 l0,-.1511 l-.1805,0 z m.0903,-.0488 c.0074,0 .0137,-.0026 .0189,-.0077 c.0052,-.0051 .0078,-.0113 .0078,-.0185 c0,-.007 -.0026,-.0133 -.0078,-.019 c-.0052,-.0057 -.0115,-.0085 -.0189,-.0085 c-.0074,0 -.0137,.0028 -.0189,.0085 c-.0052,.0057 -.0078,.0121 -.0078,.0193 c0,.007 .0026,.013 .0078,.0181 c.0052,.0051 .0115,.0077 .0189,.0077 z m-.0451,-.1232 l.0903,0 l0,-.0333 c0,-.0125 -.0044,-.0231 -.0132,-.0319 c-.0088,-.0088 -.0194,-.0132 -.0319,-.0132 c-.0125,0 -.0232,.0044 -.032,.0132 c-.0088,.0088 -.0132,.0194 -.0132,.0319 z m-.0451,.1722 l0,-.1509 z" />
    <path class="sym" id="x97" d="m.2004,.4276 l-.0563,-.0546 l-.0775,0 l0,-.0776 l-.0558,-.0559 l.0558,-.0559 l0,-.0776 l.0775,0 l.0563,-.0558 l.0554,.0558 l.0775,0 l0,.0776 l.0558,.0559 l-.0558,.0559 l0,.0776 l-.0775,0 z m0,-.1071 c.0225,0 .0417,-.0079 .0575,-.0238 c.0158,-.0159 .0238,-.0351 .0238,-.0576 c0,-.0225 -.0079,-.0417 -.0238,-.0576 c-.0158,-.0159 -.035,-.0238 -.0575,-.0238 c-.0225,0 -.0417,.0079 -.0575,.0238 c-.0158,.0159 -.0238,.035 -.0238,.0576 c0,.0225 .0079,.0417 .0238,.0576 c.0158,.0159 .035,.0238 .0575,.0238 z m0,-.0809 z m0,.153 l.045,-.0446 l.0629,0 l0,-.063 l.0454,-.0455 l-.0454,-.0455 l0,-.063 l-.0629,0 l-.045,-.0454 l-.0458,.0454 l-.0629,0 l0,.063 l-.0454,.0455 l.0454,.0455 l0,.063 l.0625,0 z m-.0004,-.153 z" />
    <path class="sym" id="x98" d="m.3558,.34 l-.1442,-.1 l.1442,-.1 z m-.1675,0 l-.1442,-.1 l.1442,-.1 z m-.025,-.1 z m.1675,0 z m-.1675,.0521 l0,-.1042 l-.0754,.0521 z m.1675,0 l0,-.1042 l-.0754,.0521 z" />
    <path class="sym" id="x99" d="m.2333,.3854 l0,-.0258 c.0269,-.0078 .049,-.0227 .066,-.0448 c.0171,-.0221 .0256,-.0472 .0256,-.0752 c0,-.0281 -.0085,-.0532 -.0254,-.0754 c-.0169,-.0222 -.039,-.0371 -.0663,-.0446 l0,-.0258 c.0344,.0078 .0625,.0252 .0842,.0523 c.0217,.0271 .0325,.0583 .0325,.0935 c0,.0353 -.0108,.0665 -.0325,.0935 c-.0217,.0271 -.0497,.0445 -.0842,.0523 z m-.1833,-.0954 l0,-.1 l.0667,0 l.0833,-.0833 l0,.2667 l-.0833,-.0833 z m.175,.02 l0,-.1404 c.0153,.0047 .0274,.0136 .0365,.0267 c.009,.0131 .0135,.0276 .0135,.0437 c0,.0158 -.0046,.0303 -.0138,.0433 c-.0092,.0131 -.0213,.0219 -.0362,.0267 z m-.05,-.14 l-.0471,.045 l-.0529,0 l0,.05 l.0529,0 l.0471,.0454 z m-.0392,.07 z" />
    <path class="sym" id="x100" d="m.0433,.34 l0,-.2 l.1442,.1 z m.1696,0 l0,-.2 l.1442,.1 z m-.1446,-.1 z m.1696,0 z m-.1696,.0521 l.0754,-.0521 l-.0754,-.0521 z m.1696,0 l.0754,-.0521 l-.0754,-.0521 z" />
    <path class="sym" id="x101" d="m.2,.4065 c-.0233,0 -.0451,-.0044 -.0654,-.0131 c-.0203,-.0088 -.0379,-.0206 -.0529,-.0356 c-.015,-.015 -.0268,-.0327 -.0354,-.0532 c-.0086,-.0204 -.0129,-.0423 -.0129,-.0657 c0,-.0233 .0043,-.0451 .0129,-.0652 c.0086,-.0202 .0204,-.0377 .0354,-.0527 c.015,-.015 .0326,-.0268 .0529,-.0352 c.0203,-.0085 .0421,-.0127 .0654,-.0127 c.0233,0 .0451,.0042 .0654,.0127 c.0203,.0085 .0379,.0202 .0529,.0352 c.015,.015 .0268,.0326 .0354,.0527 c.0086,.0201 .0129,.0419 .0129,.0652 c0,.0233 -.0043,.0452 -.0129,.0657 c-.0086,.0204 -.0204,.0381 -.0354,.0532 c-.015,.015 -.0326,.0269 -.0529,.0356 c-.0203,.0088 -.0421,.0131 -.0654,.0131 z m0,-.0241 c.0097,-.01 .0178,-.0215 .0244,-.0344 c.0065,-.0129 .0119,-.0283 .016,-.046 l-.0804,0 c.0039,.0167 .0091,.0317 .0156,.045 c.0065,.0133 .0147,.0251 .0244,.0354 z m-.0354,-.005 c-.0069,-.0106 -.0129,-.0219 -.0179,-.0342 c-.005,-.0122 -.0092,-.026 -.0125,-.0413 l-.0625,0 c.0106,.0197 .0228,.0352 .0367,.0465 c.0139,.0112 .0326,.0209 .0563,.029 z m.0712,-.0004 c.02,-.0064 .038,-.016 .054,-.0287 c.016,-.0128 .0288,-.0282 .0385,-.0463 l-.0621,0 c-.0036,.015 -.0079,.0286 -.0127,.0408 c-.0049,.0122 -.0108,.0236 -.0177,.0342 z m-.1725,-.1 l.0663,0 c-.0008,-.0075 -.0013,-.0143 -.0015,-.0203 c-.0001,-.006 -.0002,-.0119 -.0002,-.0178 c0,-.007 .0001,-.0132 .0004,-.0186 c.0003,-.0054 .0008,-.0115 .0017,-.0182 l-.0667,0 c-.0019,.0067 -.0033,.0127 -.004,.018 c-.0007,.0053 -.001,.0116 -.001,.0189 c0,.0073 .0003,.0138 .001,.0195 c.0007,.0057 .002,.0119 .004,.0186 z m.0921,0 l.0896,0 c.0011,-.0087 .0018,-.0157 .0021,-.0212 c.0003,-.0054 .0004,-.0111 .0004,-.017 c0,-.0056 -.0001,-.011 -.0004,-.0161 c-.0003,-.0052 -.001,-.0121 -.0021,-.0208 l-.0896,0 c-.0011,.0087 -.0018,.0156 -.0021,.0208 c-.0003,.0052 -.0004,.0105 -.0004,.0161 c0,.0059 .0001,.0115 .0004,.017 c.0003,.0054 .001,.0125 .0021,.0212 z m.1146,0 l.0667,0 c.0019,-.0067 .0033,-.0129 .004,-.0186 c.0007,-.0057 .001,-.0122 .001,-.0195 c0,-.0073 -.0004,-.0136 -.001,-.0189 c-.0007,-.0053 -.002,-.0113 -.004,-.018 l-.0663,0 c.0008,.0098 .0014,.0172 .0017,.0224 c.0003,.0052 .0004,.01 .0004,.0145 c0,.0061 -.0002,.0119 -.0006,.0174 c-.0004,.0054 -.001,.0124 -.0019,.0207 z m-.0042,-.1 l.0625,0 c-.0092,-.0191 -.0217,-.0351 -.0377,-.0478 c-.016,-.0128 -.0344,-.0218 -.0552,-.027 c.0069,.0103 .0128,.0214 .0177,.0333 c.0049,.0119 .0091,.0258 .0127,.0416 z m-.1058,0 l.0808,0 c-.0031,-.0147 -.0082,-.0289 -.0154,-.0426 c-.0072,-.0137 -.0157,-.0259 -.0254,-.0364 c-.0089,.0075 -.0164,.0173 -.0225,.0295 c-.0061,.0122 -.0119,.0287 -.0175,.0495 z m-.0883,0 l.0629,0 c.0031,-.015 .007,-.0284 .0117,-.0402 c.0047,-.0118 .0107,-.0232 .0179,-.0343 c-.0208,.0053 -.039,.0141 -.0546,.0266 c-.0156,.0125 -.0282,.0284 -.0379,.0478 z" />
    <path class="sym" id="x102" d="m.2004,.4276 l-.0563,-.0546 l-.0775,0 l0,-.0775 l-.0558,-.0558 l.0558,-.0558 l0,-.0778 l.0775,0 l.0563,-.0558 l.0554,.0558 l.0775,0 l0,.0778 l.0558,.0558 l-.0558,.0558 l0,.0775 l-.0775,0 z m0,-.1071 c.0225,0 .0417,-.0079 .0575,-.0238 c.0158,-.0159 .0238,-.035 .0238,-.0576 c0,-.0225 -.0079,-.0417 -.0238,-.0576 c-.0158,-.0159 -.035,-.0238 -.0575,-.0238 c-.0225,0 -.0417,.0079 -.0575,.0238 c-.0158,.0158 -.0238,.035 -.0238,.0576 c0,.0225 .0079,.0417 .0238,.0576 c.0158,.0158 .035,.0238 .0575,.0238 z m0,-.025 c-.0158,0 -.0292,-.0054 -.04,-.0163 c-.0108,-.0108 -.0163,-.0242 -.0163,-.04 c0,-.0158 .0054,-.0292 .0163,-.04 c.0108,-.0108 .0242,-.0163 .04,-.0163 c.0158,0 .0292,.0054 .04,.0163 c.0108,.0108 .0163,.0242 .0163,.04 c0,.0158 -.0054,.0292 -.0163,.04 c-.0108,.0108 -.0242,.0163 -.04,.0163 z m0,.0971 l.045,-.0446 l.0629,0 l0,-.0629 l.0454,-.0454 l-.0454,-.0454 l0,-.0633 l-.0629,0 l-.045,-.0454 l-.0458,.0454 l-.0629,0 l0,.0633 l-.0454,.0454 l.0454,.0454 l0,.0629 l.0625,0 z m0,-.153 z" />
    <path class="sym" id="x103" d="m.125,.165 l0,.15 z m-.025,.175 l0,-.2 l.2,0 l0,.2 z m.025,-.025 l.15,0 l0,-.15 l-.15,0 z" />
    <path class="sym" id="x104" d="m.0833,.29 l0,-.1 l.0667,0 l.0833,-.0833 l0,.2667 l-.0833,-.0833 z m.175,.02 l0,-.1404 c.015,.0047 .0271,.0136 .0362,.0267 c.0092,.0131 .0138,.0276 .0138,.0437 c0,.0164 -.0046,.031 -.0138,.0437 c-.0092,.0128 -.0213,.0215 -.0362,.0262 z m-.05,-.14 l-.0471,.045 l-.0529,0 l0,.05 l.0529,0 l.0471,.0454 z m-.0508,.07 z" />
    <path class="sym" id="x105" d="m.1333,.3554 l0,-.2333 l.1833,.1167 z m.025,-.1167 z m0,.0712 l.1121,-.0712 l-.1121,-.0712 z" />
    <path class="sym" id="x106" d="m.0917,.365 l.0625,0 l0,-.104 l.0917,0 l0,.104 l.0625,0 l0,-.1623 l-.1083,-.0813 l-.1083,.0813 z m-.025,.025 l0,-.1998 l.1333,-.1 l.1333,.1 l0,.1998 l-.1125,0 l0,-.104 l-.0417,0 l0,.104 z m.1333,-.1471 z" />
    <path class="sym" id="x107" d="m.0337,.146 l0,.218 l.029,0 l0,-.087 l.1037,0 l0,-.024 l-.1037,0 l0,-.083 l.1147,0 l0,-.024 z m.2093,.218 l.1383,0 l0,-.024 l-.0533,0 l0,-.198 l-.008,0 l-.0773,.04 l0,.0297 l.0563,-.0293 l0,.1577 l-.056,0 z m.3457,-.0771 c0,-.0405 -.0297,-.0632 -.0643,-.0632 c-.019,0 -.0363,.0053 -.0527,.016 l.006,-.0697 l.0983,0 l0,-.024 l-.123,0 l-.0083,.114 l.001,.0017 l.0197,.003 c.0177,-.0116 .0357,-.0176 .0537,-.0176 c.0217,0 .0403,.0143 .0403,.0395 c0,.0286 -.019,.0462 -.08,.0518 l-.0397,.0037 l.0027,.025 l.0387,-.0033 c.0783,-.0067 .1077,-.035 .1077,-.0768 z" />
    <path class="sym" id="x108" d="m.0337,.146 l0,.218 l.029,0 l0,-.087 l.1037,0 l0,-.024 l-.1037,0 l0,-.083 l.1147,0 l0,-.024 z m.2093,.218 l.1383,0 l0,-.024 l-.0533,0 l0,-.198 l-.008,0 l-.0773,.04 l0,.0297 l.0563,-.0293 l0,.1577 l-.056,0 z m.252,0 l.0923,-.194 l0,-.024 l-.1577,0 l0,.025 l.128,0 l0,.002 l-.097,.1903 l0,.0007 z" />
    <path class="sym" id="x109" d="m.0917,.34 l0,-.2 l.025,0 l0,.2 z m.2167,0 l-.1442,-.1 l.1442,-.1 z m-.025,-.1 z m0,.0521 l0,-.1042 l-.0754,.0521 z" />
    <path class="sym" id="x110" d="m.3387,.4167 l-.055,-.055 c-.0078,.0056 -.0162,.0103 -.0252,.0144 c-.009,.004 -.0184,.0071 -.0281,.0094 l0,-.0258 c.0064,-.0019 .0126,-.0041 .0185,-.0065 c.006,-.0024 .0116,-.0055 .0169,-.0094 l-.0688,-.0692 l0,.0988 l-.0833,-.0833 l-.0667,0 l0,-.1 l.065,0 l-.0917,-.0917 l.0179,-.0179 l.3183,.3179 z m-.015,-.0967 l-.0179,-.0179 c.0056,-.0094 .0097,-.0194 .0123,-.03 c.0026,-.0106 .004,-.0214 .004,-.0325 c0,-.0286 -.0083,-.0542 -.025,-.0769 c-.0167,-.0226 -.0389,-.037 -.0667,-.0431 l0,-.0258 c.0344,.0078 .0625,.0252 .0842,.0523 c.0217,.0271 .0325,.0583 .0325,.0935 c0,.0142 -.0019,.0281 -.0058,.0417 c-.0039,.0136 -.0097,.0265 -.0175,.0387 z m-.0558,-.0558 l-.0375,-.0375 l0,-.0542 c.0131,.0061 .0233,.0153 .0306,.0275 c.0074,.0122 .011,.0256 .011,.04 c0,.0042 -.0004,.0083 -.001,.0123 c-.0007,.004 -.0017,.008 -.0031,.0119 z m-.0708,-.0708 l-.0433,-.0433 l.0433,-.0433 z m-.025,.1192 l0,-.0625 l-.035,-.035 l-.065,0 l0,.05 l.0525,0 z m-.0175,-.08 z" />
    <path class="sym" id="x111" d="m.2833,.34 l0,-.2 l.025,0 l0,.2 z m-.1917,0 l0,-.2 l.1442,.1 z m.025,-.1 z m0,.0521 l.0754,-.0521 l-.0754,-.0521 z" />
    <path class="sym" id="x112" d="m.1308,.345 l.0208,0 l0,-.0367 l.0367,0 l0,-.0208 l-.0367,0 l0,-.0366 l-.0208,0 l0,.0366 l-.0367,0 l0,.0208 l.0367,0 z m.0896,-.0146 l.0838,0 l0,-.0204 l-.0838,0 z m0,-.0446 l.0838,0 l0,-.0208 l-.0838,0 z m.0154,-.0678 l.0254,-.0254 l.0254,.0254 l.015,-.015 l-.0254,-.0254 l.0254,-.0255 l-.015,-.015 l-.0254,.0254 l-.0254,-.0254 l-.015,.015 l.0254,.0255 l-.0254,.0254 z m-.1354,-.03 l.0817,0 l0,-.0209 l-.0817,0 z m-.0254,.202 c-.0067,0 -.0125,-.0025 -.0175,-.0075 c-.005,-.005 -.0075,-.0108 -.0075,-.0175 l0,-.25 c0,-.0067 .0025,-.0125 .0075,-.0175 c.005,-.005 .0108,-.0075 .0175,-.0075 l.25,0 c.0067,0 .0125,.0025 .0175,.0075 c.005,.005 .0075,.0108 .0075,.0175 l0,.25 c0,.0067 -.0025,.0125 -.0075,.0175 c-.005,.005 -.0108,.0075 -.0175,.0075 z m0,-.025 l.25,0 l0,-.25 l-.25,0 z m0,-.25 l0,.25 z" />
    <path class="sym" id="x113" d="m.0337,.146 l0,.218 l.029,0 l0,-.087 l.1037,0 l0,-.024 l-.1037,0 l0,-.083 l.1147,0 l0,-.024 z m.2093,.218 l.1383,0 l0,-.024 l-.0533,0 l0,-.198 l-.008,0 l-.0773,.04 l0,.0297 l.0563,-.0293 l0,.1577 l-.056,0 z m.347,-.071 c0,-.0437 -.0287,-.071 -.0717,-.071 c-.0117,0 -.023,.0013 -.036,.0057 c.0083,-.013 .02,-.0259 .0353,-.0395 l.0463,-.0415 l-.0003,-.0007 l-.0397,0 l-.0323,.0305 c-.041,.0388 -.0563,.0671 -.0563,.1118 c0,.0527 .0363,.0807 .0767,.0807 c.0453,0 .078,-.0313 .078,-.076 z m-.1253,-.006 c0,-.0127 .002,-.0247 .0063,-.0367 c.0137,-.0043 .027,-.0063 .0407,-.0063 c.031,0 .0487,.0193 .0487,.0483 c0,.0307 -.0183,.053 -.0477,.053 c-.0273,0 -.048,-.022 -.048,-.0583 z" />
    <path class="sym" id="x114" d="m.0337,.146 l0,.218 l.029,0 l0,-.087 l.1037,0 l0,-.024 l-.1037,0 l0,-.083 l.1147,0 l0,-.024 z m.2093,.218 l.1383,0 l0,-.024 l-.0533,0 l0,-.198 l-.008,0 l-.0773,.04 l0,.0297 l.0563,-.0293 l0,.1577 l-.056,0 z m.269,.005 c.0443,0 .0773,-.0243 .0773,-.0632 c0,-.0259 -.02,-.0462 -.049,-.0538 l0,-.0017 c.0253,-.008 .0423,-.0267 .0423,-.05 c0,-.0363 -.029,-.0593 -.0697,-.0593 c-.0407,0 -.071,.0233 -.071,.06 c0,.0233 .017,.0417 .0427,.0493 l0,.0017 c-.0293,.008 -.0493,.0286 -.0493,.0545 c0,.0385 .033,.0625 .0767,.0625 z m.0007,-.128 c-.0227,0 -.042,-.0153 -.042,-.0387 c0,-.024 .0177,-.0383 .0417,-.0383 c.0243,0 .0417,.0143 .0417,.0377 c0,.0233 -.019,.0393 -.0413,.0393 z m0,.105 c-.028,0 -.0487,-.0159 -.0487,-.0408 c0,-.0256 .0217,-.0425 .0483,-.0425 c.0267,0 .0483,.0163 .0483,.0418 c0,.0259 -.0207,.0415 -.048,.0415 z" />
    <path class="sym" id="x115" d="m.0337,.146 l0,.218 l.029,0 l0,-.087 l.1037,0 l0,-.024 l-.1037,0 l0,-.083 l.1147,0 l0,-.024 z m.2093,.218 l.1383,0 l0,-.024 l-.0533,0 l0,-.198 l-.008,0 l-.0773,.04 l0,.0297 l.0563,-.0293 l0,.1577 l-.056,0 z" />
    <path class="sym" id="x116" d="m.0337,.146 l0,.218 l.029,0 l0,-.087 l.1037,0 l0,-.024 l-.1037,0 l0,-.083 l.1147,0 l0,-.024 z m.1997,.218 l.1533,0 l0,-.024 l-.1153,0 l0,-.001 l.054,-.0546 c.046,-.0466 .055,-.0602 .055,-.0845 c0,-.0359 -.0273,-.0589 -.0657,-.0589 c-.029,0 -.0507,.01 -.086,.044 l.016,.0196 c.032,-.0303 .047,-.0389 .0687,-.0389 c.0243,0 .0373,.0143 .0373,.0353 c0,.0176 -.0063,.0283 -.047,.0702 l-.0703,.0729 z" />
    <path class="sym" id="x117" d="m.0337,.146 l0,.218 l.029,0 l0,-.087 l.1037,0 l0,-.024 l-.1037,0 l0,-.083 l.1147,0 l0,-.024 z m.1967,.024 l.1047,0 l0,.001 l-.0683,.0753 l.0053,.0133 c.0103,-.0017 .0193,-.0027 .0293,-.0027 c.038,0 .0527,.0143 .0527,.0359 c0,.0249 -.0197,.0412 -.0787,.0455 l-.04,.003 l.0023,.0257 l.0397,-.0027 c.0767,-.0053 .1063,-.0326 .1063,-.0718 c0,-.0309 -.0207,-.0579 -.0753,-.0579 l0,-.0007 l.0653,-.0697 l0,-.0183 l-.1433,0 z" />
    <path class="sym" id="x118" d="m.0337,.146 l0,.218 l.029,0 l0,-.087 l.1037,0 l0,-.024 l-.1037,0 l0,-.083 l.1147,0 l0,-.024 z m.189,.16 l.1053,0 l0,.058 l.0283,0 l0,-.058 l.0433,0 l0,-.0233 l-.0433,0 l0,-.1367 l-.039,0 l-.0947,.1393 z m.1077,-.14 l0,.1187 l-.0797,0 l0,-.0017 z" />
    <path class="sym" id="x119" d="m.0337,.146 l0,.218 l.029,0 l0,-.087 l.1037,0 l0,-.024 l-.1037,0 l0,-.083 l.1147,0 l0,-.024 z m.35,.1409 c0,-.0405 -.0297,-.0632 -.0643,-.0632 c-.019,0 -.0363,.0053 -.0527,.016 l.006,-.0697 l.0983,0 l0,-.024 l-.123,0 l-.0083,.114 l.001,.0017 l.0197,.003 c.0177,-.0116 .0357,-.0176 .0537,-.0176 c.0217,0 .0403,.0143 .0403,.0395 c0,.0286 -.019,.0462 -.08,.0518 l-.0397,.0037 l.0027,.025 l.0387,-.0033 c.0783,-.0067 .1077,-.035 .1077,-.0768 z" />
    <path class="sym" id="x120" d="m.0337,.146 l0,.218 l.029,0 l0,-.087 l.1037,0 l0,-.024 l-.1037,0 l0,-.083 l.1147,0 l0,-.024 z m.3513,.147 c0,-.0437 -.0287,-.071 -.0717,-.071 c-.0117,0 -.023,.0013 -.036,.0057 c.0083,-.013 .02,-.0259 .0353,-.0395 l.0463,-.0415 l-.0003,-.0007 l-.0397,0 l-.0323,.0305 c-.041,.0388 -.0563,.0671 -.0563,.1118 c0,.0527 .0363,.0807 .0767,.0807 c.0453,0 .078,-.0313 .078,-.076 z m-.1253,-.006 c0,-.0127 .002,-.0247 .0063,-.0367 c.0137,-.0043 .027,-.0063 .0407,-.0063 c.031,0 .0487,.0193 .0487,.0483 c0,.0307 -.0183,.053 -.0477,.053 c-.0273,0 -.048,-.022 -.048,-.0583 z" />
    <path class="sym" id="x121" d="m.0337,.146 l0,.218 l.029,0 l0,-.087 l.1037,0 l0,-.024 l-.1037,0 l0,-.083 l.1147,0 l0,-.024 z m.2563,.218 l.0923,-.194 l0,-.024 l-.1577,0 l0,.025 l.128,0 l0,.002 l-.097,.1903 l0,.0007 z" />
    <path class="sym" id="x122" d="m.0337,.146 l0,.218 l.029,0 l0,-.087 l.1037,0 l0,-.024 l-.1037,0 l0,-.083 l.1147,0 l0,-.024 z m.2733,.223 c.0443,0 .0773,-.0243 .0773,-.0632 c0,-.0259 -.02,-.0462 -.049,-.0538 l0,-.0017 c.0253,-.008 .0423,-.0267 .0423,-.05 c0,-.0363 -.029,-.0593 -.0697,-.0593 c-.0407,0 -.071,.0233 -.071,.06 c0,.0233 .017,.0417 .0427,.0493 l0,.0017 c-.0293,.008 -.0493,.0286 -.0493,.0545 c0,.0385 .033,.0625 .0767,.0625 z m.0007,-.128 c-.0227,0 -.042,-.0153 -.042,-.0387 c0,-.024 .0177,-.0383 .0417,-.0383 c.0243,0 .0417,.0143 .0417,.0377 c0,.0233 -.019,.0393 -.0413,.0393 z m0,.105 c-.028,0 -.0487,-.0159 -.0487,-.0408 c0,-.0256 .0217,-.0425 .0483,-.0425 c.0267,0 .0483,.0163 .0483,.0418 c0,.0259 -.0207,.0415 -.048,.0415 z" />
    <path class="sym" id="x123" d="m.0337,.146 l0,.218 l.029,0 l0,-.087 l.1037,0 l0,-.024 l-.1037,0 l0,-.083 l.1147,0 l0,-.024 z m.2947,.1875 c.04,-.0378 .0567,-.0691 .0567,-.1118 c0,-.0527 -.035,-.0807 -.075,-.0807 c-.0473,0 -.08,.0313 -.08,.076 c0,.0437 .0287,.071 .0717,.071 c.0117,0 .023,-.0017 .0363,-.006 c-.0083,.0133 -.02,.0262 -.0353,.0399 l-.0467,.0415 l.0003,.0007 l.0397,0 z m.0273,-.1105 c0,.0127 -.002,.0247 -.0063,.0367 c-.014,.0043 -.0273,.0063 -.041,.0063 c-.0307,0 -.0487,-.0193 -.0487,-.0483 c0,-.0307 .0187,-.053 .0477,-.053 c.0273,0 .0483,.022 .0483,.0583 z" />
    <path class="sym" id="x124" d="m.0337,.146 l0,.218 l.029,0 l0,-.087 l.1037,0 l0,-.024 l-.1037,0 l0,-.083 l.1147,0 l0,-.024 z m.2093,.218 l.1383,0 l0,-.024 l-.0533,0 l0,-.198 l-.008,0 l-.0773,.04 l0,.0297 l.0563,-.0293 l0,.1577 l-.056,0 z m.3493,-.1099 c0,-.074 -.0303,-.1131 -.0797,-.1131 c-.0493,0 -.0803,.0401 -.0803,.1145 c0,.0752 .0303,.1135 .0797,.1135 c.0493,0 .0803,-.0394 .0803,-.1149 z m-.1317,.0007 c0,-.0615 .0183,-.0891 .0517,-.0891 c.0227,0 .0387,.0131 .0463,.0413 l-.0967,.0749 c-.001,-.0084 -.0013,-.017 -.0013,-.0271 z m.1033,0 c0,.0615 -.0187,.0896 -.0517,.0896 c-.0223,0 -.0383,-.013 -.0463,-.0411 l.0967,-.0748 c.001,.008 .0013,.0167 .0013,.0264 z" />
    <path class="sym" id="x125" d="m.0911,.1903 c.0125,0 .0242,.0022 .0486,.018 l.0111,-.0174 c-.0267,-.0175 -.0433,-.0208 -.06,-.0208 c-.0403,0 -.0714,.0294 -.0714,.0675 c0,.0434 .0286,.0695 .0681,.0695 c.0194,0 .0367,-.0044 .0639,-.0203 l-.0103,-.0166 c-.0245,.0135 -.0386,.0166 -.0525,.0166 c-.0256,0 -.0445,-.0196 -.0445,-.0489 c0,-.0279 .0192,-.0475 .047,-.0475 z m.2157,.0802 l0,-.0564 c0,-.0293 -.0133,-.0421 -.0564,-.0421 c-.0119,0 -.0297,.0017 -.0492,.005 l.0025,.0191 c.0183,-.003 .0356,-.0047 .0458,-.0047 c.0275,0 .0339,.0058 .0339,.0221 l0,.0097 l-.0481,.0055 c-.0344,.0039 -.0458,.0149 -.0458,.0395 c0,.0237 .0161,.0367 .0392,.0367 c.02,0 .0367,-.0069 .0531,-.0203 l.0025,0 c.0036,.0126 .0128,.0179 .0317,.0187 l.013,.0005 l.0017,-.0183 l-.0125,-.0008 c-.0094,-.0008 -.0114,-.0036 -.0114,-.0144 z m-.0728,.0159 c-.0144,0 -.0208,-.0072 -.0208,-.0196 c0,-.0114 .0042,-.0191 .0264,-.0222 l.0439,-.0058 l0,.0263 c-.0225,.0166 -.0353,.0213 -.0495,.0213 z m.1335,.0806 l.0239,0 l0,-.0792 c.0153,.0139 .0286,.0172 .0411,.0172 c.0358,0 .0636,-.0281 .0636,-.0683 c0,-.0402 -.0261,-.0658 -.0572,-.0658 c-.0183,0 -.0322,.0067 -.0489,.025 l-.0022,-.022 l-.0203,0 z m.0645,-.1763 c.0217,0 .0397,.0181 .0397,.0466 c0,.0268 -.0161,.048 -.0447,.048 c-.0089,0 -.0206,-.0028 -.0356,-.0165 l0,-.0558 c.0172,-.0176 .0286,-.0223 .0406,-.0223 z m.226,.0764 c0,-.0193 -.0072,-.0296 -.0428,-.038 l-.0239,-.0056 c-.0208,-.0053 -.0245,-.0101 -.0245,-.0184 c0,-.009 .0078,-.0157 .0375,-.0157 c.0114,0 .0275,.002 .045,.0059 l.0033,-.0203 c-.0164,-.0031 -.0358,-.005 -.0481,-.005 c-.0447,0 -.0622,.0156 -.0622,.0371 c0,.0182 .0069,.0285 .0425,.0372 l.0242,.0056 c.0203,.005 .0247,.0101 .0247,.019 c0,.0106 -.0094,.0184 -.04,.0184 c-.0119,0 -.0311,-.002 -.0511,-.0061 l-.0036,.0203 c.0211,.0042 .038,.0056 .0544,.0056 c.0453,0 .0645,-.0175 .0645,-.0398 z m-.4056,.4558 c-.0058,0 -.0107,-.002 -.0148,-.0061 c-.004,-.0041 -.0061,-.009 -.0061,-.0148 l0,-.1511 c0,-.0058 .002,-.0107 .0061,-.0148 c.0041,-.0041 .009,-.0061 .0148,-.0061 l.0243,0 l0,-.0333 c0,-.0182 .0064,-.0338 .0193,-.0466 c.0129,-.0128 .0284,-.0192 .0467,-.0192 c.0183,0 .0338,.0064 .0467,.0192 c.0129,.0128 .0193,.0284 .0193,.0466 l0,.0333 l.0243,0 c.0058,0 .0107,.002 .0148,.0061 c.0041,.0041 .0061,.009 .0061,.0148 l0,.1511 c0,.0058 -.002,.0107 -.0061,.0148 c-.0041,.0041 -.009,.0061 -.0148,.0061 z m0,-.0209 l.1805,0 l0,-.1511 l-.1805,0 z m.0903,-.0488 c.0074,0 .0137,-.0026 .0189,-.0077 c.0052,-.0051 .0078,-.0113 .0078,-.0185 c0,-.007 -.0026,-.0133 -.0078,-.019 c-.0052,-.0057 -.0115,-.0085 -.0189,-.0085 c-.0074,0 -.0137,.0028 -.0189,.0085 c-.0052,.0057 -.0078,.0121 -.0078,.0193 c0,.007 .0026,.013 .0078,.0181 c.0052,.0051 .0115,.0077 .0189,.0077 z m-.0451,-.1232 l.0903,0 l0,-.0333 c0,-.0125 -.0044,-.0231 -.0132,-.0319 c-.0088,-.0088 -.0194,-.0132 -.0319,-.0132 c-.0125,0 -.0232,.0044 -.032,.0132 c-.0088,.0088 -.0132,.0194 -.0132,.0319 z m-.0451,.1722 l0,-.1509 z" />
    <path class="sym" id="x126" d="m.1115,.367 l.0239,0 l0,-.0792 c.0153,.0139 .0286,.0172 .0411,.0172 c.0358,0 .0636,-.0281 .0636,-.0683 c0,-.0402 -.0261,-.0658 -.0572,-.0658 c-.0183,0 -.0322,.0067 -.0489,.025 l-.0022,-.022 l-.0203,0 z m.0645,-.1763 c.0217,0 .0397,.0181 .0397,.0466 c0,.0268 -.0161,.048 -.0447,.048 c-.0089,0 -.0206,-.0028 -.0356,-.0165 l0,-.0558 c.0172,-.0176 .0286,-.0223 .0406,-.0223 z m.0952,.0923 l0,.02 l.0989,0 l0,-.02 l-.0414,0 l0,-.043 c.0308,-.037 .035,-.0395 .0581,-.0412 l.0264,-.0022 l-.0017,-.0236 l-.0272,.0017 c-.0195,.0014 -.0297,.0061 -.0567,.0444 l-.0014,-.045 l-.0494,0 l0,.02 l.0283,0 l0,.089 z m.243,-.147 c.0128,0 .0208,-.0064 .0208,-.0172 c0,-.0117 -.0069,-.018 -.0203,-.018 c-.013,0 -.0208,.0075 -.0208,.0175 c0,.0117 .0083,.0178 .0203,.0178 z m-.0545,.147 l0,.02 l.1158,0 l0,-.02 l-.0461,0 l0,-.109 l-.0642,0 l0,.02 l.0403,0 l0,.089 z m.186,-.109 l-.0203,0 l0,.129 l.0239,0 l0,-.0793 c.0245,-.0231 .0364,-.03 .0489,-.03 c.0156,0 .022,.0078 .022,.0236 l0,.0857 l.0239,0 l0,-.0899 c0,-.0253 -.0128,-.0411 -.0392,-.0411 c-.0181,0 -.0325,.0078 -.0567,.0308 z m.1852,.0799 c0,.0363 .01,.0475 .0439,.0491 l.0431,.0019 l.0017,-.0203 l-.0392,-.0022 c-.02,-.0011 -.0258,-.0078 -.0258,-.0319 l0,-.0566 l.0572,0 l0,-.02 l-.0575,0 l0,-.048 l-.023,0 l0,.048 l-.0439,0 l0,.02 l.0436,0 z m-.6858,.3972 c0,-.0193 -.0072,-.0296 -.0428,-.038 l-.0239,-.0056 c-.0208,-.0053 -.0245,-.0101 -.0245,-.0184 c0,-.009 .0078,-.0157 .0375,-.0157 c.0114,0 .0275,.002 .045,.0059 l.0033,-.0203 c-.0164,-.0031 -.0358,-.005 -.0481,-.005 c-.0447,0 -.0622,.0156 -.0622,.0371 c0,.0182 .0069,.0285 .0425,.0372 l.0242,.0056 c.0203,.005 .0247,.0101 .0247,.019 c0,.0106 -.0094,.0184 -.04,.0184 c-.0119,0 -.0311,-.002 -.0511,-.0061 l-.0036,.0203 c.0211,.0042 .038,.0056 .0544,.0056 c.0453,0 .0645,-.0175 .0645,-.0398 z m.1171,-.0769 c.0125,0 .0242,.0022 .0486,.018 l.0111,-.0174 c-.0267,-.0175 -.0433,-.0208 -.06,-.0208 c-.0403,0 -.0714,.0294 -.0714,.0675 c0,.0434 .0286,.0695 .0681,.0695 c.0194,0 .0367,-.0044 .0639,-.0203 l-.0103,-.0166 c-.0245,.0135 -.0386,.0166 -.0525,.0166 c-.0256,0 -.0445,-.0196 -.0445,-.0489 c0,-.0279 .0192,-.0475 .047,-.0475 z m.094,.0927 l0,.02 l.0989,0 l0,-.02 l-.0414,0 l0,-.043 c.0308,-.037 .035,-.0395 .0581,-.0412 l.0264,-.0022 l-.0017,-.0236 l-.0272,.0017 c-.0195,.0014 -.0297,.0061 -.0567,.0444 l-.0014,-.045 l-.0494,0 l0,.02 l.0283,0 l0,.089 z m.256,.0026 c-.0358,-.0011 -.0522,-.0128 -.0547,-.0386 l.1047,0 c.0006,-.0025 .0008,-.0058 .0008,-.01 c0,-.044 -.0245,-.067 -.062,-.067 c-.0389,0 -.0672,.0297 -.0672,.0706 c0,.04 .0214,.063 .0714,.0638 l.0328,.0005 l.0008,-.0186 z m-.0111,-.0967 c.0217,0 .0364,.0122 .0383,.0403 l-.0814,0 c.0036,-.026 .0214,-.0403 .043,-.0403 z m.1821,.0967 c-.0358,-.0011 -.0522,-.0128 -.0547,-.0386 l.1047,0 c.0006,-.0025 .0008,-.0058 .0008,-.01 c0,-.044 -.0245,-.067 -.062,-.067 c-.0389,0 -.0672,.0297 -.0672,.0706 c0,.04 .0214,.063 .0714,.0638 l.0328,.0005 l.0008,-.0186 z m-.0111,-.0967 c.0217,0 .0364,.0122 .0383,.0403 l-.0814,0 c.0036,-.026 .0214,-.0403 .043,-.0403 z m.1296,-.0149 l-.0203,0 l0,.129 l.0239,0 l0,-.0793 c.0245,-.0231 .0364,-.03 .0489,-.03 c.0156,0 .022,.0078 .022,.0236 l0,.0857 l.0239,0 l0,-.0899 c0,-.0253 -.0128,-.0411 -.0392,-.0411 c-.0181,0 -.0325,.0078 -.0567,.0308 z" />
    <path class="sym" id="x127" d="m.0337,.146 l0,.218 l.029,0 l0,-.087 l.1037,0 l0,-.024 l-.1037,0 l0,-.083 l.1147,0 l0,-.024 z m.2093,.218 l.1383,0 l0,-.024 l-.0533,0 l0,-.198 l-.008,0 l-.0773,.04 l0,.0297 l.0563,-.0293 l0,.1577 l-.056,0 z m.205,0 l.1383,0 l0,-.024 l-.0533,0 l0,-.198 l-.008,0 l-.0773,.04 l0,.0297 l.0563,-.0293 l0,.1577 l-.056,0 z" />
    <path class="sym" id="x128" d="m.145,.2672 c0,-.0193 -.0072,-.0296 -.0428,-.038 l-.0239,-.0056 c-.0208,-.0053 -.0245,-.0101 -.0245,-.0184 c0,-.009 .0078,-.0157 .0375,-.0157 c.0114,0 .0275,.002 .045,.0059 l.0033,-.0203 c-.0164,-.0031 -.0358,-.005 -.0481,-.005 c-.0447,0 -.0622,.0156 -.0622,.0371 c0,.0182 .0069,.0285 .0425,.0372 l.0242,.0056 c.0203,.005 .0247,.0101 .0247,.019 c0,.0106 -.0094,.0184 -.04,.0184 c-.0119,0 -.0311,-.002 -.0511,-.0061 l-.0036,.0203 c.0211,.0042 .038,.0056 .0544,.0056 c.0453,0 .0645,-.0175 .0645,-.0398 z m.1171,-.0769 c.0125,0 .0242,.0022 .0486,.018 l.0111,-.0174 c-.0267,-.0175 -.0433,-.0208 -.06,-.0208 c-.0403,0 -.0714,.0294 -.0714,.0675 c0,.0434 .0286,.0695 .0681,.0695 c.0194,0 .0367,-.0044 .0639,-.0203 l-.0103,-.0166 c-.0245,.0135 -.0386,.0166 -.0525,.0166 c-.0256,0 -.0445,-.0196 -.0445,-.0489 c0,-.0279 .0192,-.0475 .047,-.0475 z m.094,.0927 l0,.02 l.0989,0 l0,-.02 l-.0414,0 l0,-.043 c.0308,-.037 .035,-.0395 .0581,-.0412 l.0264,-.0022 l-.0017,-.0236 l-.0272,.0017 c-.0195,.0014 -.0297,.0061 -.0567,.0444 l-.0014,-.045 l-.0494,0 l0,.02 l.0283,0 l0,.089 z m.2416,.024 c.04,0 .0681,-.0277 .0681,-.0681 c0,-.0409 -.0278,-.0689 -.067,-.0689 c-.04,0 -.0681,.0286 -.0681,.0681 c0,.0415 .0278,.0689 .067,.0689 z m.0005,-.02 c-.0258,0 -.0433,-.0182 -.0433,-.0486 c0,-.0301 .0178,-.0486 .0433,-.0486 c.0258,0 .0433,.0196 .0433,.0489 c0,.031 -.0175,.0484 -.0433,.0484 z m.153,-.0297 c0,.0328 .0114,.0439 .045,.0458 l.0331,.0019 l.0014,-.0205 l-.0303,-.0019 c-.0183,-.0008 -.0256,-.0078 -.0256,-.0278 l0,-.1488 l-.0745,0 l0,.02 l.0508,0 z m.171,0 c0,.0328 .0114,.0439 .045,.0458 l.0331,.0019 l.0014,-.0205 l-.0303,-.0019 c-.0183,-.0008 -.0256,-.0078 -.0256,-.0278 l0,-.1488 l-.0745,0 l0,.02 l.0508,0 z m-.4988,.4657 c-.0058,0 -.0107,-.002 -.0148,-.0061 c-.004,-.0041 -.0061,-.009 -.0061,-.0148 l0,-.1511 c0,-.0058 .002,-.0107 .0061,-.0148 c.0041,-.0041 .009,-.0061 .0148,-.0061 l.0243,0 l0,-.0333 c0,-.0182 .0064,-.0338 .0193,-.0466 c.0129,-.0128 .0284,-.0192 .0467,-.0192 c.0183,0 .0338,.0064 .0467,.0192 c.0129,.0128 .0193,.0284 .0193,.0466 l0,.0333 l.0243,0 c.0058,0 .0107,.002 .0148,.0061 c.0041,.0041 .0061,.009 .0061,.0148 l0,.1511 c0,.0058 -.002,.0107 -.0061,.0148 c-.0041,.0041 -.009,.0061 -.0148,.0061 z m0,-.0209 l.1805,0 l0,-.1511 l-.1805,0 z m.0903,-.0488 c.0074,0 .0137,-.0026 .0189,-.0077 c.0052,-.0051 .0078,-.0113 .0078,-.0185 c0,-.007 -.0026,-.0133 -.0078,-.019 c-.0052,-.0057 -.0115,-.0085 -.0189,-.0085 c-.0074,0 -.0137,.0028 -.0189,.0085 c-.0052,.0057 -.0078,.0121 -.0078,.0193 c0,.007 .0026,.013 .0078,.0181 c.0052,.0051 .0115,.0077 .0189,.0077 z m-.0451,-.1232 l.0903,0 l0,-.0333 c0,-.0125 -.0044,-.0231 -.0132,-.0319 c-.0088,-.0088 -.0194,-.0132 -.0319,-.0132 c-.0125,0 -.0232,.0044 -.032,.0132 c-.0088,.0088 -.0132,.0194 -.0132,.0319 z m-.0451,.1722 l0,-.1509 z" />
    <path class="sym" id="x129" d="m.0494,.106 l-.0239,0 l0,.197 l.007,0 l.0119,-.0085 c.0128,.0072 .0261,.0105 .04,.0105 c.0417,0 .0697,-.0305 .0697,-.0685 c0,-.0399 -.0258,-.0655 -.0575,-.0655 c-.0175,0 -.0311,.0061 -.0472,.0228 z m.0406,.085 c.0217,0 .0397,.0177 .0397,.0463 c0,.0244 -.0167,.0477 -.0486,.0477 c-.01,0 -.0203,-.003 -.0317,-.0105 l0,-.0616 c.0172,-.0172 .0286,-.0219 .0406,-.0219 z m.0952,.092 l0,.02 l.0989,0 l0,-.02 l-.0414,0 l0,-.043 c.0308,-.037 .035,-.0395 .0581,-.0412 l.0264,-.0022 l-.0017,-.0236 l-.0272,.0017 c-.0195,.0014 -.0297,.0061 -.0567,.0444 l-.0014,-.045 l-.0494,0 l0,.02 l.0283,0 l0,.089 z m.256,.0026 c-.0358,-.0011 -.0522,-.0128 -.0547,-.0386 l.1047,0 c.0006,-.0025 .0008,-.0058 .0008,-.01 c0,-.044 -.0245,-.067 -.062,-.067 c-.0389,0 -.0672,.0297 -.0672,.0706 c0,.04 .0214,.063 .0714,.0638 l.0328,.0005 l.0008,-.0186 z m-.0111,-.0967 c.0217,0 .0364,.0122 .0383,.0403 l-.0814,0 c.0036,-.026 .0214,-.0403 .043,-.0403 z m.2188,.0816 l0,-.0564 c0,-.0293 -.0133,-.0421 -.0564,-.0421 c-.0119,0 -.0297,.0017 -.0492,.005 l.0025,.0191 c.0183,-.003 .0356,-.0047 .0458,-.0047 c.0275,0 .0339,.0058 .0339,.0221 l0,.0097 l-.0481,.0055 c-.0344,.0039 -.0458,.0149 -.0458,.0395 c0,.0237 .0161,.0367 .0392,.0367 c.02,0 .0367,-.0069 .0531,-.0203 l.0025,0 c.0036,.0126 .0128,.0179 .0317,.0187 l.013,.0005 l.0017,-.0183 l-.0125,-.0008 c-.0094,-.0008 -.0114,-.0036 -.0114,-.0144 z m-.0728,.0159 c-.0144,0 -.0208,-.0072 -.0208,-.0196 c0,-.0114 .0042,-.0191 .0264,-.0222 l.0439,-.0058 l0,.0263 c-.0225,.0166 -.0353,.0213 -.0495,.0213 z m.1624,-.1804 l-.0236,0 l0,.197 l.0236,0 l0,-.0635 l.0675,.0635 l.032,0 l0,-.0005 l-.0736,-.0674 l.0733,-.0605 l0,-.0006 l-.0306,0 l-.0686,.0577 z" />
    <path class="sym" id="x130" d="m.0337,.146 l0,.218 l.029,0 l0,-.087 l.1037,0 l0,-.024 l-.1037,0 l0,-.083 l.1147,0 l0,-.024 z m.2093,.218 l.1383,0 l0,-.024 l-.0533,0 l0,-.198 l-.008,0 l-.0773,.04 l0,.0297 l.0563,-.0293 l0,.1577 l-.056,0 z m.1953,0 l.1533,0 l0,-.024 l-.1153,0 l0,-.001 l.054,-.0546 c.046,-.0466 .055,-.0602 .055,-.0845 c0,-.0359 -.0273,-.0589 -.0657,-.0589 c-.029,0 -.0507,.01 -.086,.044 l.016,.0196 c.032,-.0303 .047,-.0389 .0687,-.0389 c.0243,0 .0373,.0143 .0373,.0353 c0,.0176 -.0063,.0283 -.047,.0702 l-.0703,.0729 z" />
    <path class="sym" id="x131" d="m.0277,.2775 l.2435,0 l0,.0325 l-.2435,0 z m0,-.105 l.2435,0 l0,.0325 l-.2435,0 z m0,-.1054 l.2435,0 l0,.0325 l-.2435,0 z" />
  </defs>
  <style>
use .base { fill: inherit; }

.sym { fill: #000000; }
.key { fill: #eeeeee; }
.held { fill: #999999; }
.shade { fill: black; fill-opacity: 0.1; }
.arrow { fill: none; stroke: black; stroke-width:.02; }
.arrow.head { fill: black; }

@media (prefers-color-scheme: dark){
    .sym { fill: #cccccc; }
    .key { fill: #222222; }
    .held { fill: #444444; }
    .shade { fill: black; fill-opacity: 0.5; }
    .arrow { stroke: #cccccc; }
    .arrow.head { fill: #cccccc; }
}
</style>
  <g transform="translate(0.0 0.0)">
    <use class="key" href="#1u" x="-5.8" y="0" />
    <use class="key" href="#1u" x="-4.8" y="0" />
    <use class="key" href="#1u" x="-3.8" y="0" />
    <use class="key" href="#1u" x="-2.8" y="0" />
    <use class="key" href="#1u" x="-1.8" y="0" />
    <use class="key" href="#1u" x="1.8" y="0" />
    <use class="key" href="#1u" x="2.8" y="0" />
    <use class="key" href="#1u" x="3.8" y="0" />
    <use class="key" href="#1u" x="4.8" y="0" />
    <use class="key" href="#1u" x="5.8" y="0" />
    <use class="key" href="#1u" x="-5.8" y="1" />
    <use class="key" href="#1u" x="-4.8" y="1" />
    <use class="key" href="#1u" x="-3.8" y="1" />
    <use class="key" href="#1u_" x="-2.8" y="1" />
    <use class="key" href="#1u" x="-1.8" y="1" />
    <use class="key" href="#1u" x="-0.7" y="0.5" />
    <use class="key" href="#1u" x="0.7" y="0.5" />
    <use class="key" href="#1u" x="1.8" y="1" />
    <use class="key" href="#1u_" x="2.8" y="1" />
    <use class="key" href="#1u" x="3.8" y="1" />
    <use class="key" href="#1u" x="4.8" y="1" />
    <use class="key" href="#1u" x="5.8" y="1" />
    <use class="key" href="#1u" x="-5.8" y="2" />
    <use class="key" href="#1u" x="-4.8" y="2" />
    <use class="key" href="#1u" x="-3.8" y="2" />
    <use class="key" href="#1u" x="-2.8" y="2" />
    <use class="key" href="#1u" x="-1.8" y="2" />
    <use class="key" href="#1u" x="-0.7" y="1.5" />
    <use class="key" href="#1u" x="0.7" y="1.5" />
    <use class="key" href="#1u" x="1.8" y="2" />
    <use class="key" href="#1u" x="2.8" y="2" />
    <use class="key" href="#1u" x="3.8" y="2" />
    <use class="key" href="#1u" x="4.8" y="2" />
    <use class="key" href="#1u" x="5.8" y="2" />
    <use class="key" href="#1u" x="-3.3" y="3.1" />
    <use class="key" href="#1u_" x="-2.3" y="3.1" />
    <use class="key" href="#1u" x="-1.3" y="3.1" />
    <use class="key" href="#1u" x="1.3" y="3.1" />
    <use class="key" href="#1u_" x="2.3" y="3.1" />
    <use class="key" href="#1u" x="3.3" y="3.1" />
    <use href="#x0" transform="translate(-5.4025 0.2695)" />
    <use href="#x1" transform="translate(-4.4025 0.2695)" />
    <use href="#x2" transform="translate(-3.4025 0.2695)" />
    <use href="#x3" transform="translate(-2.4025 0.2695)" />
    <use href="#x4" transform="translate(-1.4025 0.2695)" />
    <use href="#x5" transform="translate(2.1975 0.2695)" />
    <use href="#x6" transform="translate(3.1975 0.2695)" />
    <use href="#x7" transform="translate(4.1975 0.2695)" />
    <use href="#x8" transform="translate(5.1975 0.2695)" />
    <use href="#x9" transform="translate(6.21106 0.1) scale(0.867679)" />
    <use href="#x10" transform="translate(6.21106 0.5) scale(0.867679)" />
    <use href="#x11" transform="translate(-5.4025 1.2695)" />
    <use href="#x12" transform="translate(-5.1778 1.60709) scale(0.944882)" />
    <use href="#x13" transform="translate(-4.4025 1.2695)" />
    <use href="#x14" transform="translate(-4.15796 1.62623) scale(0.718563)" />
    <use href="#x15" transform="translate(-3.4025 1.2695)" />
    <use href="#x16" transform="translate(-3.187 1.6505)" />
    <use href="#x17" transform="translate(-2.4025 1.2695)" />
    <use href="#x18" transform="translate(-2.15286 1.60476) scale(0.952381)" />
    <use href="#x19" transform="translate(-1.4025 1.2695)" />
    <use href="#x20" transform="translate(-0.6 0.850292) scale(0.779727)" />
    <use href="#x21" transform="translate(1.0975 0.7695)" />
    <use href="#x22" transform="translate(2.1975 1.2695)" />
    <use href="#x23" transform="translate(3.1975 1.2695)" />
    <use href="#x18" transform="translate(3.44714 1.60476) scale(0.952381)" />
    <use href="#x24" transform="translate(4.1975 1.2695)" />
    <use href="#x16" transform="translate(4.413 1.6505)" />
    <use href="#x25" transform="translate(5.1975 1.2695)" />
    <use href="#x14" transform="translate(5.44204 1.62623) scale(0.718563)" />
    <use href="#x26" transform="translate(6.1975 1.2695)" />
    <use href="#x12" transform="translate(6.4222 1.60709) scale(0.944882)" />
    <use href="#x27" transform="translate(-5.4025 2.2695)" />
    <use href="#x28" transform="translate(-4.4025 2.2695)" />
    <use href="#x29" transform="translate(-3.4025 2.2695)" />
    <use href="#x30" transform="translate(-2.4025 2.2695)" />
    <use href="#x31" transform="translate(-1.4025 2.2695)" />
    <use href="#x32" transform="translate(-0.4 1.76)" />
    <use href="#x33" transform="translate(1.0975 1.7695)" />
    <use href="#x34" transform="translate(2.1975 2.2695)" />
    <use href="#x35" transform="translate(3.1975 2.2695)" />
    <use href="#x36" transform="translate(4.21106 2.1) scale(0.867679)" />
    <use href="#x37" transform="translate(4.21106 2.5) scale(0.867679)" />
    <use href="#x38" transform="translate(5.21106 2.1) scale(0.867679)" />
    <use href="#x39" transform="translate(5.21106 2.5) scale(0.867679)" />
    <use href="#x40" transform="translate(6.21106 2.1) scale(0.867679)" />
    <use href="#x41" transform="translate(6.21106 2.5) scale(0.867679)" />
    <use href="#x42" transform="translate(-3.0565 3.408)" />
    <use href="#x43" transform="translate(-1.9105 3.351)" />
    <use href="#x44" transform="translate(-0.9395 3.4055)" />
    <use href="#x45" transform="translate(1.6 3.36)" />
    <use href="#x46" transform="translate(2.6035 3.438)" />
    <use href="#x47" transform="translate(3.6035 3.438)" />
  </g>
  <g transform="translate(13.6 0.0)">
    <use class="key" href="#1u" x="-5.8" y="0" />
    <use class="key" href="#1u" x="-4.8" y="0" />
    <use class="key" href="#1u" x="-3.8" y="0" />
    <use class="key" href="#1u" x="-2.8" y="0" />
    <use class="key" href="#1u" x="-1.8" y="0" />
    <use class="key" href="#1u" x="1.8" y="0" />
    <use class="key" href="#1u" x="2.8" y="0" />
    <use class="key" href="#1u" x="3.8" y="0" />
    <use class="key" href="#1u" x="4.8" y="0" />
    <use class="key" href="#1u" x="5.8" y="0" />
    <use class="key" href="#1u" x="-5.8" y="1" />
    <use class="key" href="#1u" x="-4.8" y="1" />
    <use class="key" href="#1u" x="-3.8" y="1" />
    <use class="key" href="#1u_" x="-2.8" y="1" />
    <use class="key" href="#1u" x="-1.8" y="1" />
    <use class="key" href="#1u" x="-0.7" y="0.5" />
    <use class="key" href="#1u" x="0.7" y="0.5" />
    <use class="key" href="#1u" x="1.8" y="1" />
    <use class="key" href="#1u_" x="2.8" y="1" />
    <use class="key" href="#1u" x="3.8" y="1" />
    <use class="key" href="#1u" x="4.8" y="1" />
    <use class="key" href="#1u" x="5.8" y="1" />
    <use class="key" href="#1u" x="-5.8" y="2" />
    <use class="key" href="#1u" x="-4.8" y="2" />
    <use class="key" href="#1u" x="-3.8" y="2" />
    <use class="key" href="#1u" x="-2.8" y="2" />
    <use class="key" href="#1u" x="-1.8" y="2" />
    <use class="key" href="#1u" x="-0.7" y="1.5" />
    <use class="key" href="#1u" x="0.7" y="1.5" />
    <use class="key" href="#1u" x="1.8" y="2" />
    <use class="key" href="#1u" x="2.8" y="2" />
    <use class="key" href="#1u" x="3.8" y="2" />
    <use class="key" href="#1u" x="4.8" y="2" />
    <use class="key" href="#1u" x="5.8" y="2" />
    <use class="key" href="#1u" x="-3.3" y="3.1" />
    <use class="key" href="#1u_" x="-2.3" y="3.1" />
    <use class="key" href="#1u" x="-1.3" y="3.1" />
    <use class="key" href="#1u" x="1.3" y="3.1" />
    <use class="held" href="#1u_" x="2.3" y="3.1" />
    <use class="key" href="#1u" x="3.3" y="3.1" />
    <use href="#x48" transform="translate(-5.4025 0.2695)" />
    <use href="#x49" transform="translate(-4.4025 0.2695)" />
    <use href="#x50" transform="translate(-3.4025 0.2695)" />
    <use href="#x51" transform="translate(-2.4025 0.2695)" />
    <use href="#x52" transform="translate(-1.4025 0.2695)" />
    <use href="#x53" transform="translate(6.1975 0.2695)" />
    <use href="#x54" transform="translate(-5.4025 1.2695)" />
    <use href="#x55" transform="translate(-4.4025 1.2695)" />
    <use href="#x56" transform="translate(-3.4025 1.2695)" />
    <use href="#x57" transform="translate(-2.4025 1.2695)" />
    <use href="#x58" transform="translate(-1.4025 1.2695)" />
    <use href="#x18" transform="translate(3.1605 1.316)" />
    <use href="#x16" transform="translate(4.133 1.3705)" />
    <use href="#x14" transform="translate(5.108 1.286)" />
    <use href="#x12" transform="translate(6.133 1.317)" />
    <use href="#x59" transform="translate(-5.4025 2.2695)" />
    <use href="#x60" transform="translate(-3.4025 2.2695)" />
    <use href="#x61" transform="translate(-2.4025 2.2695)" />
    <use href="#x62" transform="translate(-1.4025 2.2695)" />
    <use href="#x63" transform="translate(4.1975 2.2695)" />
    <use href="#x64" transform="translate(5.1975 2.2695)" />
    <use href="#x65" transform="translate(6.1975 2.2695)" />
    <use href="#x66" transform="translate(-2.9025 3.3695)" />
    <use href="#x67" transform="translate(-1.9025 3.3695)" />
    <use href="#x33" transform="translate(-0.9025 3.3695)" />
  </g>
  <g transform="translate(0.0 5.1)">
    <use class="key" href="#1u" x="-5.8" y="0" />
    <use class="key" href="#1u" x="-4.8" y="0" />
    <use class="key" href="#1u" x="-3.8" y="0" />
    <use class="key" href="#1u" x="-2.8" y="0" />
    <use class="key" href="#1u" x="-1.8" y="0" />
    <use class="key" href="#1u" x="1.8" y="0" />
    <use class="key" href="#1u" x="2.8" y="0" />
    <use class="key" href="#1u" x="3.8" y="0" />
    <use class="key" href="#1u" x="4.8" y="0" />
    <use class="key" href="#1u" x="5.8" y="0" />
    <use class="key" href="#1u" x="-5.8" y="1" />
    <use class="key" href="#1u" x="-4.8" y="1" />
    <use class="key" href="#1u" x="-3.8" y="1" />
    <use class="key" href="#1u_" x="-2.8" y="1" />
    <use class="key" href="#1u" x="-1.8" y="1" />
    <use class="key" href="#1u" x="-0.7" y="0.5" />
    <use class="key" href="#1u" x="0.7" y="0.5" />
    <use class="key" href="#1u" x="1.8" y="1" />
    <use class="key" href="#1u_" x="2.8" y="1" />
    <use class="key" href="#1u" x="3.8" y="1" />
    <use class="key" href="#1u" x="4.8" y="1" />
    <use class="key" href="#1u" x="5.8" y="1" />
    <use class="key" href="#1u" x="-5.8" y="2" />
    <use class="key" href="#1u" x="-4.8" y="2" />
    <use class="key" href="#1u" x="-3.8" y="2" />
    <use class="key" href="#1u" x="-2.8" y="2" />
    <use class="key" href="#1u" x="-1.8" y="2" />
    <use class="key" href="#1u" x="-0.7" y="1.5" />
    <use class="key" href="#1u" x="0.7" y="1.5" />
    <use class="key" href="#1u" x="1.8" y="2" />
    <use class="key" href="#1u" x="2.8" y="2" />
    <use class="key" href="#1u" x="3.8" y="2" />
    <use class="key" href="#1u" x="4.8" y="2" />
    <use class="key" href="#1u" x="5.8" y="2" />
    <use class="key" href="#1u" x="-3.3" y="3.1" />
    <use class="held" href="#1u_" x="-2.3" y="3.1" />
    <use class="key" href="#1u" x="-1.3" y="3.1" />
    <use class="key" href="#1u" x="1.3" y="3.1" />
    <use class="key" href="#1u_" x="2.3" y="3.1" />
    <use class="key" href="#1u" x="3.3" y="3.1" />
    <use href="#x68" transform="translate(-5.6165 0.247)" />
    <use href="#x69" transform="translate(-4.4395 0.3055)" />
    <use href="#x70" transform="translate(-3.4395 0.3055)" />
    <use href="#x71" transform="translate(-2.4395 0.3055)" />
    <use href="#x72" transform="translate(-1.5 0.26)" />
    <use href="#x9" transform="translate(6.1975 0.2695)" />
    <use href="#x73" transform="translate(-5.6165 1.247)" />
    <use href="#x74" transform="translate(-4.4395 1.3055)" />
    <use href="#x75" transform="translate(-3.4395 1.3055)" />
    <use href="#x76" transform="translate(-2.4395 1.3055)" />
    <use href="#x77" transform="translate(-1.5 1.26)" />
    <use href="#x78" transform="translate(-0.4 0.76)" />
    <use href="#x79" transform="translate(1 0.76)" />
    <use href="#x18" transform="translate(3.1605 1.316)" />
    <use href="#x16" transform="translate(4.133 1.3705)" />
    <use href="#x14" transform="translate(5.108 1.286)" />
    <use href="#x12" transform="translate(6.133 1.317)" />
    <use href="#x45" transform="translate(-5.5 2.26)" />
    <use href="#x80" transform="translate(-4.4395 2.3055)" />
    <use href="#x81" transform="translate(-2.4395 2.3055)" />
    <use href="#x82" transform="translate(-1.5 2.26)" />
    <use href="#x46" transform="translate(-0.3965 1.838)" />
    <use href="#x36" transform="translate(4.1975 2.2695)" />
    <use href="#x38" transform="translate(5.1975 2.2695)" />
    <use href="#x40" transform="translate(6.1975 2.2695)" />
    <use href="#x83" transform="translate(1.6 3.36)" />
    <use href="#x78" transform="translate(2.6 3.36)" />
  </g>
  <g transform="translate(13.6 5.1)">
    <use class="key" href="#1u" x="-5.8" y="0" />
    <use class="key" href="#1u" x="-4.8" y="0" />
    <use class="key" href="#1u" x="-3.8" y="0" />
    <use class="key" href="#1u" x="-2.8" y="0" />
    <use class="key" href="#1u" x="-1.8" y="0" />
    <use class="key" href="#1u" x="1.8" y="0" />
    <use class="key" href="#1u" x="2.8" y="0" />
    <use class="key" href="#1u" x="3.8" y="0" />
    <use class="key" href="#1u" x="4.8" y="0" />
    <use class="key" href="#1u" x="5.8" y="0" />
    <use class="key" href="#1u" x="-5.8" y="1" />
    <use class="key" href="#1u" x="-4.8" y="1" />
    <use class="key" href="#1u" x="-3.8" y="1" />
    <use class="key" href="#1u_" x="-2.8" y="1" />
    <use class="key" href="#1u" x="-1.8" y="1" />
    <use class="key" href="#1u" x="-0.7" y="0.5" />
    <use class="key" href="#1u" x="0.7" y="0.5" />
    <use class="key" href="#1u" x="1.8" y="1" />
    <use class="key" href="#1u_" x="2.8" y="1" />
    <use class="key" href="#1u" x="3.8" y="1" />
    <use class="key" href="#1u" x="4.8" y="1" />
    <use class="key" href="#1u" x="5.8" y="1" />
    <use class="key" href="#1u" x="-5.8" y="2" />
    <use class="key" href="#1u" x="-4.8" y="2" />
    <use class="key" href="#1u" x="-3.8" y="2" />
    <use class="key" href="#1u" x="-2.8" y="2" />
    <use class="key" href="#1u" x="-1.8" y="2" />
    <use class="key" href="#1u" x="-0.7" y="1.5" />
    <use class="key" href="#1u" x="0.7" y="1.5" />
    <use class="key" href="#1u" x="1.8" y="2" />
    <use class="key" href="#1u" x="2.8" y="2" />
    <use class="key" href="#1u" x="3.8" y="2" />
    <use class="key" href="#1u" x="4.8" y="2" />
    <use class="key" href="#1u" x="5.8" y="2" />
    <use class="key" href="#1u" x="-3.3" y="3.1" />
    <use class="key" href="#1u_" x="-2.3" y="3.1" />
    <use class="key" href="#1u" x="-1.3" y="3.1" />
    <use class="held" href="#1u" x="1.3" y="3.1" />
    <use class="key" href="#1u_" x="2.3" y="3.1" />
    <use class="key" href="#1u" x="3.3" y="3.1" />
    <use href="#x84" transform="translate(-5.4025 0.2695)" />
    <use href="#x85" transform="translate(-4.4025 0.2695)" />
    <use href="#x86" transform="translate(-3.4025 0.2695)" />
    <use href="#x87" transform="translate(-2.4025 0.2695)" />
    <use href="#x88" transform="translate(-1.4025 0.2695)" />
    <use href="#x89" transform="translate(2.1975 0.2695)" />
    <use href="#x90" transform="translate(3.1975 0.2695)" />
    <use href="#x91" transform="translate(4.1975 0.2695)" />
    <use href="#x92" transform="translate(5.1975 0.2695)" />
    <use href="#x93" transform="translate(6.1975 0.2695)" />
    <use href="#x12" transform="translate(-5.467 1.317)" />
    <use href="#x14" transform="translate(-4.492 1.286)" />
    <use href="#x16" transform="translate(-3.467 1.3705)" />
    <use href="#x18" transform="translate(-2.4395 1.316)" />
    <use href="#x66" transform="translate(1.0975 0.7695)" />
    <use href="#x21" transform="translate(2.1975 1.2695)" />
    <use href="#x87" transform="translate(3.1975 1.2695)" />
    <use href="#x88" transform="translate(4.1975 1.2695)" />
    <use href="#x89" transform="translate(5.1975 1.2695)" />
    <use href="#x39" transform="translate(6.1975 1.2695)" />
    <use href="#x59" transform="translate(-5.4025 2.2695)" />
    <use href="#x60" transform="translate(-3.4025 2.2695)" />
    <use href="#x94" transform="translate(-2.4025 2.2695)" />
    <use href="#x95" transform="translate(-1.4025 2.2695)" />
    <use href="#x59" transform="translate(1.0975 1.7695)" />
    <use href="#x93" transform="translate(2.1975 2.2695)" />
    <use href="#x84" transform="translate(3.1975 2.2695)" />
    <use href="#x85" transform="translate(4.1975 2.2695)" />
    <use href="#x86" transform="translate(5.1975 2.2695)" />
    <use href="#x41" transform="translate(6.1975 2.2695)" />
    <use href="#x66" transform="translate(-2.9025 3.3695)" />
    <use href="#x21" transform="translate(-1.9025 3.3695)" />
    <use href="#x33" transform="translate(-0.9025 3.3695)" />
    <use href="#x96" transform="translate(3.5435 3.2075)" />
  </g>
  <g transform="translate(0.0 10.2)">
    <use class="key" href="#1u" x="-5.8" y="0" />
    <use class="key" href="#1u" x="-4.8" y="0" />
    <use class="key" href="#1u" x="-3.8" y="0" />
    <use class="key" href="#1u" x="-2.8" y="0" />
    <use class="key" href="#1u" x="-1.8" y="0" />
    <use class="key" href="#1u" x="1.8" y="0" />
    <use class="key" href="#1u" x="2.8" y="0" />
    <use class="key" href="#1u" x="3.8" y="0" />
    <use class="key" href="#1u" x="4.8" y="0" />
    <use class="key" href="#1u" x="5.8" y="0" />
    <use class="key" href="#1u" x="-5.8" y="1" />
    <use class="key" href="#1u" x="-4.8" y="1" />
    <use class="key" href="#1u" x="-3.8" y="1" />
    <use class="key" href="#1u_" x="-2.8" y="1" />
    <use class="key" href="#1u" x="-1.8" y="1" />
    <use class="key" href="#1u" x="-0.7" y="0.5" />
    <use class="key" href="#1u" x="0.7" y="0.5" />
    <use class="key" href="#1u" x="1.8" y="1" />
    <use class="key" href="#1u_" x="2.8" y="1" />
    <use class="key" href="#1u" x="3.8" y="1" />
    <use class="key" href="#1u" x="4.8" y="1" />
    <use class="key" href="#1u" x="5.8" y="1" />
    <use class="key" href="#1u" x="-5.8" y="2" />
    <use class="key" href="#1u" x="-4.8" y="2" />
    <use class="key" href="#1u" x="-3.8" y="2" />
    <use class="key" href="#1u" x="-2.8" y="2" />
    <use class="key" href="#1u" x="-1.8" y="2" />
    <use class="key" href="#1u" x="-0.7" y="1.5" />
    <use class="key" href="#1u" x="0.7" y="1.5" />
    <use class="key" href="#1u" x="1.8" y="2" />
    <use class="key" href="#1u" x="2.8" y="2" />
    <use class="key" href="#1u" x="3.8" y="2" />
    <use class="key" href="#1u" x="4.8" y="2" />
    <use class="key" href="#1u" x="5.8" y="2" />
    <use class="key" href="#1u" x="-3.3" y="3.1" />
    <use class="key" href="#1u_" x="-2.3" y="3.1" />
    <use class="held" href="#1u" x="-1.3" y="3.1" />
    <use class="key" href="#1u" x="1.3" y="3.1" />
    <use class="key" href="#1u_" x="2.3" y="3.1" />
    <use class="key" href="#1u" x="3.3" y="3.1" />
    <use href="#x97" transform="translate(-5.5 0.26)" />
    <use href="#x98" transform="translate(-4.5 0.26)" />
    <use href="#x99" transform="translate(-3.5 0.26)" />
    <use href="#x100" transform="translate(-2.5 0.26)" />
    <use href="#x101" transform="translate(-1.5 0.26)" />
    <use href="#x102" transform="translate(-5.5 1.26)" />
    <use href="#x103" transform="translate(-4.5 1.26)" />
    <use href="#x104" transform="translate(-3.5 1.26)" />
    <use href="#x105" transform="translate(-2.5 1.26)" />
    <use href="#x106" transform="translate(-1.5 1.26)" />
    <use href="#x107" transform="translate(-0.5075 0.7695)" />
    <use href="#x108" transform="translate(0.8925 0.7695)" />
    <use href="#x18" transform="translate(3.1605 1.316)" />
    <use href="#x16" transform="translate(4.133 1.3705)" />
    <use href="#x14" transform="translate(5.108 1.286)" />
    <use href="#x12" transform="translate(6.133 1.317)" />
    <use href="#x109" transform="translate(-4.5 2.26)" />
    <use href="#x110" transform="translate(-3.5 2.26)" />
    <use href="#x111" transform="translate(-2.5 2.26)" />
    <use href="#x112" transform="translate(-1.5 2.26)" />
    <use href="#x113" transform="translate(-0.5075 1.7695)" />
    <use href="#x114" transform="translate(0.8925 1.7695)" />
  </g>
  <g transform="translate(13.6 10.2)">
    <use class="key" href="#1u" x="-5.8" y="0" />
    <use class="key" href="#1u" x="-4.8" y="0" />
    <use class="key" href="#1u" x="-3.8" y="0" />
    <use class="key" href="#1u" x="-2.8" y="0" />
    <use class="key" href="#1u" x="-1.8" y="0" />
    <use class="key" href="#1u" x="1.8" y="0" />
    <use class="key" href="#1u" x="2.8" y="0" />
    <use class="key" href="#1u" x="3.8" y="0" />
    <use class="key" href="#1u" x="4.8" y="0" />
    <use class="key" href="#1u" x="5.8" y="0" />
    <use class="key" href="#1u" x="-5.8" y="1" />
    <use class="key" href="#1u" x="-4.8" y="1" />
    <use class="key" href="#1u" x="-3.8" y="1" />
    <use class="key" href="#1u_" x="-2.8" y="1" />
    <use class="key" href="#1u" x="-1.8" y="1" />
    <use class="key" href="#1u" x="-0.7" y="0.5" />
    <use class="key" href="#1u" x="0.7" y="0.5" />
    <use class="key" href="#1u" x="1.8" y="1" />
    <use class="key" href="#1u_" x="2.8" y="1" />
    <use class="key" href="#1u" x="3.8" y="1" />
    <use class="key" href="#1u" x="4.8" y="1" />
    <use class="key" href="#1u" x="5.8" y="1" />
    <use class="key" href="#1u" x="-5.8" y="2" />
    <use class="key" href="#1u" x="-4.8" y="2" />
    <use class="key" href="#1u" x="-3.8" y="2" />
    <use class="key" href="#1u" x="-2.8" y="2" />
    <use class="key" href="#1u" x="-1.8" y="2" />
    <use class="key" href="#1u" x="-0.7" y="1.5" />
    <use class="key" href="#1u" x="0.7" y="1.5" />
    <use class="key" href="#1u" x="1.8" y="2" />
    <use class="key" href="#1u" x="2.8" y="2" />
    <use class="key" href="#1u" x="3.8" y="2" />
    <use class="key" href="#1u" x="4.8" y="2" />
    <use class="key" href="#1u" x="5.8" y="2" />
    <use class="key" href="#1u" x="-3.3" y="3.1" />
    <use class="key" href="#1u_" x="-2.3" y="3.1" />
    <use class="key" href="#1u" x="-1.3" y="3.1" />
    <use class="key" href="#1u" x="1.3" y="3.1" />
    <use class="key" href="#1u_" x="2.3" y="3.1" />
    <use class="held" href="#1u" x="3.3" y="3.1" />
    <use href="#x115" transform="translate(-5.505 0.2695)" />
    <use href="#x116" transform="translate(-4.505 0.2695)" />
    <use href="#x117" transform="translate(-3.505 0.2695)" />
    <use href="#x118" transform="translate(-2.505 0.2695)" />
    <use href="#x119" transform="translate(-1.505 0.2695)" />
    <use href="#x120" transform="translate(2.095 0.2695)" />
    <use href="#x121" transform="translate(3.095 0.2695)" />
    <use href="#x122" transform="translate(4.095 0.2695)" />
    <use href="#x123" transform="translate(5.095 0.2695)" />
    <use href="#x124" transform="translate(5.9925 0.2695)" />
    <use href="#x12" transform="translate(-5.467 1.317)" />
    <use href="#x14" transform="translate(-4.492 1.286)" />
    <use href="#x16" transform="translate(-3.467 1.3705)" />
    <use href="#x18" transform="translate(-2.4395 1.316)" />
    <use href="#x125" transform="translate(-1.642 1.1075)" />
    <use href="#x126" transform="translate(1.9 1.20058) scale(0.779727)" />
    <use href="#x118" transform="translate(3.095 1.2695)" />
    <use href="#x119" transform="translate(4.095 1.2695)" />
    <use href="#x120" transform="translate(5.095 1.2695)" />
    <use href="#x127" transform="translate(5.9925 1.2695)" />
    <use href="#x126" transform="translate(-4.7 2.20058) scale(0.779727)" />
    <use href="#x128" transform="translate(-3.7 2.19396) scale(0.779727)" />
    <use href="#x129" transform="translate(-2.7 2.32035) scale(0.935673)" />
    <use href="#x20" transform="translate(-1.7 2.35029) scale(0.779727)" />
    <use href="#x115" transform="translate(3.095 2.2695)" />
    <use href="#x116" transform="translate(4.095 2.2695)" />
    <use href="#x117" transform="translate(5.095 2.2695)" />
    <use href="#x130" transform="translate(5.9925 2.2695)" />
    <use href="#x16" transform="translate(-2.967 3.4705)" />
    <use href="#x131" transform="translate(-1.9495 3.4115)" />
  </g>
</svg>