<svg width="1280px" height="720.0px" viewBox="-6.3 -0.5 27.2 15.299999999999999" xmlns="http://www.w3.org/2000/svg">
  <defs>
    <symbol id="1u">
      <path class="base" d="m.0234,.125 c0,-.0546 .0468,-.1015 .1015,-.1015 l.75,0 c.0546,0 .1015,.0468 .1015,.1015 l0,.75 c0,.0546 -.0468,.1015 -.1015,.1015 l-.75,0 c-.0546,0 -.1015,-.0468 -.1015,-.1015625" />
      <path class="shade" d="m.0234,.125 c0,-.0546 .0468,-.1015 .1015,-.1015 l.75,0 c.0546,0 .1015,.0468 .1015,.1015 l0,.75 c0,.0546 -.0468,.1015 -.1015,.1015 l-.75,0 c-.0546,0 -.1015,-.0468 -.1015,-.1015 m.0781,-.0742 c0,.0546 .0429,.0976 .0976,.0976 l.6015,0 c.0546,0 .0976,-.0429 .0976,-.0976 l0,-.6015 c0,-.0546 -.0429,-.0976 -.0976,-.0976 l-.6015,0 c-.0546,0 -.0976,.0429 -.0976,.09765625" />
    </symbol>
    <symbol id="1u_">
      <path class="base" d="m.0234,.125 c0,-.0546 .0468,-.1015 .1015,-.1015 l.75,0 c.0546,0 .1015,.0468 .1015,.1015 l0,.75 c0,.0546 -.0468,.1015 -.1015,.1015 l-.75,0 c-.0546,0 -.1015,-.0468 -.1015,-.1015625" />
      <path class="shade" d="m.0234,.125 c0,-.0546 .0468,-.1015 .1015,-.1015 l.75,0 c.0546,0 .1015,.0468 .1015,.1015 l0,.75 c0,.0546 -.0468,.1015 -.1015,.1015 l-.75,0 c-.0546,0 -.1015,-.0468 -.1015,-.1015 m.0781,-.375 c0,.2226 .1757,.3984 .3984,.3984 c.2226,0 .3984,-.1757 .3984,-.3984 c0,-.2226 -.1757,-.3984 -.3984,-.3984 c-.2226,0 -.3984,.1757 -.3984,.3984375" />
    </symbol>
    <path class="sym" id="x0" d="m.0196,.2886 c0,.048 .031,.0786 .069,.0786 c.021,0 .0373,-.0073 .0566,-.0273 l0,.1006 l.0286,0 l0,-.2323 l-.0083,0 l-.0143,.0106 c-.0153,-.009 -.0313,-.0126 -.048,-.0126 c-.05,0 -.0836,.0366 -.0836,.0823 z m.0293,-.001 c0,-.0296 .02,-.0576 .0583,-.0576 c.012,0 .0243,.0036 .038,.0126 l0,.0743 c-.0206,.0206 -.0343,.0263 -.0486,.0263 c-.026,0 -.0476,-.0213 -.0476,-.0556 z" />
    <path class="sym" id="x1" d="m.1576,.364 l.0326,-.1549 l-.027,0 l-.0233,.124 l-.0346,-.1026 l-.0056,0 l-.0346,.103 l-.0233,-.1243 l-.027,0 l.0316,.1549 l.0283,0 l.0273,-.0819 l.027,.0819 z" />
    <path class="sym" id="x2" d="m.0249,.2346 l.0523,0 l0,.1293 l.0283,0 l0,-.1293 l.0646,0 l0,-.024 l-.065,0 l0,-.0223 c0,-.0246 .008,-.035 .0366,-.0366 l.0416,-.003 l-.002,-.0243 l-.0426,.0026 c-.0456,.003 -.0616,.0196 -.0616,.0623 l0,.0213 l-.0523,0 z" />
    <path class="sym" id="x3" d="m.0306,.4406 l.0286,0 l0,-.095 c.0183,.0166 .0343,.0206 .0493,.0206 c.043,0 .0763,-.0336 .0763,-.0816 c0,-.048 -.0313,-.0786 -.0686,-.0786 c-.022,0 -.0386,.008 -.0586,.03 l-.0026,-.027 l-.0243,0 z m.0773,-.211 c.026,0 .0476,.0216 .0476,.0556 c0,.032 -.0193,.0573 -.0536,.0573 c-.0106,0 -.0246,-.0033 -.0426,-.0196 l0,-.0666 c.0206,-.021 .0343,-.0266 .0486,-.0266 z" />
    <path class="sym" id="x4" d="m.0593,.1273 l-.0286,0 l0,.237 l.0083,0 l.0143,-.0103 c.0153,.0086 .0313,.0126 .048,.0126 c.05,0 .0836,-.0366 .0836,-.0823 c0,-.048 -.031,-.0786 -.069,-.0786 c-.021,0 -.0373,.0073 -.0566,.0273 z m.0486,.1023 c.026,0 .0476,.0213 .0476,.0556 c0,.0293 -.02,.0573 -.0583,.0573 c-.012,0 -.0243,-.0036 -.038,-.0126 l0,-.074 c.0206,-.0206 .0343,-.0263 .0486,-.0263 z" />
    <path class="sym" id="x5" d="m.1206,.163 c.0153,0 .025,-.0073 .025,-.0206 c0,-.0133 -.0083,-.0213 -.0246,-.0213 c-.0153,0 -.025,.0093 -.025,.0206 c0,.0143 .0103,.0213 .0246,.0213 z m.0186,.2173 l0,-.1713 l-.0996,0 l0,.024 l.071,0 l0,.1476 c0,.024 -.0096,.033 -.0346,.035 l-.0426,.003 l.001,.0246 l.0436,-.0026 c.0446,-.0026 .0613,-.019 .0613,-.0603 z" />
    <path class="sym" id="x6" d="m.0806,.309 c0,.0393 .0136,.0526 .054,.0549 l.0396,.0023 l.0016,-.0246 l-.0363,-.0023 c-.022,-.001 -.0306,-.0093 -.0306,-.0333 l0,-.1786 l-.0893,0 l0,.024 l.061,0 z" />
    <path class="sym" id="x7" d="m.1729,.364 l0,-.1549 l-.0286,0 l0,.095 c-.0293,.028 -.0436,.0363 -.0586,.0363 c-.0186,0 -.0263,-.0096 -.0263,-.0283 l0,-.103 l-.0286,0 l0,.108 c0,.0303 .0153,.0493 .047,.0493 c.0216,0 .039,-.0096 .0676,-.0366 l.0016,.0343 z" />
    <path class="sym" id="x8" d="m.1036,.405 l.083,-.1959 l-.0303,0 l-.052,.1306 l-.0533,-.1306 l-.032,0 l.0696,.1636 l-.0113,.0256 c-.006,.013 -.0123,.0166 -.031,.0176 l-.0313,.0016 l.0006,.0243 l.037,-.0016 c.0243,-.0013 .0396,-.0083 .051,-.0353 z" />
    <path class="sym" id="x9" d="m.1329,.229 l.0263,0 l.0066,-.1016 l-.0396,0 z m-.0853,0 l.0266,0 l.0063,-.1016 l-.0396,0 z" />
    <path class="sym" id="x10" d="m.0879,.229 l.0286,0 l.0066,-.1016 l-.042,0 z" />
    <path class="sym" id="x11" d="m.1629,.325 l0,-.068 c0,-.0353 -.016,-.0506 -.0676,-.0506 c-.0143,0 -.0356,.002 -.059,.006 l.003,.023 c.022,-.0036 .0426,-.0056 .055,-.0056 c.033,0 .0406,.007 .0406,.0266 l0,.0116 l-.0576,.0066 c-.0413,.0046 -.055,.018 -.055,.0476 c0,.0283 .0193,.044 .047,.044 c.024,0 .044,-.0083 .0636,-.0243 l.003,0 c.0043,.0153 .0153,.0216 .038,.0226 l.0156,.0006 l.002,-.022 l-.015,-.001 c-.0113,-.001 -.0136,-.0043 -.0136,-.0173 z m-.0873,.019 c-.0173,0 -.025,-.0086 -.025,-.0236 c0,-.0136 .005,-.023 .0316,-.0266 l.0526,-.007 l0,.0316 c-.027,.02 -.0423,.0256 -.0593,.0256 z" />
    <path class="sym" id="x12" d="m.1427,.2076 l.048,0 l0,-.0485 l-.048,0 z m0,.024 l0,.0275 c0,.0138 -.005,.0257 -.015,.0356 c-.01,.0099 -.0221,.0148 -.0362,.0148 c-.0141,0 -.0262,-.0049 -.0362,-.0149 c-.01,-.0099 -.015,-.022 -.015,-.0362 c0,-.0138 .005,-.0258 .015,-.0358 c.01,-.01 .0219,-.0151 .0357,-.0151 l.0277,0 l0,-.0485 l-.0277,0 c-.0138,0 -.0257,-.005 -.0357,-.0151 c-.01,-.01 -.015,-.022 -.015,-.036 c0,-.014 .005,-.0261 .015,-.036 c.01,-.0099 .022,-.0149 .0362,-.0149 c.0141,0 .0262,.0049 .0362,.0148 c.01,.0099 .015,.0217 .015,.0356 l0,.0276 l.048,0 l0,-.0276 c0,-.0138 .005,-.0257 .015,-.0356 c.01,-.0099 .022,-.0148 .0361,-.0148 c.0142,0 .0262,.0049 .0361,.0149 c.0099,.0099 .0148,.0219 .0148,.036 c0,.0139 -.0049,.026 -.0148,.036 c-.0099,.01 -.0218,.0151 -.0356,.0151 l-.0276,0 l0,.0485 l.0276,0 c.0138,0 .0257,.005 .0356,.0151 c.0099,.01 .0148,.022 .0148,.0358 c0,.0141 -.0049,.0262 -.0148,.0362 c-.0099,.0099 -.0219,.0149 -.0361,.0149 c-.014,0 -.0261,-.0049 -.0361,-.0148 c-.01,-.0099 -.015,-.0217 -.015,-.0356 l0,-.0275 z m-.024,-.0967 l0,-.0271 c0,-.0074 -.0026,-.0138 -.008,-.019 c-.0053,-.0052 -.0117,-.0078 -.0192,-.0078 c-.0074,0 -.0137,.0026 -.0191,.0078 c-.0053,.0052 -.008,.0115 -.008,.019 c0,.0074 .0026,.0138 .008,.0191 c.0053,.0053 .0117,.0079 .0192,.0079 z m0,.0967 l-.0271,0 c-.0075,0 -.0139,.0026 -.0192,.0079 c-.0053,.0052 -.008,.0116 -.008,.0189 c0,.0074 .0026,.0138 .008,.0191 c.0053,.0052 .0117,.0079 .0192,.0079 c.0074,0 .0137,-.0026 .0191,-.0079 c.0053,-.0053 .008,-.0116 .008,-.0189 z m.0962,-.0967 l.0271,0 c.0073,0 .0136,-.0026 .019,-.0079 c.0053,-.0053 .0079,-.0116 .0079,-.0191 c0,-.0074 -.0026,-.0138 -.0078,-.019 c-.0052,-.0052 -.0116,-.0078 -.019,-.0078 c-.0074,0 -.0138,.0026 -.0191,.0078 c-.0053,.0052 -.0079,.0115 -.0079,.019 z m0,.0967 l0,.027 c0,.0073 .0026,.0136 .0079,.0189 c.0053,.0052 .0117,.0079 .0191,.0079 c.0074,0 .0138,-.0026 .019,-.0079 c.0052,-.0053 .0078,-.0116 .0078,-.0191 c0,-.0073 -.0026,-.0136 -.0079,-.0189 c-.0053,-.0053 -.0116,-.0079 -.019,-.0079 z" />
    <path class="sym" id="x13" d="m.0169,.34 l0,.0239 l.1186,0 l0,-.0239 l-.0496,0 l0,-.0516 c.037,-.0446 .042,-.0476 .0696,-.0496 l.0316,-.0026 l-.002,-.0283 l-.0326,.002 c-.0233,.0016 -.0356,.0073 -.068,.0533 l-.0016,-.054 l-.0593,0 l0,.024 l.034,0 l0,.107 z" />
    <path class="sym" id="x14" d="m.0255,.1182 l.1135,0 l.1204,.164 l.0992,0 l0,.0276 l-.1136,0 l-.1204,-.164 l-.0992,0 z m.2193,0 l.1139,0 l0,.0276 l-.1139,0 z" />
    <path class="sym" id="x15" d="m.1739,.3206 c0,-.023 -.0086,-.0353 -.0513,-.0453 l-.0286,-.0066 c-.025,-.0063 -.0293,-.012 -.0293,-.022 c0,-.0106 .0093,-.0186 .045,-.0186 c.0136,0 .033,.0023 .054,.007 l.004,-.0243 c-.0196,-.0036 -.043,-.006 -.0576,-.006 c-.0536,0 -.0746,.0186 -.0746,.0443 c0,.0216 .0083,.034 .051,.0443 l.029,.0066 c.0243,.006 .0296,.012 .0296,.0226 c0,.0126 -.0113,.022 -.048,.022 c-.0143,0 -.0373,-.0023 -.0613,-.0073 l-.0043,.0243 c.0253,.005 .0456,.0066 .0653,.0066 c.0543,0 .0773,-.021 .0773,-.0476 z" />
    <path class="sym" id="x16" d="m.1587,.1262 l-.0535,.0531 l-.0234,-.0234 l.0769,-.0769 l.0175,0 l.0765,.0769 l-.0234,.0234 l-.0531,-.0531 z" />
    <path class="sym" id="x17" d="m.0729,.305 c0,.0436 .012,.057 .0526,.0589 l.0516,.0023 l.002,-.0243 l-.047,-.0026 c-.024,-.0013 -.031,-.0093 -.031,-.0383 l0,-.068 l.0686,0 l0,-.024 l-.069,0 l0,-.0576 l-.0276,0 l0,.0576 l-.0526,0 l0,.024 l.0523,0 z" />
    <path class="sym" id="x18" d="m.1831,.125 l-.0432,-.0432 l-.0432,.0432 l.0213,0 l0,.1686 l.0439,0 l0,-.1686 z m-.1259,.0162 l.0826,-.0826 l.0826,.0826 l-.0444,0 l0,.1686 l-.0765,0 l0,-.1686 z" />
    <path class="sym" id="x19" d="m.0196,.284 c0,.046 .0313,.075 .0686,.075 c.0213,0 .038,-.007 .0573,-.0273 l0,.0363 c0,.0323 -.0123,.0463 -.046,.0483 l-.0546,.003 l.001,.0243 l.0573,-.003 c.0516,-.0026 .0706,-.0243 .0706,-.0736 l0,-.1593 l-.0076,0 l-.016,.01 c-.015,-.0083 -.0306,-.012 -.047,-.012 c-.0496,0 -.0836,.035 -.0836,.0783 z m.0293,-.0006 c0,-.0276 .02,-.0536 .0583,-.0536 c.012,0 .0243,.0036 .0383,.0126 l0,.066 c-.021,.0213 -.0343,.027 -.049,.027 c-.0256,0 -.0476,-.02 -.0476,-.052 z" />
    <path class="sym" id="x20" d="m.0861,.1355 c.0127,0 .0208,-.0063 .0208,-.0172 c0,-.0116 -.0069,-.018 -.0202,-.018 c-.013,0 -.0208,.0075 -.0208,.0175 c0,.0116 .0083,.0177 .0202,.0177 z m-.0544,.1475 l0,.02 l.1158,0 l0,-.02 l-.0461,0 l0,-.1091 l-.0641,0 l0,.02 l.0402,0 l0,.0891 z m.186,-.1091 l-.0202,0 l0,.1291 l.0238,0 l0,-.0794 c.0244,-.023 .0363,-.03 .0488,-.03 c.0155,0 .0219,.0077 .0219,.0236 l0,.0858 l.0238,0 l0,-.09 c0,-.0252 -.0127,-.0411 -.0391,-.0411 c-.018,0 -.0325,.0077 -.0566,.0308 z m.2693,.093 c0,-.0191 -.0072,-.0294 -.0427,-.0377 l-.0238,-.0055 c-.0208,-.0052 -.0244,-.01 -.0244,-.0183 c0,-.0088 .0077,-.0155 .0375,-.0155 c.0113,0 .0275,.0019 .045,.0058 l.0033,-.0202 c-.0163,-.003 -.0358,-.005 -.048,-.005 c-.0447,0 -.0622,.0155 -.0622,.0369 c0,.018 .0069,.0283 .0425,.0369 l.0241,.0055 c.0202,.005 .0247,.01 .0247,.0188 c0,.0105 -.0094,.0183 -.04,.0183 c-.0119,0 -.0311,-.0019 -.0511,-.0061 l-.0036,.0202 c.0211,.0041 .038,.0055 .0544,.0055 c.0452,0 .0644,-.0175 .0644,-.0397 z m.1251,.0186 c-.0358,-.0011 -.0522,-.0127 -.0547,-.0386 l.1047,0 c.0005,-.0025 .0008,-.0058 .0008,-.01 c0,-.0441 -.0244,-.0672 -.0619,-.0672 c-.0388,0 -.0672,.0297 -.0672,.0708 c0,.04 .0213,.063 .0713,.0638 l.0327,.0005 l.0008,-.0186 z m-.0111,-.0969 c.0216,0 .0363,.0122 .0383,.0405 l-.0813,0 c.0036,-.0261 .0213,-.0405 .043,-.0405 z m.0971,.0944 l0,.02 l.0988,0 l0,-.02 l-.0413,0 l0,-.043 c.0308,-.0372 .035,-.0397 .058,-.0413 l.0263,-.0022 l-.0016,-.0236 l-.0272,.0016 c-.0194,.0013 -.0297,.0061 -.0566,.0444 l-.0013,-.045 l-.0494,0 l0,.02 l.0283,0 l0,.0891 z m.2176,-.0291 c0,.0363 .01,.0475 .0438,.0491 l.043,.0019 l.0016,-.0202 l-.0391,-.0022 c-.02,-.0011 -.0258,-.0077 -.0258,-.0319 l0,-.0566 l.0572,0 l0,-.02 l-.0575,0 l0,-.048 l-.023,0 l0,.048 l-.0438,0 l0,.02 l.0436,0 z" />
    <path class="sym" id="x21" d="m.0399,.241 l0,.0276 l.1246,0 l0,-.0276 z" />
    <path class="sym" id="x22" d="m.0389,.209 l-.0213,0 l0,.1549 l.026,0 l0,-.0993 c.0203,-.0246 .0286,-.0296 .0363,-.0296 c.007,0 .01,.0033 .01,.0106 l0,.1183 l.0253,0 l0,-.0996 c.0203,-.0243 .0286,-.0293 .036,-.0293 c.007,0 .01,.003 .01,.011 l0,.1179 l.0263,0 l0,-.1263 c0,-.0216 -.0086,-.03 -.025,-.03 c-.014,0 -.0273,.0076 -.045,.0343 l-.0026,0 l0,-.0056 c0,-.021 -.0086,-.029 -.0243,-.029 c-.0133,0 -.0276,.008 -.0463,.036 l-.0023,0 z" />
    <path class="sym" id="x23" d="m.0559,.209 l-.0243,0 l0,.1549 l.0286,0 l0,-.0953 c.0293,-.0276 .0436,-.036 .0586,-.036 c.0186,0 .0263,.0093 .0263,.0283 l0,.1029 l.0286,0 l0,-.1079 c0,-.0303 -.0153,-.0493 -.047,-.0493 c-.0216,0 -.039,.0093 -.068,.037 z" />
    <path class="sym" id="x24" d="m.1189,.343 c-.043,-.0013 -.0626,-.0153 -.0656,-.0463 l.1256,0 c.0006,-.003 .001,-.007 .001,-.012 c0,-.053 -.0293,-.0806 -.0743,-.0806 c-.0466,0 -.0806,.0356 -.0806,.085 c0,.048 .0256,.0756 .0856,.0766 l.0393,.0006 l.001,-.0223 z m-.0133,-.1163 c.026,0 .0436,.0146 .046,.0486 l-.0976,0 c.0043,-.0313 .0256,-.0486 .0516,-.0486 z" />
    <path class="sym" id="x25" d="m.1033,.163 c.0153,0 .025,-.0076 .025,-.0206 c0,-.014 -.0083,-.0216 -.0243,-.0216 c-.0156,0 -.025,.009 -.025,.021 c0,.014 .01,.0213 .0243,.0213 z m-.0653,.177 l0,.0239 l.139,0 l0,-.0239 l-.0553,0 l0,-.131 l-.077,0 l0,.024 l.0483,0 l0,.107 z" />
    <path class="sym" id="x26" d="m.1016,.369 c.048,0 .0816,-.0333 .0816,-.0819 c0,-.0493 -.0333,-.083 -.0803,-.083 c-.048,0 -.0816,.0343 -.0816,.082 c0,.05 .0333,.0829 .0803,.0829 z m.0006,-.0239 c-.031,0 -.052,-.022 -.052,-.0586 c0,-.0363 .0213,-.0586 .052,-.0586 c.031,0 .052,.0236 .052,.059 c0,.0373 -.021,.0583 -.052,.0583 z" />
    <path class="sym" id="x27" d="m.0286,.364 l.151,0 l0,-.0233 l-.11,0 l0,-.001 l.1046,-.1106 l0,-.02 l-.1416,0 l0,.023 l.102,0 l0,.001 l-.106,.1113 z" />
    <path class="sym" id="x28" d="m.0213,.364 l.0333,0 l.047,-.0636 l.0473,.0636 l.035,0 l-.0646,-.0803 l.059,-.0746 l-.033,0 l-.0426,.0573 l-.0416,-.0573 l-.0353,0 l.059,.075 z" />
    <path class="sym" id="x29" d="m.1093,.2283 c.015,0 .029,.0026 .0583,.0216 l.0133,-.021 c-.032,-.021 -.052,-.025 -.072,-.025 c-.0483,0 -.0856,.0353 -.0856,.0813 c0,.0523 .0343,.0836 .0816,.0836 c.0233,0 .044,-.0053 .0766,-.0243 l-.0123,-.02 c-.0293,.0163 -.0463,.02 -.063,.02 c-.0306,0 -.0533,-.0236 -.0533,-.059 c0,-.0336 .023,-.0573 .0563,-.0573 z" />
    <path class="sym" id="x30" d="m.0886,.367 c.0216,0 .0383,-.0076 .0583,-.0286 l.0026,.0256 l.0243,0 l0,-.2366 l-.0286,0 l0,.097 c-.0166,-.014 -.032,-.0176 -.0473,-.0176 c-.045,0 -.0783,.034 -.0783,.0816 c0,.048 .031,.0786 .069,.0786 z m-.0396,-.0796 c0,-.0323 .0196,-.0573 .0533,-.0573 c.0106,0 .025,.0033 .043,.0196 l0,.067 c-.0206,.021 -.0343,.0266 -.0486,.0266 c-.026,0 -.0476,-.0216 -.0476,-.056 z" />
    <path class="sym" id="x31" d="m.0183,.209 l.0673,.1549 l.0336,0 l.067,-.1549 l-.0303,0 l-.053,.1293 l-.0526,-.1293 z" />
    <path class="sym" id="x32" d="m.1,.3 l0,-.0335 l.2,0 l0,.0335 z m.1,-.1601 l-.0765,.0765 l-.0234,-.0234 l.1,-.1 l.1,.1 l-.0234,.0234 z" />
    <path class="sym" id="x33" d="m.0309,.234 l.1426,0 l0,-.0236 l-.1426,0 z m0,.0653 l.1426,0 l0,-.024 l-.1426,0 z" />
    <path class="sym" id="x34" d="m.0653,.1273 l-.0283,0 l0,.2366 l.0283,0 l0,-.0763 l.081,.0763 l.0383,0 l0,-.0006 l-.0883,-.081 l.088,-.0726 l0,-.0006 l-.0366,0 l-.0823,.0693 z" />
    <path class="sym" id="x35" d="m.0603,.1273 l-.0286,0 l0,.2366 l.0286,0 l0,-.0953 c.0293,-.0276 .0436,-.036 .0586,-.036 c.0186,0 .0263,.0093 .0263,.0283 l0,.1029 l.0286,0 l0,-.1079 c0,-.0303 -.0153,-.0493 -.047,-.0493 c-.0213,0 -.0386,.0093 -.0666,.0356 z" />
    <path class="sym" id="x36" d="m.1053,.2566 c.0183,0 .0296,-.009 .0296,-.0256 c0,-.017 -.0093,-.0263 -.029,-.0263 c-.0183,0 -.029,.011 -.029,.0256 c0,.018 .0116,.0263 .0283,.0263 z m-.06,.158 l.028,0 c.0383,-.0333 .0486,-.049 .055,-.0946 l-.0453,0 c-.004,.04 -.0086,.0519 -.0376,.0939 z" />
    <path class="sym" id="x37" d="m.0476,.4146 l.028,0 c.0383,-.0333 .049,-.049 .055,-.0946 l-.0453,0 c-.0036,.04 -.0086,.0519 -.0376,.0939 z" />
    <path class="sym" id="x38" d="m.0919,.2833 c.003,-.0253 .0046,-.0276 .0143,-.0326 l.0273,-.0143 c.034,-.0173 .0456,-.0296 .0456,-.0566 c0,-.0356 -.0223,-.0573 -.0676,-.0573 c-.0263,0 -.0463,.0036 -.0896,.0196 l.0076,.0243 c.0423,-.016 .0626,-.02 .0786,-.02 c.0263,0 .0413,.0106 .0413,.033 c0,.0153 -.0066,.0243 -.032,.037 l-.0316,.0153 c-.0136,.0066 -.017,.01 -.017,.018 c0,.0046 .0013,.0123 .0046,.0336 z m-.011,.0856 c.0176,0 .027,-.0073 .027,-.0209 c0,-.014 -.0073,-.0216 -.0263,-.0216 c-.0183,0 -.0266,.0086 -.0266,.021 c0,.0146 .0093,.0216 .026,.0216 z" />
    <path class="sym" id="x39" d="m.1023,.369 c.0183,0 .029,-.0096 .029,-.0269 c0,-.0173 -.0096,-.027 -.029,-.027 c-.0183,0 -.029,.01 -.029,.0273 c0,.017 .0096,.0266 .029,.0266 z" />
    <path class="sym" id="x40" d="m.0136,.1123 l.1476,.285 l.0296,0 l-.1483,-.285 z" />
    <path class="sym" id="x41" d="m.1909,.1123 l-.029,0 l-.1483,.285 l.0296,0 z" />
    <path class="sym" id="x42" d="m.0991,.2855 c-.0358,-.0011 -.0522,-.0127 -.0547,-.0386 l.1047,0 c.0005,-.0025 .0008,-.0058 .0008,-.01 c0,-.0441 -.0244,-.0672 -.0619,-.0672 c-.0388,0 -.0672,.0297 -.0672,.0708 c0,.04 .0213,.063 .0713,.0638 l.0327,.0005 l.0008,-.0186 z m-.0111,-.0969 c.0216,0 .0363,.0122 .0383,.0405 l-.0813,0 c.0036,-.0261 .0213,-.0405 .043,-.0405 z m.2279,.0783 c0,-.0191 -.0072,-.0294 -.0427,-.0377 l-.0238,-.0055 c-.0208,-.0052 -.0244,-.01 -.0244,-.0183 c0,-.0088 .0077,-.0155 .0375,-.0155 c.0113,0 .0275,.0019 .045,.0058 l.0033,-.0202 c-.0163,-.003 -.0358,-.005 -.048,-.005 c-.0447,0 -.0622,.0155 -.0622,.0369 c0,.018 .0069,.0283 .0425,.0369 l.0241,.0055 c.0202,.005 .0247,.01 .0247,.0188 c0,.0105 -.0094,.0183 -.04,.0183 c-.0119,0 -.0311,-.0019 -.0511,-.0061 l-.0036,.0202 c.0211,.0041 .038,.0055 .0544,.0055 c.0452,0 .0644,-.0175 .0644,-.0397 z m.1171,-.0769 c.0125,0 .0241,.0022 .0486,.018 l.0111,-.0175 c-.0266,-.0175 -.0433,-.0208 -.06,-.0208 c-.0402,0 -.0713,.0294 -.0713,.0677 c0,.0436 .0286,.0697 .068,.0697 c.0194,0 .0366,-.0044 .0638,-.0202 l-.0102,-.0166 c-.0244,.0136 -.0386,.0166 -.0525,.0166 c-.0255,0 -.0444,-.0197 -.0444,-.0491 c0,-.028 .0191,-.0477 .0469,-.0477 z" />
    <path class="sym" id="x43" d="m.017,.4041 l0,-.0613 l.0213,0 l0,.0376 l.1777,0 l0,-.0376 l.0213,0 l0,.0613 z" />
    <path class="sym" id="x44" d="m.019,.1918 l.1695,0 l-.038,-.038 l.0195,-.0195 l.0641,.0641 l0,-.0625 l.0276,0 l0,.1399 l-.0276,0 l0,-.0628 l-.0641,.0641 l-.0195,-.0195 l.038,-.038 l-.1695,0 z" />
    <path class="sym" id="x45" d="m.2185,.2195 l-.1567,0 l.0379,.0379 l-.0195,.0195 l-.0639,-.0639 l0,-.0146 l.0639,-.0639 l.0195,.0195 l-.0379,.0379 l.129,0 l0,-.0904 l.0276,0 z" />
    <path class="sym" id="x46" d="m.3718,.258 l-.2659,0 l-.1055,-.1055 l.1055,-.1055 l.2659,0 z m-.02,-.1909 l-.0191,0 l-.0854,.0854 l.0854,.0854 l.0191,0 z m-.1901,0 l.0712,.0712 l.0712,-.0712 z m.1424,.1708 l-.0712,-.0712 l-.0712,.0712 z m-.1706,-.1708 l-.0192,0 l-.0854,.0857 l.0854,.0851 l.0192,0 l.0854,-.0854 z" />
    <path class="sym" id="x47" d="m.021,.258 l0,-.211 l.2659,0 l.1055,.1055 l-.1055,.1055 z m.02,-.1909 l0,.1708 l.0191,0 l.0854,-.0854 l-.0854,-.0854 z m.1901,0 l-.1424,0 l.0712,.0712 z m-.1424,.1708 l.1424,0 l-.0712,-.0712 z m.1706,-.1708 l-.0854,.0854 l.0854,.0854 l.0192,0 l.0854,-.0851 l-.0854,-.0857 z" />
    <path class="sym" id="x48" d="m.1913,.2226 l-.0223,-.0076 c-.015,.0376 -.0193,.047 -.027,.047 c-.0063,0 -.0106,-.002 -.0356,-.021 c-.0246,-.0186 -.033,-.024 -.0436,-.024 c-.018,0 -.0306,.0113 -.0493,.0676 l.0223,.0076 c.015,-.038 .0193,-.0473 .027,-.0473 c.0063,0 .0106,.002 .0356,.021 c.0246,.0186 .033,.024 .0436,.024 c.018,0 .0306,-.0113 .0493,-.0673 z" />
    <path class="sym" id="x49" d="m.0169,.2736 l.03,0 l.055,-.1066 l.055,.1066 l.0306,0 l-.0693,-.128 l-.0326,0 z" />
    <path class="sym" id="x50" d="m.1579,.1476 c-.0246,-.0046 -.0393,-.0066 -.051,-.0066 c-.0366,0 -.0556,.0213 -.0556,.0466 c0,.0123 .005,.0253 .02,.0463 l.0056,.008 c-.0476,.0153 -.0583,.0333 -.0583,.067 c0,.0363 .0233,.0576 .0556,.0576 c.0296,0 .0456,-.01 .0623,-.041 l.027,.0383 l.0326,0 l-.0453,-.0633 l.0303,-.071 l-.0223,-.0086 l-.0236,.06 l-.0423,-.061 c-.0123,-.0176 -.015,-.0263 -.015,-.0336 c0,-.013 .01,-.0223 .028,-.0223 c.0116,0 .0246,.0016 .048,.0063 z m-.1123,.1586 c0,-.0233 .0043,-.034 .0433,-.047 l.0333,.0483 c-.013,.0286 -.025,.0346 -.0436,.0346 c-.019,0 -.033,-.012 -.033,-.036 z" />
    <path class="sym" id="x51" d="m.0629,.409 l.1116,0 l0,-.024 l-.0826,0 l0,-.2593 l.0826,0 l0,-.024 l-.1116,0 z" />
    <path class="sym" id="x52" d="m.0299,.1256 l.0826,0 l0,.2593 l-.0826,0 l0,.024 l.1116,0 l0,-.3073 l-.1116,0 z" />
    <path class="sym" id="x53" d="m.1146,.229 l.027,0 l-.047,-.1016 l-.044,0 z" />
    <path class="sym" id="x54" d="m.1639,.384 l-.0026,-.0156 c-.0196,.0046 -.034,.006 -.046,.006 c-.0516,0 -.0783,-.029 -.0783,-.117 c0,-.0936 .0273,-.119 .0723,-.119 c.0343,0 .0513,.0103 .0573,.054 l-.0326,0 c-.0393,0 -.0613,.018 -.0613,.064 c0,.0453 .0173,.0646 .0566,.0646 c.037,0 .0573,-.0166 .0573,-.0763 c0,-.101 -.0253,-.1223 -.0753,-.1223 c-.0563,0 -.0913,.0326 -.0913,.1366 c0,.097 .0306,.1313 .0936,.1313 c.0163,0 .0303,-.002 .0503,-.0063 z m-.069,-.1273 c0,-.0333 .013,-.045 .0383,-.045 l.0353,0 c.0006,.01 .001,.021 .001,.0336 c0,.043 -.0116,.0563 -.039,.0563 c-.0236,0 -.0356,-.0113 -.0356,-.045 z" />
    <path class="sym" id="x55" d="m.0133,.3066 l.0376,0 l-.0113,.0613 l.0206,0 l.0116,-.0623 l.042,0 l-.0116,.0623 l.0213,0 l.0113,-.0613 l.0463,0 l0,-.0256 l-.0413,0 l.01,-.054 l.0413,0 l0,-.026 l-.0366,0 l.011,-.059 l-.021,0 l-.0113,.06 l-.0423,0 l.0113,-.06 l-.021,0 l-.011,.059 l-.0466,0 l0,.026 l.042,0 l-.01,.054 l-.0423,0 z m.106,-.019 l-.046,0 l.0126,-.0673 l.0456,0 z" />
    <path class="sym" id="x56" d="m.1146,.4113 l0,-.048 c.0413,-.0036 .065,-.026 .065,-.0603 c0,-.0306 -.013,-.048 -.064,-.0636 l0,-.0696 c.0143,.001 .0313,.0046 .0523,.0106 l.0053,-.0246 c-.022,-.0056 -.038,-.009 -.0566,-.0096 l0,-.0476 l-.0213,0 l0,.0476 c-.043,.0036 -.064,.028 -.064,.0546 c0,.0283 .0153,.05 .063,.0636 l0,.0756 c-.017,-.0016 -.04,-.0076 -.0643,-.0163 l-.007,.0246 c.026,.009 .0483,.0143 .07,.0153 l0,.0476 z m-.054,-.213 c0,-.0146 .0106,-.027 .0376,-.0286 l0,.067 c-.0306,-.0103 -.0376,-.022 -.0376,-.0383 z m.0893,.106 c0,.0196 -.012,.033 -.0383,.0356 l0,-.0726 c.032,.0106 .0383,.022 .0383,.037 z" />
    <path class="sym" id="x57" d="m.0383,.2553 c0,.0593 .0383,.1123 .1223,.1576 l.0136,-.0193 c-.08,-.0446 -.1063,-.091 -.1063,-.1393 c0,-.0483 .0263,-.0946 .1063,-.1393 l-.0136,-.0193 c-.0843,.0453 -.1223,.0996 -.1223,.1596 z" />
    <path class="sym" id="x58" d="m.1663,.2533 c0,-.0593 -.0383,-.1123 -.1223,-.1576 l-.0136,.0193 c.08,.0446 .1063,.091 .1063,.1393 c0,.0483 -.0263,.0946 -.1063,.1393 l.0136,.0193 c.0843,-.0453 .1223,-.0996 .1223,-.1596 z" />
    <path class="sym" id="x59" d="m.0363,.2883 l.026,.0223 c.014,-.0163 .0243,-.044 .04,-.0633 c.0156,.0193 .0263,.047 .0403,.0633 l.026,-.0223 c-.014,-.0166 -.0403,-.0303 -.0573,-.0486 c.024,-.0076 .0533,-.0066 .0736,-.014 l-.0116,-.0326 c-.02,.007 -.042,.0256 -.065,.0346 c.001,-.0246 .0116,-.052 .0116,-.0736 l-.0346,0 c0,.0216 .0103,.0486 .0113,.074 c-.0233,-.0093 -.045,-.028 -.065,-.035 l-.0116,.0326 c.0203,.0073 .0496,.0063 .0736,.014 c-.017,.0183 -.0433,.032 -.0573,.0486 z" />
    <path class="sym" id="x60" d="m.0149,.1996 c0,.0363 .0153,.0586 .0473,.0586 c.0323,0 .049,-.0226 .049,-.059 c0,-.0366 -.0166,-.0586 -.0486,-.0586 c-.0316,0 -.0476,.0226 -.0476,.059 z m.1166,.0386 l.0643,-.0923 l0,-.002 l-.0313,0 l-.0466,.0943 z m-.0693,-.0793 c.019,0 .0273,.015 .0273,.0406 c0,.0256 -.008,.0396 -.027,.0396 c-.0186,0 -.0263,-.0143 -.0263,-.04 c0,-.0253 .0073,-.0403 .026,-.0403 z m.031,.1513 c0,.0363 .0166,.0586 .0486,.0586 c.0316,0 .0476,-.0226 .0476,-.0589 c0,-.0363 -.0153,-.0586 -.0473,-.0586 c-.0323,0 -.049,.0226 -.049,.059 z m.049,.0403 c-.019,0 -.0273,-.015 -.0273,-.0406 c0,-.0256 .008,-.0396 .027,-.0396 c.0186,0 .0266,.0143 .0266,.04 c0,.0253 -.0076,.0403 -.0263,.0403 z m-.0693,-.0793 l-.0643,.0923 l0,.002 l.0313,0 l.0466,-.0943 z" />
    <path class="sym" id="x61" d="m.0649,.3696 c0,.0153 .009,.0253 .0366,.0296 l.0773,.011 l.0033,-.0236 l-.0736,-.0103 c-.0103,-.0016 -.013,-.005 -.013,-.0096 c0,-.0033 .002,-.007 .0103,-.0166 l.0163,-.0183 c.0166,-.0186 .0186,-.0246 .0186,-.0316 c0,-.0136 -.0066,-.0246 -.093,-.0456 l0,-.0013 c.0866,-.021 .093,-.032 .093,-.0456 c0,-.007 -.002,-.013 -.0186,-.0316 l-.0163,-.0183 c-.0083,-.0096 -.0103,-.0133 -.0103,-.0166 c0,-.0046 .0026,-.008 .013,-.0096 l.0736,-.0103 l-.0033,-.0236 l-.0773,.011 c-.0276,.0043 -.0366,.0143 -.0366,.0296 c0,.0086 .0043,.018 .0173,.032 l.016,.018 c.0096,.0113 .011,.0143 .011,.0183 c0,.0076 -.004,.014 -.0846,.0346 l0,.026 c.0806,.021 .0846,.027 .0846,.0346 c0,.004 -.0013,.007 -.011,.018 l-.016,.0183 c-.013,.014 -.0173,.0233 -.0173,.032 z" />
    <path class="sym" id="x62" d="m.1396,.3696 c0,-.0086 -.0043,-.018 -.0173,-.032 l-.016,-.0183 c-.0096,-.011 -.011,-.014 -.011,-.018 c0,-.0076 .004,-.0136 .0846,-.0346 l0,-.026 c-.0806,-.021 -.0846,-.027 -.0846,-.0346 c0,-.004 .0013,-.007 .011,-.0183 l.016,-.018 c.013,-.014 .0173,-.0233 .0173,-.032 c0,-.0153 -.009,-.0253 -.0366,-.0296 l-.0773,-.011 l-.0033,.0236 l.0736,.0103 c.0103,.0016 .013,.005 .013,.0096 c0,.0033 -.002,.007 -.0103,.0166 l-.0163,.0183 c-.0166,.0186 -.0186,.0246 -.0186,.0316 c0,.0136 .0066,.0246 .093,.0456 l0,.0013 c-.0863,.021 -.093,.032 -.093,.0456 c0,.007 .002,.013 .0186,.0316 l.0163,.0183 c.0083,.0096 .0103,.0133 .0103,.0166 c0,.0046 -.0026,.008 -.013,.0096 l-.0736,.0103 l.0033,.0236 l.0773,-.011 c.0276,-.0043 .0366,-.0143 .0366,-.0296 z" />
    <path class="sym" id="x63" d="m.1019,.2566 c.0183,0 .0293,-.009 .0293,-.0256 c0,-.017 -.0093,-.0263 -.0286,-.0263 c-.0186,0 -.0293,.011 -.0293,.0256 c0,.018 .0116,.0263 .0286,.0263 z m0,.1123 c.0183,0 .0293,-.0093 .0293,-.0256 c0,-.017 -.0093,-.0266 -.0286,-.0266 c-.0186,0 -.0293,.0113 -.0293,.026 c0,.0176 .0116,.0263 .0286,.0263 z" />
    <path class="sym" id="x64" d="m.0933,.2833 l.018,0 l.0186,-.156 l-.055,0 z m.008,.0856 c.0176,0 .0266,-.0073 .0266,-.0209 c0,-.014 -.0073,-.0216 -.026,-.0216 c-.0183,0 -.027,.0086 -.027,.021 c0,.0146 .0093,.0216 .0263,.0216 z" />
    <path class="sym" id="x65" d="m.1156,.1123 l-.0266,0 l0,.285 l.0266,0 z" />
    <path class="sym" id="x66" d="m.0233,.2666 l.0653,0 l0,.0683 l.027,0 l0,-.0683 l.0656,0 l0,-.0236 l-.0656,0 l0,-.068 l-.027,0 l0,.068 l-.0653,0 z" />
    <path class="sym" id="x67" d="m.0259,.3726 l0,.0266 l.1526,0 l0,-.0266 z" />
    <path class="sym" id="x68" d="m.1648,.2515 c-.0098,-.0098 -.0148,-.0216 -.0148,-.0351 c0,-.0135 .0049,-.0252 .0148,-.0351 c.0098,-.0098 .0216,-.0148 .0351,-.0148 c.0135,0 .0252,.0049 .0351,.0148 c.0098,.0098 .0148,.0216 .0148,.0351 c0,.0135 -.0049,.0252 -.0148,.0351 c-.0098,.0098 -.0216,.0148 -.0351,.0148 c-.0135,0 -.0252,-.0049 -.0351,-.0148 z m.1687,.075 l-.064,-.064 c.0093,-.0145 .014,-.0299 .014,-.046 c0,-.0229 -.0082,-.0424 -.0246,-.0585 c-.0164,-.0161 -.036,-.0242 -.0589,-.0242 c-.0229,0 -.0425,.008 -.0589,.0242 c-.0164,.0161 -.0246,.0356 -.0246,.0585 c0,.0229 .0082,.0425 .0246,.0589 c.0164,.0164 .036,.0246 .0589,.0246 c.0161,0 .0315,-.0046 .046,-.014 l.0734,.0742 c-.0057,.0041 -.0122,.0062 -.0195,.0062 l-.2,0 c-.0088,0 -.0166,-.0032 -.0234,-.0097 c-.0067,-.0065 -.0101,-.0141 -.0101,-.023 l.0007,-.2671 c0,-.0088 .0032,-.0165 .0097,-.023 c.0065,-.0065 .0141,-.0097 .023,-.0097 l.1335,0 l.1,.1 z m.1766,-.13 l.0122,0 l.0531,.0534 l-.0162,.0162 l-.0314,-.0317 l0,.1654 l-.023,0 l0,-.1654 l-.0317,.0317 l-.0162,-.0162 z" />
    <path class="sym" id="x69" d="m.2625,.067 l0,.0161 l-.2265,0 l0,.2267 l-.0161,0 l0,-.2428 z m-.1954,.0572 l.0102,-.0102 l.0904,0 l0,.0275 l-.0537,0 l.1402,.1402 l-.0195,.0195 l-.1402,-.1402 l0,.0537 l-.0275,0 z" />
    <path class="sym" id="x70" d="m.1324,.0658 l.0146,0 l.0637,.0641 l-.0195,.0195 l-.0377,-.038 l0,.1985 l-.0276,0 l0,-.1985 l-.038,.038 l-.0195,-.0195 z" />
    <path class="sym" id="x71" d="m.0199,.31 l0,-.0161 l.2267,0 l0,-.2267 l.0161,0 l0,.2428 z m.1954,-.0572 l-.0102,.0102 l-.0905,0 l0,-.0275 l.0537,0 l-.1402,-.1402 l.0195,-.0195 l.1402,.1402 l0,-.0537 l.0275,0 z" />
    <path class="sym" id="x72" d="m.3164,.05 l.05,0 l0,.0164 l-.1164,.1171 l-.0335,-.0335 z m-.125,.15 c0,.0057 .0028,.0085 .0085,.0085 c.0057,0 .0085,-.0028 .0085,-.0085 c0,-.0057 -.0028,-.0085 -.0085,-.0085 c-.0057,0 -.0085,.0028 -.0085,.0085 z m-.1148,.1238 c.0067,.0065 .0145,.0097 .0234,.0097 c.0088,0 .0166,-.0032 .0234,-.0097 c.0067,-.0065 .0101,-.0144 .0101,-.0238 c0,-.0093 -.0033,-.0173 -.0101,-.0238 c-.0067,-.0065 -.0145,-.0097 -.0234,-.0097 c-.0088,0 -.0166,.0032 -.0234,.0097 c-.0067,.0065 -.0101,.0144 -.0101,.0238 c0,.0093 .0033,.0173 .0101,.0238 z m0,-.2 c.0067,.0065 .0145,.0097 .0234,.0097 c.0088,0 .0166,-.0032 .0234,-.0097 c.0067,-.0065 .0101,-.0144 .0101,-.0238 c0,-.0093 -.0033,-.0173 -.0101,-.0238 c-.0067,-.0065 -.0145,-.0097 -.0234,-.0097 c-.0088,0 -.0166,.0032 -.0234,.0097 c-.0067,.0065 -.0101,.0144 -.0101,.0238 c0,.0093 .0033,.0173 .0101,.0238 z m.0843,.0035 l.2054,.2062 l0,.0164 l-.05,0 l-.1164,-.1164 l-.039,.039 c.0036,.0078 .0054,.0169 .0054,.0273 c0,.0182 -.0065,.0338 -.0195,.0468 c-.013,.013 -.0286,.0195 -.0468,.0195 c-.0182,0 -.0338,-.0065 -.0468,-.0195 c-.013,-.013 -.0195,-.0286 -.0195,-.0468 c0,-.0182 .0065,-.0338 .0195,-.0468 c.013,-.013 .0286,-.0195 .0468,-.0195 c.0104,0 .0195,.0018 .0273,.0054 l.039,-.039 l-.039,-.039 c-.0078,.0036 -.0169,.0054 -.0273,.0054 c-.0182,0 -.0338,-.0065 -.0468,-.0195 c-.013,-.013 -.0195,-.0286 -.0195,-.0468 c0,-.0182 .0065,-.0338 .0195,-.0468 c.013,-.013 .0286,-.0195 .0468,-.0195 c.0182,0 .0338,.0065 .0468,.0195 c.013,.013 .0195,.0286 .0195,.0468 c0,.0104 -.0018,.0195 -.0054,.0273 z" />
    <path class="sym" id="x73" d="m.1648,.2515 c-.0098,-.0098 -.0148,-.0216 -.0148,-.0351 c0,-.0135 .0049,-.0252 .0148,-.0351 c.0098,-.0098 .0216,-.0148 .0351,-.0148 c.0135,0 .0252,.0049 .0351,.0148 c.0098,.0098 .0148,.0216 .0148,.0351 c0,.0135 -.0049,.0252 -.0148,.0351 c-.0098,.0098 -.0216,.0148 -.0351,.0148 c-.0135,0 -.0252,-.0049 -.0351,-.0148 z m.1687,.075 l-.064,-.064 c.0093,-.0145 .014,-.0299 .014,-.046 c0,-.0229 -.0082,-.0424 -.0246,-.0585 c-.0164,-.0161 -.036,-.0242 -.0589,-.0242 c-.0229,0 -.0425,.008 -.0589,.0242 c-.0164,.0161 -.0246,.0356 -.0246,.0585 c0,.0229 .0082,.0425 .0246,.0589 c.0164,.0164 .036,.0246 .0589,.0246 c.0161,0 .0315,-.0046 .046,-.014 l.0734,.0742 c-.0057,.0041 -.0122,.0062 -.0195,.0062 l-.2,0 c-.0088,0 -.0166,-.0032 -.0234,-.0097 c-.0067,-.0065 -.0101,-.0141 -.0101,-.023 l.0007,-.2671 c0,-.0088 .0032,-.0165 .0097,-.023 c.0065,-.0065 .0141,-.0097 .023,-.0097 l.1335,0 l.1,.1 z m.1889,.0743 l-.0122,0 l-.0534,-.0534 l.0162,-.0162 l.0317,.0317 l0,-.1654 l.023,0 l0,.1654 l.0314,-.0317 l.0162,.0162 z" />
    <path class="sym" id="x74" d="m.0161,.213 l0,-.0146 l.0639,-.0639 l.0195,.0195 l-.0379,.0379 l.1983,0 l0,.0276 l-.1983,0 l.0379,.0379 l-.0195,.0195 z" />
    <path class="sym" id="x75" d="m.147,.3111 l-.0146,0 l-.0641,-.0641 l.0195,-.0195 l.038,.038 l0,-.1985 l.0276,0 l0,.1985 l.0377,-.038 l.0195,.0195 z" />
    <path class="sym" id="x76" d="m.263,.1984 l0,.0146 l-.0639,.0639 l-.0195,-.0195 l.0379,-.0379 l-.1983,0 l0,-.0276 l.1983,0 l-.0379,-.0379 l.0195,-.0195 z" />
    <path class="sym" id="x77" d="m.3164,.35 l0,-.2335 l-.1828,0 l0,.2335 z m0,-.2664 c.0088,0 .0166,.0032 .0234,.0097 c.0067,.0065 .0101,.0141 .0101,.023 l0,.2335 c0,.0088 -.0033,.0166 -.0101,.0234 c-.0067,.0067 -.0145,.0101 -.0234,.0101 l-.1828,0 c-.0088,0 -.0166,-.0033 -.0234,-.0101 c-.0067,-.0067 -.0101,-.0145 -.0101,-.0234 l0,-.2335 c0,-.0088 .0033,-.0165 .0101,-.023 c.0067,-.0065 .0145,-.0097 .0234,-.0097 z m-.05,-.0671 l0,.0335 l-.2,0 l0,.2335 l-.0328,0 l0,-.2335 c0,-.0088 .0032,-.0166 .0097,-.0234 c.0065,-.0067 .0141,-.0101 .023,-.0101 z" />
    <path class="sym" id="x78" d="m.2085,.1335 c.038,0 .0721,.0111 .1023,.0335 c.0302,.0223 .0513,.0513 .0632,.0867 l-.039,.0125 c-.0088,-.027 -.0248,-.049 -.048,-.066 c-.0231,-.0169 -.0493,-.0253 -.0785,-.0253 c-.0322,0 -.0609,.0104 -.0859,.0312 l.0609,.0601 l-.15,0 l0,-.15 l.0593,.0601 c.0328,-.0286 .0713,-.0429 .1156,-.0429 z" />
    <path class="sym" id="x79" d="m.3195,.2 l-.0765,-.0765 l.0234,-.0234 l.1,.1 l-.0593,.0601 l-.0234,-.0242 z m-.296,-.1296 l.0695,.0695 l-.0593,.0601 l.1,.1 l.0234,-.0234 l-.0765,-.0765 l.0359,-.0359 l.2132,.2125 l.0234,-.0234 l-.3062,-.3062 z" />
    <path class="sym" id="x80" d="m.1323,.0658 l.0146,0 l.0637,.0641 l-.0195,.0195 l-.0377,-.038 l0,.0602 l.0481,0 l0,.0276 l-.0481,0 l0,.0276 l.0481,0 l0,.0276 l-.0481,0 l0,.0553 l-.0276,0 l0,-.0553 l-.0478,0 l0,-.0276 l.0478,0 l0,-.0276 l-.0478,0 l0,-.0276 l.0478,0 l0,-.0602 l-.038,.038 l-.0195,-.0195 z" />
    <path class="sym" id="x81" d="m.1466,.3111 l-.0146,0 l-.0637,-.0641 l.0195,-.0195 l.0377,.038 l0,-.0602 l-.0481,0 l0,-.0276 l.0481,0 l0,-.0276 l-.0481,0 l0,-.0276 l.0481,0 l0,-.0553 l.0276,0 l0,.0553 l.0478,0 l0,.0276 l-.0478,0 l0,.0276 l.0478,0 l0,.0276 l-.0478,0 l0,.0602 l.038,-.038 l.0195,.0195 z" />
    <path class="sym" id="x82" d="m.3164,.3335 l0,-.2671 l-.0328,0 l0,.05 l-.1671,0 l0,-.05 l-.0328,0 l0,.2671 z m-.1046,-.2953 c-.0031,-.0031 -.007,-.0046 -.0117,-.0046 c-.0046,0 -.0085,.0015 -.0117,.0046 c-.0031,.0031 -.0046,.007 -.0046,.0117 c0,.0046 .0015,.0085 .0046,.0117 c.0031,.0031 .007,.0046 .0117,.0046 c.0046,0 .0085,-.0015 .0117,-.0046 c.0031,-.0031 .0046,-.007 .0046,-.0117 c0,-.0046 -.0015,-.0085 -.0046,-.0117 z m.1046,-.0046 c.0088,0 .0166,.0032 .0234,.0097 c.0067,.0065 .0101,.0141 .0101,.023 l0,.2671 c0,.0088 -.0033,.0165 -.0101,.023 c-.0067,.0065 -.0145,.0097 -.0234,.0097 l-.2328,0 c-.0088,0 -.0166,-.0032 -.0234,-.0097 c-.0067,-.0065 -.0101,-.0141 -.0101,-.023 l0,-.2671 c0,-.0088 .0033,-.0165 .0101,-.023 c.0067,-.0065 .0145,-.0097 .0234,-.0097 l.0695,0 c.0036,-.0098 .0096,-.0179 .0179,-.0242 c.0083,-.0062 .0179,-.0093 .0289,-.0093 c.0109,0 .0205,.0031 .0289,.0093 c.0083,.0062 .0143,.0143 .0179,.0242 z" />
    <path class="sym" id="x83" d="m.307,.1765 l.0593,-.0601 l0,.15 l-.15,0 l.0609,-.0601 c-.025,-.0208 -.0536,-.0312 -.0859,-.0312 c-.0265,0 -.0522,.0088 -.0769,.0265 c-.0247,.0177 -.0412,.0393 -.0496,.0648 l-.039,-.0125 c.0114,-.0354 .0324,-.0643 .0628,-.0867 c.0304,-.0223 .0647,-.0335 .1027,-.0335 c.0442,0 .0828,.0143 .1156,.0429 z" />
    <path class="sym" id="x84" d="m.0379,.364 l.1383,0 l0,-.0239 l-.0533,0 l0,-.198 l-.008,0 l-.0773,.04 l0,.0296 l.0563,-.0293 l0,.1576 l-.056,0 z" />
    <path class="sym" id="x85" d="m.0283,.364 l.1533,0 l0,-.0239 l-.1153,0 l0,-.001 l.054,-.0546 c.046,-.0466 .055,-.0603 .055,-.0846 c0,-.036 -.0273,-.059 -.0656,-.059 c-.029,0 -.0506,.01 -.086,.044 l.016,.0196 c.032,-.0303 .047,-.039 .0686,-.039 c.0243,0 .0373,.0143 .0373,.0353 c0,.0176 -.0063,.0283 -.047,.0703 l-.0703,.073 z" />
    <path class="sym" id="x86" d="m.0253,.1696 l.1046,0 l0,.001 l-.0683,.0756 l.0053,.0133 c.0103,-.0016 .0193,-.0026 .0293,-.0026 c.038,0 .0526,.0143 .0526,.036 c0,.025 -.0196,.0413 -.0786,.0456 l-.04,.003 l.0023,.0256 l.0396,-.0026 c.0766,-.0053 .1063,-.0326 .1063,-.072 c0,-.031 -.0206,-.058 -.0753,-.058 l0,-.0006 l.0653,-.07 l0,-.0183 l-.1433,0 z" />
    <path class="sym" id="x87" d="m.0176,.3056 l.1053,0 l0,.0583 l.0283,0 l0,-.0583 l.0433,0 l0,-.0233 l-.0433,0 l0,-.1366 l-.039,0 l-.0946,.1393 z m.1076,-.14 l0,.1186 l-.0796,0 l0,-.0016 z" />
    <path class="sym" id="x88" d="m.1786,.287 c0,-.0406 -.0296,-.0633 -.0643,-.0633 c-.019,0 -.0363,.0053 -.0526,.016 l.006,-.07 l.0983,0 l0,-.024 l-.123,0 l-.0083,.1143 l.001,.0016 l.0196,.003 c.0176,-.0116 .0356,-.0176 .0536,-.0176 c.0216,0 .0403,.0143 .0403,.0396 c0,.0286 -.019,.0463 -.08,.052 l-.0396,.0036 l.0026,.025 l.0386,-.0033 c.0783,-.0066 .1076,-.0349 .1076,-.0769 z" />
    <path class="sym" id="x89" d="m.1799,.293 c0,-.0436 -.0286,-.071 -.0716,-.071 c-.0116,0 -.023,.0013 -.036,.0056 c.0083,-.013 .02,-.026 .0353,-.0396 l.0463,-.0416 l-.0003,-.0006 l-.0396,0 l-.0323,.0306 c-.041,.039 -.0563,.0673 -.0563,.112 c0,.0526 .0363,.0806 .0766,.0806 c.0453,0 .078,-.0313 .078,-.0759 z m-.1253,-.006 c0,-.0126 .002,-.0246 .0063,-.0366 c.0136,-.0043 .027,-.0063 .0406,-.0063 c.031,0 .0486,.0193 .0486,.0483 c0,.0306 -.0183,.053 -.0476,.053 c-.0273,0 -.048,-.022 -.048,-.0583 z" />
    <path class="sym" id="x90" d="m.0849,.364 l.0923,-.1943 l0,-.024 l-.1576,0 l0,.025 l.128,0 l0,.002 l-.097,.1906 l0,.0006 z" />
    <path class="sym" id="x91" d="m.1019,.369 c.0443,0 .0773,-.0243 .0773,-.0633 c0,-.026 -.02,-.0463 -.049,-.054 l0,-.0016 c.0253,-.008 .0423,-.0266 .0423,-.05 c0,-.0363 -.029,-.0593 -.0696,-.0593 c-.0406,0 -.071,.0233 -.071,.06 c0,.0233 .017,.0416 .0426,.0493 l0,.0016 c-.0293,.008 -.0493,.0286 -.0493,.0546 c0,.0386 .033,.0626 .0766,.0626 z m.0006,-.1283 c-.0226,0 -.042,-.0153 -.042,-.0386 c0,-.024 .0176,-.0383 .0416,-.0383 c.0243,0 .0416,.0143 .0416,.0376 c0,.0233 -.019,.0393 -.0413,.0393 z m0,.1053 c-.028,0 -.0486,-.016 -.0486,-.041 c0,-.0256 .0216,-.0426 .0483,-.0426 c.0266,0 .0483,.0163 .0483,.042 c0,.026 -.0206,.0416 -.048,.0416 z" />
    <path class="sym" id="x92" d="m.1233,.3333 c.04,-.038 .0566,-.0693 .0566,-.112 c0,-.0526 -.035,-.0806 -.075,-.0806 c-.0473,0 -.08,.0313 -.08,.076 c0,.0436 .0286,.071 .0716,.071 c.0116,0 .023,-.0016 .0363,-.006 c-.0083,.0133 -.02,.0263 -.0353,.04 l-.0466,.0416 l.0003,.0006 l.0396,0 z m.0273,-.1106 c0,.0126 -.002,.0246 -.0063,.0366 c-.014,.0043 -.0273,.0063 -.041,.0063 c-.0306,0 -.0486,-.0193 -.0486,-.0483 c0,-.0306 .0186,-.053 .0476,-.053 c.0273,0 .0483,.022 .0483,.0583 z" />
    <path class="sym" id="x93" d="m.1823,.2543 c0,-.0743 -.0303,-.1136 -.0796,-.1136 c-.0493,0 -.0803,.0403 -.0803,.115 c0,.075 .0303,.1133 .0796,.1133 c.0493,0 .0803,-.0393 .0803,-.1146 z m-.1316,.0006 c0,-.0616 .0183,-.0896 .0516,-.0896 c.0226,0 .0386,.0133 .0463,.042 l-.0966,.0746 c-.001,-.0083 -.0013,-.017 -.0013,-.027 z m.1033,0 c0,.0613 -.0186,.0893 -.0516,.0893 c-.0223,0 -.0383,-.013 -.0463,-.041 l.0966,-.0746 c.001,.008 .0013,.0166 .0013,.0263 z" />
    <path class="sym" id="x94" d="m.1793,.3376 l0,-.0266 l-.1306,-.0543 l.1306,-.054 l0,-.0263 l-.1566,.0673 l0,.0263 z" />
    <path class="sym" id="x95" d="m.1819,.27 l0,-.0263 l-.1566,-.0673 l0,.0263 l.1306,.054 l-.1306,.0543 l0,.0266 z" />
    <path class="sym" id="x96" d="m.0466,.1738 l-.0202,0 l0,.1291 l.0238,0 l0,-.0794 c.0244,-.023 .0363,-.03 .0488,-.03 c.0155,0 .0219,.0077 .0219,.0236 l0,.0858 l.0238,0 l0,-.09 c0,-.0252 -.0127,-.0411 -.0391,-.0411 c-.018,0 -.0325,.0077 -.0566,.0308 z m.2685,.1291 l0,-.1291 l-.0238,0 l0,.0791 c-.0244,.0233 -.0363,.0302 -.0488,.0302 c-.0155,0 -.0219,-.008 -.0219,-.0236 l0,-.0858 l-.0238,0 l0,.09 c0,.0252 .0127,.0411 .0391,.0411 c.018,0 .0325,-.008 .0563,-.0305 l.0013,.0286 z m.0593,-.1291 l-.0177,0 l0,.1291 l.0216,0 l0,-.0827 c.0169,-.0205 .0238,-.0247 .0302,-.0247 c.0058,0 .0083,.0027 .0083,.0088 l0,.0986 l.0211,0 l0,-.083 c.0169,-.0202 .0238,-.0244 .03,-.0244 c.0058,0 .0083,.0025 .0083,.0091 l0,.0983 l.0219,0 l0,-.1052 c0,-.018 -.0072,-.025 -.0208,-.025 c-.0116,0 -.0227,.0063 -.0375,.0286 l-.0022,0 l0,-.0047 c0,-.0175 -.0072,-.0241 -.0202,-.0241 c-.0111,0 -.023,.0066 -.0386,.03 l-.0019,0 z m-.0748,.3221 l0,-.028 c0,-.0117 -.0042,-.0218 -.0127,-.0302 c-.0084,-.0084 -.0185,-.0127 -.0302,-.0127 c-.0117,0 -.0217,.0042 -.0302,.0127 c-.0084,.0084 -.0126,.0185 -.0126,.0302 l0,.028 z m-.0625,.1165 c.0056,.0056 .0121,.0084 .0195,.0084 c.0073,0 .0138,-.0028 .0195,-.0084 c.0056,-.0056 .0084,-.0121 .0084,-.0195 c0,-.0073 -.0028,-.0138 -.0084,-.0195 c-.0056,-.0056 -.0121,-.0084 -.0195,-.0084 c-.0073,0 -.0138,.0028 -.0195,.0084 c-.0056,.0056 -.0084,.0121 -.0084,.0195 c0,.0073 .0028,.0138 .0084,.0195 z m.1028,-.1165 c.0073,0 .0138,.0027 .0195,.0081 c.0056,.0054 .0084,.0118 .0084,.0192 l0,.1393 c0,.0073 -.0028,.0137 -.0084,.0192 c-.0056,.0054 -.0121,.0081 -.0195,.0081 l-.1666,0 c-.0073,0 -.0138,-.0027 -.0195,-.0081 c-.0056,-.0054 -.0084,-.0118 -.0084,-.0192 l0,-.1393 c0,-.0073 .0028,-.0137 .0084,-.0192 c.0056,-.0054 .0121,-.0081 .0195,-.0081 l.0136,0 l0,-.028 c0,-.019 .0068,-.0354 .0205,-.0491 c.0136,-.0136 .03,-.0205 .0491,-.0205 c.0191,0 .0354,.0068 .0491,.0205 c.0136,.0136 .0205,.03 .0205,.0491 l0,.028 z" />
    <path class="sym" id="x97" d="m.1531,.1531 c.013,-.013 .0286,-.0195 .0468,-.0195 c.0182,0 .0338,.0065 .0468,.0195 c.013,.013 .0195,.0286 .0195,.0468 c0,.0182 -.0065,.0338 -.0195,.0468 c-.013,.013 -.0286,.0195 -.0468,.0195 c-.0182,0 -.0338,-.0065 -.0468,-.0195 c-.013,-.013 -.0195,-.0286 -.0195,-.0468 c0,-.0182 .0065,-.0338 .0195,-.0468 z m-.0238,.1175 c.0195,.0195 .043,.0292 .0707,.0292 c.0276,0 .0511,-.0097 .0707,-.0292 c.0195,-.0195 .0292,-.043 .0292,-.0707 c0,-.0276 -.0097,-.0511 -.0292,-.0707 c-.0195,-.0195 -.0431,-.0292 -.0707,-.0292 c-.0276,0 -.0511,.0097 -.0707,.0292 c-.0195,.0195 -.0292,.0431 -.0292,.0707 c0,.0276 .0097,.0511 .0292,.0707 z m.2042,-.1261 l.0546,.0554 l-.0546,.0554 l0,.0781 l-.0781,0 l-.0554,.0546 l-.0554,-.0546 l-.0781,0 l0,-.0781 l-.0546,-.0554 l.0546,-.0554 l0,-.0781 l.0781,0 l.0554,-.0546 l.0554,.0546 l.0781,0 z" />
    <path class="sym" id="x98" d="m.1914,.2 l.1421,-.1 l0,.2 z m-.0078,.1 l-.1421,-.1 l.1421,-.1 z" />
    <path class="sym" id="x99" d="m.2335,.0539 c.0338,.0072 .0617,.0246 .0835,.0519 c.0218,.0273 .0328,.0587 .0328,.0941 c0,.0354 -.0109,.0667 -.0328,.0941 c-.0218,.0273 -.0497,.0446 -.0835,.0519 l0,-.0343 c.0244,-.0072 .0443,-.021 .0597,-.0414 c.0153,-.0203 .023,-.0437 .023,-.0703 c0,-.0265 -.0076,-.05 -.023,-.0703 c-.0153,-.0203 -.0352,-.0341 -.0597,-.0414 z m.0414,.146 c0,.0312 -.0138,.0536 -.0414,.0671 l0,-.1343 c.0114,.0057 .0212,.0151 .0292,.0281 c.008,.013 .0121,.026 .0121,.039 z m-.225,-.05 l.0664,0 l.0835,-.0835 l0,.2671 l-.0835,-.0835 l-.0664,0 z" />
    <path class="sym" id="x100" d="m.2164,.1 l.1421,.1 l-.1421,.1 z m-.15,.2 l0,-.2 l.1421,.1 z" />
    <path class="sym" id="x101" d="m.2726,.2335 l.0562,0 c.0031,-.0145 .0046,-.0257 .0046,-.0335 c0,-.0078 -.0015,-.019 -.0046,-.0335 l-.0562,0 c.0015,.0109 .0023,.0221 .0023,.0335 c0,.0114 -.0007,.0226 -.0023,.0335 z m-.0296,.0921 c.013,-.0041 .0265,-.0121 .0406,-.0238 c.014,-.0117 .0247,-.0235 .032,-.0355 l-.0492,0 c-.0052,.0208 -.013,.0406 -.0234,.0593 z m-.0039,-.0921 c.0015,-.0109 .0023,-.0221 .0023,-.0335 c0,-.0114 -.0007,-.0226 -.0023,-.0335 l-.0781,0 c-.0015,.0109 -.0023,.0221 -.0023,.0335 c0,.0114 .0007,.0226 .0023,.0335 z m-.039,.0992 c.0145,-.0213 .0252,-.0434 .032,-.0664 l-.064,0 c.0067,.0229 .0174,.045 .032,.0664 z m-.0664,-.1992 c.0062,-.0223 .014,-.0421 .0234,-.0593 c-.013,.0041 -.0266,.0121 -.041,.0238 c-.0143,.0117 -.0248,.0235 -.0316,.0355 z m-.0492,.1328 c.0067,.0119 .0173,.0238 .0316,.0355 c.0143,.0117 .0279,.0196 .041,.0238 c-.0104,-.0187 -.0182,-.0385 -.0234,-.0593 z m-.0132,-.0328 l.0562,0 c-.0015,-.0109 -.0023,-.0221 -.0023,-.0335 c0,-.0114 .0007,-.0226 .0023,-.0335 l-.0562,0 c-.0031,.0145 -.0046,.0257 -.0046,.0335 c0,.0078 .0015,.019 .0046,.0335 z m.1289,-.1664 c-.0145,.0213 -.0252,.0434 -.032,.0664 l.064,0 c-.0067,-.0229 -.0174,-.045 -.032,-.0664 z m.1156,.0664 c-.0072,-.0119 -.0179,-.0238 -.032,-.0355 c-.014,-.0117 -.0276,-.0196 -.0406,-.0238 c.0093,.0171 .0171,.0369 .0234,.0593 z m-.2332,-.0511 c.0325,-.0325 .0717,-.0488 .1175,-.0488 c.0458,0 .085,.0162 .1175,.0488 c.0325,.0325 .0488,.0717 .0488,.1175 c0,.0458 -.0162,.085 -.0488,.1175 c-.0325,.0325 -.0717,.0488 -.1175,.0488 c-.0458,0 -.085,-.0162 -.1175,-.0488 c-.0325,-.0325 -.0488,-.0717 -.0488,-.1175 c0,-.0458 .0162,-.085 .0488,-.1175 z" />
    <path class="sym" id="x102" d="m.1292,.2707 c.0195,.0195 .043,.0292 .0707,.0292 c.0276,0 .0511,-.0097 .0707,-.0292 c.0195,-.0195 .0292,-.043 .0292,-.0707 c0,-.0276 -.0097,-.0511 -.0292,-.0707 c-.0195,-.0195 -.0431,-.0292 -.0707,-.0292 c-.0276,0 -.0511,.0097 -.0707,.0292 c-.0195,.0195 -.0292,.0431 -.0292,.0707 c0,.0276 .0097,.0511 .0292,.0707 z m.2042,-.0152 l0,.0781 l-.0781,0 l-.0554,.0546 l-.0554,-.0546 l-.0781,0 l0,-.0781 l-.0546,-.0554 l.0546,-.0554 l0,-.0781 l.0781,0 l.0554,-.0546 l.0554,.0546 l.0781,0 l0,.0781 l.0546,.0554 z" />
    <path class="sym" id="x103" d="m.1,.1 l.2,0 l0,.2 l-.2,0 z" />
    <path class="sym" id="x104" d="m.0835,.15 l.0664,0 l.0835,-.0835 l0,.2671 l-.0835,-.0835 l-.0664,0 z m.225,.05 c0,.0307 -.014,.0531 -.0421,.0671 l0,-.1343 c.0114,.0057 .0213,.0152 .0296,.0285 c.0083,.0132 .0125,.0261 .0125,.0386 z" />
    <path class="sym" id="x105" d="m.1335,.0835 l.1828,.1164 l-.1828,.1164 z" />
    <path class="sym" id="x106" d="m.1664,.3335 l-.0828,0 l0,-.1335 l-.05,0 l.1664,-.15 l.1664,.15 l-.05,0 l0,.1335 l-.0828,0 l0,-.1 l-.0671,0 z" />
    <path class="sym" id="x107" d="m.0336,.1456 l0,.2183 l.029,0 l0,-.0876 l.1036,0 l0,-.024 l-.1036,0 l0,-.0826 l.1146,0 l0,-.024 z m.2093,.2183 l.1383,0 l0,-.0239 l-.0533,0 l0,-.198 l-.008,0 l-.0773,.04 l0,.0296 l.0563,-.0293 l0,.1576 l-.056,0 z m.3456,-.0769 c0,-.0406 -.0296,-.0633 -.0643,-.0633 c-.019,0 -.0363,.0053 -.0526,.016 l.006,-.07 l.0983,0 l0,-.024 l-.123,0 l-.0083,.1143 l.001,.0016 l.0196,.003 c.0176,-.0116 .0356,-.0176 .0536,-.0176 c.0216,0 .0403,.0143 .0403,.0396 c0,.0286 -.019,.0463 -.08,.052 l-.0396,.0036 l.0026,.025 l.0386,-.0033 c.0783,-.0066 .1076,-.0349 .1076,-.0769 z" />
    <path class="sym" id="x108" d="m.0336,.1456 l0,.2183 l.029,0 l0,-.0876 l.1036,0 l0,-.024 l-.1036,0 l0,-.0826 l.1146,0 l0,-.024 z m.2093,.2183 l.1383,0 l0,-.0239 l-.0533,0 l0,-.198 l-.008,0 l-.0773,.04 l0,.0296 l.0563,-.0293 l0,.1576 l-.056,0 z m.252,0 l.0923,-.1943 l0,-.024 l-.1576,0 l0,.025 l.128,0 l0,.002 l-.097,.1906 l0,.0006 z" />
    <path class="sym" id="x109" d="m.1585,.2 l.1414,-.1 l0,.2 z m-.0585,-.1 l.0335,0 l0,.2 l-.0335,0 z" />
    <path class="sym" id="x110" d="m.2,.0664 l0,.0703 l-.0351,-.0351 z m-.1289,-.0164 l.2789,.2789 l-.021,.021 l-.0343,-.0343 c-.0171,.0145 -.0375,.0247 -.0609,.0304 l0,-.0343 c.013,-.0036 .0255,-.0101 .0375,-.0195 l-.071,-.071 l0,.1125 l-.0835,-.0835 l-.0664,0 l0,-.1 l.0789,0 l-.0789,-.0789 z m.2453,.15 c0,-.0265 -.0076,-.05 -.023,-.0703 c-.0153,-.0203 -.0352,-.0341 -.0597,-.0414 l0,-.0343 c.0338,.0072 .0617,.0246 .0835,.0519 c.0218,.0273 .0328,.0587 .0328,.0941 c0,.0244 -.0057,.0476 -.0171,.0695 l-.025,-.0257 c.0057,-.014 .0085,-.0286 .0085,-.0437 z m-.0414,0 c0,.0046 -.0002,.008 -.0007,.0101 l-.0406,-.0406 l0,-.0367 c.0114,.0057 .0212,.0151 .0292,.0281 c.008,.013 .0121,.026 .0121,.039 z" />
    <path class="sym" id="x111" d="m.2664,.1 l.0335,0 l0,.2 l-.0335,0 z m-.1664,.2 l0,-.2 l.1414,.1 z" />
    <path class="sym" id="x112" d="m.3164,.05 l-.2328,0 c-.0093,0 -.0173,.0032 -.0238,.0097 c-.0065,.0065 -.0097,.0144 -.0097,.0238 l0,.2328 c0,.0093 .0032,.0173 .0097,.0238 c.0065,.0065 .0144,.0097 .0238,.0097 l.2328,0 c.0093,0 .0173,-.0032 .0238,-.0097 c.0065,-.0065 .0097,-.0144 .0097,-.0238 l0,-.2328 c0,-.0093 -.0032,-.0173 -.0097,-.0238 c-.0065,-.0065 -.0144,-.0097 -.0238,-.0097 z m-.0992,.0679 l.0179,-.0179 l.0234,.0234 l.0234,-.0234 l.0171,.0179 l-.0234,.0234 l.0234,.0234 l-.0171,.0171 l-.0234,-.0226 l-.0234,.0234 l-.0179,-.0179 l.0234,-.0234 z m-.1132,.0109 l.0835,0 l0,.025 l-.0835,0 z m.0875,.1375 l-.0328,0 l0,.0335 l-.025,0 l0,-.0335 l-.0335,0 l0,-.025 l.0335,0 l0,-.0328 l.025,0 l0,.0328 l.0328,0 z m.1085,.021 l-.0835,0 l0,-.025 l.0835,0 z m0,-.0414 l-.0835,0 l0,-.025 l.0835,0 z" />
    <path class="sym" id="x113" d="m.0336,.1456 l0,.2183 l.029,0 l0,-.0876 l.1036,0 l0,-.024 l-.1036,0 l0,-.0826 l.1146,0 l0,-.024 z m.2093,.2183 l.1383,0 l0,-.0239 l-.0533,0 l0,-.198 l-.008,0 l-.0773,.04 l0,.0296 l.0563,-.0293 l0,.1576 l-.056,0 z m.347,-.0709 c0,-.0436 -.0286,-.071 -.0716,-.071 c-.0116,0 -.023,.0013 -.036,.0056 c.0083,-.013 .02,-.026 .0353,-.0396 l.0463,-.0416 l-.0003,-.0006 l-.0396,0 l-.0323,.0306 c-.041,.039 -.0563,.0673 -.0563,.112 c0,.0526 .0363,.0806 .0766,.0806 c.0453,0 .078,-.0313 .078,-.0759 z m-.1253,-.006 c0,-.0126 .002,-.0246 .0063,-.0366 c.0136,-.0043 .027,-.0063 .0406,-.0063 c.031,0 .0486,.0193 .0486,.0483 c0,.0306 -.0183,.053 -.0476,.053 c-.0273,0 -.048,-.022 -.048,-.0583 z" />
    <path class="sym" id="x114" d="m.0336,.1456 l0,.2183 l.029,0 l0,-.0876 l.1036,0 l0,-.024 l-.1036,0 l0,-.0826 l.1146,0 l0,-.024 z m.2093,.2183 l.1383,0 l0,-.0239 l-.0533,0 l0,-.198 l-.008,0 l-.0773,.04 l0,.0296 l.0563,-.0293 l0,.1576 l-.056,0 z m.269,.005 c.0443,0 .0773,-.0243 .0773,-.0633 c0,-.026 -.02,-.0463 -.049,-.054 l0,-.0016 c.0253,-.008 .0423,-.0266 .0423,-.05 c0,-.0363 -.029,-.0593 -.0696,-.0593 c-.0406,0 -.071,.0233 -.071,.06 c0,.0233 .017,.0416 .0426,.0493 l0,.0016 c-.0293,.008 -.0493,.0286 -.0493,.0546 c0,.0386 .033,.0626 .0766,.0626 z m.0006,-.1283 c-.0226,0 -.042,-.0153 -.042,-.0386 c0,-.024 .0176,-.0383 .0416,-.0383 c.0243,0 .0416,.0143 .0416,.0376 c0,.0233 -.019,.0393 -.0413,.0393 z m0,.1053 c-.028,0 -.0486,-.016 -.0486,-.041 c0,-.0256 .0216,-.0426 .0483,-.0426 c.0266,0 .0483,.0163 .0483,.042 c0,.026 -.0206,.0416 -.048,.0416 z" />
    <path class="sym" id="x115" d="m.0336,.1456 l0,.2183 l.029,0 l0,-.0876 l.1036,0 l0,-.024 l-.1036,0 l0,-.0826 l.1146,0 l0,-.024 z m.2093,.2183 l.1383,0 l0,-.0239 l-.0533,0 l0,-.198 l-.008,0 l-.0773,.04 l0,.0296 l.0563,-.0293 l0,.1576 l-.056,0 z" />
    <path class="sym" id="x116" d="m.0336,.1456 l0,.2183 l.029,0 l0,-.0876 l.1036,0 l0,-.024 l-.1036,0 l0,-.0826 l.1146,0 l0,-.024 z m.1996,.2183 l.1533,0 l0,-.0239 l-.1153,0 l0,-.001 l.054,-.0546 c.046,-.0466 .055,-.0603 .055,-.0846 c0,-.036 -.0273,-.059 -.0656,-.059 c-.029,0 -.0506,.01 -.086,.044 l.016,.0196 c.032,-.0303 .047,-.039 .0686,-.039 c.0243,0 .0373,.0143 .0373,.0353 c0,.0176 -.0063,.0283 -.047,.0703 l-.0703,.073 z" />
    <path class="sym" id="x117" d="m.0336,.1456 l0,.2183 l.029,0 l0,-.0876 l.1036,0 l0,-.024 l-.1036,0 l0,-.0826 l.1146,0 l0,-.024 z m.1966,.024 l.1046,0 l0,.001 l-.0683,.0756 l.0053,.0133 c.0103,-.0016 .0193,-.0026 .0293,-.0026 c.038,0 .0526,.0143 .0526,.036 c0,.025 -.0196,.0413 -.0786,.0456 l-.04,.003 l.0023,.0256 l.0396,-.0026 c.0766,-.0053 .1063,-.0326 .1063,-.072 c0,-.031 -.0206,-.058 -.0753,-.058 l0,-.0006 l.0653,-.07 l0,-.0183 l-.1433,0 z" />
    <path class="sym" id="x118" d="m.0336,.1456 l0,.2183 l.029,0 l0,-.0876 l.1036,0 l0,-.024 l-.1036,0 l0,-.0826 l.1146,0 l0,-.024 z m.189,.16 l.1053,0 l0,.0583 l.0283,0 l0,-.0583 l.0433,0 l0,-.0233 l-.0433,0 l0,-.1366 l-.039,0 l-.0946,.1393 z m.1076,-.14 l0,.1186 l-.0796,0 l0,-.0016 z" />
    <path class="sym" id="x119" d="m.0336,.1456 l0,.2183 l.029,0 l0,-.0876 l.1036,0 l0,-.024 l-.1036,0 l0,-.0826 l.1146,0 l0,-.024 z m.35,.1413 c0,-.0406 -.0296,-.0633 -.0643,-.0633 c-.019,0 -.0363,.0053 -.0526,.016 l.006,-.07 l.0983,0 l0,-.024 l-.123,0 l-.0083,.1143 l.001,.0016 l.0196,.003 c.0176,-.0116 .0356,-.0176 .0536,-.0176 c.0216,0 .0403,.0143 .0403,.0396 c0,.0286 -.019,.0463 -.08,.052 l-.0396,.0036 l.0026,.025 l.0386,-.0033 c.0783,-.0066 .1076,-.0349 .1076,-.0769 z" />
    <path class="sym" id="x120" d="m.0336,.1456 l0,.2183 l.029,0 l0,-.0876 l.1036,0 l0,-.024 l-.1036,0 l0,-.0826 l.1146,0 l0,-.024 z m.3513,.1473 c0,-.0436 -.0286,-.071 -.0716,-.071 c-.0116,0 -.023,.0013 -.036,.0056 c.0083,-.013 .02,-.026 .0353,-.0396 l.0463,-.0416 l-.0003,-.0006 l-.0396,0 l-.0323,.0306 c-.041,.039 -.0563,.0673 -.0563,.112 c0,.0526 .0363,.0806 .0766,.0806 c.0453,0 .078,-.0313 .078,-.0759 z m-.1253,-.006 c0,-.0126 .002,-.0246 .0063,-.0366 c.0136,-.0043 .027,-.0063 .0406,-.0063 c.031,0 .0486,.0193 .0486,.0483 c0,.0306 -.0183,.053 -.0476,.053 c-.0273,0 -.048,-.022 -.048,-.0583 z" />
    <path class="sym" id="x121" d="m.0336,.1456 l0,.2183 l.029,0 l0,-.0876 l.1036,0 l0,-.024 l-.1036,0 l0,-.0826 l.1146,0 l0,-.024 z m.2563,.2183 l.0923,-.1943 l0,-.024 l-.1576,0 l0,.025 l.128,0 l0,.002 l-.097,.1906 l0,.0006 z" />
    <path class="sym" id="x122" d="m.0336,.1456 l0,.2183 l.029,0 l0,-.0876 l.1036,0 l0,-.024 l-.1036,0 l0,-.0826 l.1146,0 l0,-.024 z m.2733,.2233 c.0443,0 .0773,-.0243 .0773,-.0633 c0,-.026 -.02,-.0463 -.049,-.054 l0,-.0016 c.0253,-.008 .0423,-.0266 .0423,-.05 c0,-.0363 -.029,-.0593 -.0696,-.0593 c-.0406,0 -.071,.0233 -.071,.06 c0,.0233 .017,.0416 .0426,.0493 l0,.0016 c-.0293,.008 -.0493,.0286 -.0493,.0546 c0,.0386 .033,.0626 .0766,.0626 z m.0006,-.1283 c-.0226,0 -.042,-.0153 -.042,-.0386 c0,-.024 .0176,-.0383 .0416,-.0383 c.0243,0 .0416,.0143 .0416,.0376 c0,.0233 -.019,.0393 -.0413,.0393 z m0,.1053 c-.028,0 -.0486,-.016 -.0486,-.041 c0,-.0256 .0216,-.0426 .0483,-.0426 c.0266,0 .0483,.0163 .0483,.042 c0,.026 -.0206,.0416 -.048,.0416 z" />
    <path class="sym" id="x123" d="m.0336,.1456 l0,.2183 l.029,0 l0,-.0876 l.1036,0 l0,-.024 l-.1036,0 l0,-.0826 l.1146,0 l0,-.024 z m.2946,.1876 c.04,-.038 .0566,-.0693 .0566,-.112 c0,-.0526 -.035,-.0806 -.075,-.0806 c-.0473,0 -.08,.0313 -.08,.076 c0,.0436 .0286,.071 .0716,.071 c.0116,0 .023,-.0016 .0363,-.006 c-.0083,.0133 -.02,.0263 -.0353,.04 l-.0466,.0416 l.0003,.0006 l.0396,0 z m.0273,-.1106 c0,.0126 -.002,.0246 -.0063,.0366 c-.014,.0043 -.0273,.0063 -.041,.0063 c-.0306,0 -.0486,-.0193 -.0486,-.0483 c0,-.0306 .0186,-.053 .0476,-.053 c.0273,0 .0483,.022 .0483,.0583 z" />
    <path class="sym" id="x124" d="m.0336,.1456 l0,.2183 l.029,0 l0,-.0876 l.1036,0 l0,-.024 l-.1036,0 l0,-.0826 l.1146,0 l0,-.024 z m.2093,.2183 l.1383,0 l0,-.0239 l-.0533,0 l0,-.198 l-.008,0 l-.0773,.04 l0,.0296 l.0563,-.0293 l0,.1576 l-.056,0 z m.3493,-.1096 c0,-.0743 -.0303,-.1136 -.0796,-.1136 c-.0493,0 -.0803,.0403 -.0803,.115 c0,.075 .0303,.1133 .0796,.1133 c.0493,0 .0803,-.0393 .0803,-.1146 z m-.1316,.0006 c0,-.0616 .0183,-.0896 .0516,-.0896 c.0226,0 .0386,.0133 .0463,.042 l-.0966,.0746 c-.001,-.0083 -.0013,-.017 -.0013,-.027 z m.1033,0 c0,.0613 -.0186,.0893 -.0516,.0893 c-.0223,0 -.0383,-.013 -.0463,-.041 l.0966,-.0746 c.001,.008 .0013,.0166 .0013,.0263 z" />
    <path class="sym" id="x125" d="m.0911,.1899 c.0125,0 .0241,.0022 .0486,.018 l.0111,-.0175 c-.0266,-.0175 -.0433,-.0208 -.06,-.0208 c-.0402,0 -.0713,.0294 -.0713,.0677 c0,.0436 .0286,.0697 .068,.0697 c.0194,0 .0366,-.0044 .0638,-.0202 l-.0102,-.0166 c-.0244,.0136 -.0386,.0166 -.0525,.0166 c-.0255,0 -.0444,-.0197 -.0444,-.0491 c0,-.028 .0191,-.0477 .0469,-.0477 z m.2157,.0805 l0,-.0566 c0,-.0294 -.0133,-.0422 -.0563,-.0422 c-.0119,0 -.0297,.0016 -.0491,.005 l.0025,.0191 c.0183,-.003 .0355,-.0047 .0458,-.0047 c.0275,0 .0338,.0058 .0338,.0222 l0,.0097 l-.048,.0055 c-.0344,.0038 -.0458,.015 -.0458,.0397 c0,.0236 .0161,.0366 .0391,.0366 c.02,0 .0366,-.0069 .053,-.0202 l.0025,0 c.0036,.0127 .0127,.018 .0316,.0188 l.013,.0005 l.0016,-.0183 l-.0125,-.0008 c-.0094,-.0008 -.0113,-.0036 -.0113,-.0144 z m-.0727,.0158 c-.0144,0 -.0208,-.0072 -.0208,-.0197 c0,-.0113 .0041,-.0191 .0263,-.0222 l.0438,-.0058 l0,.0263 c-.0225,.0166 -.0352,.0213 -.0494,.0213 z m.1335,.0805 l.0238,0 l0,-.0791 c.0152,.0138 .0286,.0172 .0411,.0172 c.0358,0 .0636,-.028 .0636,-.068 c0,-.04 -.0261,-.0655 -.0572,-.0655 c-.0183,0 -.0322,.0066 -.0488,.025 l-.0022,-.0225 l-.0202,0 z m.0644,-.1758 c.0216,0 .0397,.018 .0397,.0463 c0,.0266 -.0161,.0477 -.0447,.0477 c-.0088,0 -.0205,-.0027 -.0355,-.0163 l0,-.0555 c.0172,-.0175 .0286,-.0222 .0405,-.0222 z m.226,.0758 c0,-.0191 -.0072,-.0294 -.0427,-.0377 l-.0238,-.0055 c-.0208,-.0052 -.0244,-.01 -.0244,-.0183 c0,-.0088 .0077,-.0155 .0375,-.0155 c.0113,0 .0275,.0019 .045,.0058 l.0033,-.0202 c-.0163,-.003 -.0358,-.005 -.048,-.005 c-.0447,0 -.0622,.0155 -.0622,.0369 c0,.018 .0069,.0283 .0425,.0369 l.0241,.0055 c.0202,.005 .0247,.01 .0247,.0188 c0,.0105 -.0094,.0183 -.04,.0183 c-.0119,0 -.0311,-.0019 -.0511,-.0061 l-.0036,.0202 c.0211,.0041 .038,.0055 .0544,.0055 c.0452,0 .0644,-.0175 .0644,-.0397 z m-.2723,.2291 l0,-.028 c0,-.0117 -.0042,-.0218 -.0127,-.0302 c-.0084,-.0084 -.0185,-.0127 -.0302,-.0127 c-.0117,0 -.0217,.0042 -.0302,.0127 c-.0084,.0084 -.0126,.0185 -.0126,.0302 l0,.028 z m-.0625,.1165 c.0056,.0056 .0121,.0084 .0195,.0084 c.0073,0 .0138,-.0028 .0195,-.0084 c.0056,-.0056 .0084,-.0121 .0084,-.0195 c0,-.0073 -.0028,-.0138 -.0084,-.0195 c-.0056,-.0056 -.0121,-.0084 -.0195,-.0084 c-.0073,0 -.0138,.0028 -.0195,.0084 c-.0056,.0056 -.0084,.0121 -.0084,.0195 c0,.0073 .0028,.0138 .0084,.0195 z m.1028,-.1165 c.0073,0 .0138,.0027 .0195,.0081 c.0056,.0054 .0084,.0118 .0084,.0192 l0,.1393 c0,.0073 -.0028,.0137 -.0084,.0192 c-.0056,.0054 -.0121,.0081 -.0195,.0081 l-.1666,0 c-.0073,0 -.0138,-.0027 -.0195,-.0081 c-.0056,-.0054 -.0084,-.0118 -.0084,-.0192 l0,-.1393 c0,-.0073 .0028,-.0137 .0084,-.0192 c.0056,-.0054 .0121,-.0081 .0195,-.0081 l.0136,0 l0,-.028 c0,-.019 .0068,-.0354 .0205,-.0491 c.0136,-.0136 .03,-.0205 .0491,-.0205 c.0191,0 .0354,.0068 .0491,.0205 c.0136,.0136 .0205,.03 .0205,.0491 l0,.028 z" />
    <path class="sym" id="x126" d="m.1115,.3669 l.0238,0 l0,-.0791 c.0152,.0138 .0286,.0172 .0411,.0172 c.0358,0 .0636,-.028 .0636,-.068 c0,-.04 -.0261,-.0655 -.0572,-.0655 c-.0183,0 -.0322,.0066 -.0488,.025 l-.0022,-.0225 l-.0202,0 z m.0644,-.1758 c.0216,0 .0397,.018 .0397,.0463 c0,.0266 -.0161,.0477 -.0447,.0477 c-.0088,0 -.0205,-.0027 -.0355,-.0163 l0,-.0555 c.0172,-.0175 .0286,-.0222 .0405,-.0222 z m.0951,.0919 l0,.02 l.0988,0 l0,-.02 l-.0413,0 l0,-.043 c.0308,-.0372 .035,-.0397 .058,-.0413 l.0263,-.0022 l-.0016,-.0236 l-.0272,.0016 c-.0194,.0013 -.0297,.0061 -.0566,.0444 l-.0013,-.045 l-.0494,0 l0,.02 l.0283,0 l0,.0891 z m.2429,-.1475 c.0127,0 .0208,-.0063 .0208,-.0172 c0,-.0116 -.0069,-.018 -.0202,-.018 c-.013,0 -.0208,.0075 -.0208,.0175 c0,.0116 .0083,.0177 .0202,.0177 z m-.0544,.1475 l0,.02 l.1158,0 l0,-.02 l-.0461,0 l0,-.1091 l-.0641,0 l0,.02 l.0402,0 l0,.0891 z m.186,-.1091 l-.0202,0 l0,.1291 l.0238,0 l0,-.0794 c.0244,-.023 .0363,-.03 .0488,-.03 c.0155,0 .0219,.0077 .0219,.0236 l0,.0858 l.0238,0 l0,-.09 c0,-.0252 -.0127,-.0411 -.0391,-.0411 c-.018,0 -.0325,.0077 -.0566,.0308 z m.1851,.08 c0,.0363 .01,.0475 .0438,.0491 l.043,.0019 l.0016,-.0202 l-.0391,-.0022 c-.02,-.0011 -.0258,-.0077 -.0258,-.0319 l0,-.0566 l.0572,0 l0,-.02 l-.0575,0 l0,-.048 l-.023,0 l0,.048 l-.0438,0 l0,.02 l.0436,0 z m-.6858,.397 c0,-.0191 -.0072,-.0294 -.0427,-.0377 l-.0238,-.0055 c-.0208,-.0052 -.0244,-.01 -.0244,-.0183 c0,-.0088 .0077,-.0155 .0375,-.0155 c.0113,0 .0275,.0019 .045,.0058 l.0033,-.0202 c-.0163,-.003 -.0358,-.005 -.048,-.005 c-.0447,0 -.0622,.0155 -.0622,.0369 c0,.018 .0069,.0283 .0425,.0369 l.0241,.0055 c.0202,.005 .0247,.01 .0247,.0188 c0,.0105 -.0094,.0183 -.04,.0183 c-.0119,0 -.0311,-.0019 -.0511,-.0061 l-.0036,.0202 c.0211,.0041 .038,.0055 .0544,.0055 c.0452,0 .0644,-.0175 .0644,-.0397 z m.1171,-.0769 c.0125,0 .0241,.0022 .0486,.018 l.0111,-.0175 c-.0266,-.0175 -.0433,-.0208 -.06,-.0208 c-.0402,0 -.0713,.0294 -.0713,.0677 c0,.0436 .0286,.0697 .068,.0697 c.0194,0 .0366,-.0044 .0638,-.0202 l-.0102,-.0166 c-.0244,.0136 -.0386,.0166 -.0525,.0166 c-.0255,0 -.0444,-.0197 -.0444,-.0491 c0,-.028 .0191,-.0477 .0469,-.0477 z m.094,.093 l0,.02 l.0988,0 l0,-.02 l-.0413,0 l0,-.043 c.0308,-.0372 .035,-.0397 .058,-.0413 l.0263,-.0022 l-.0016,-.0236 l-.0272,.0016 c-.0194,.0013 -.0297,.0061 -.0566,.0444 l-.0013,-.045 l-.0494,0 l0,.02 l.0283,0 l0,.0891 z m.256,.0025 c-.0358,-.0011 -.0522,-.0127 -.0547,-.0386 l.1047,0 c.0005,-.0025 .0008,-.0058 .0008,-.01 c0,-.0441 -.0244,-.0672 -.0619,-.0672 c-.0388,0 -.0672,.0297 -.0672,.0708 c0,.04 .0213,.063 .0713,.0638 l.0327,.0005 l.0008,-.0186 z m-.0111,-.0969 c.0216,0 .0363,.0122 .0383,.0405 l-.0813,0 c.0036,-.0261 .0213,-.0405 .043,-.0405 z m.1821,.0969 c-.0358,-.0011 -.0522,-.0127 -.0547,-.0386 l.1047,0 c.0005,-.0025 .0008,-.0058 .0008,-.01 c0,-.0441 -.0244,-.0672 -.0619,-.0672 c-.0388,0 -.0672,.0297 -.0672,.0708 c0,.04 .0213,.063 .0713,.0638 l.0327,.0005 l.0008,-.0186 z m-.0111,-.0969 c.0216,0 .0363,.0122 .0383,.0405 l-.0813,0 c.0036,-.0261 .0213,-.0405 .043,-.0405 z m.1296,-.0147 l-.0202,0 l0,.1291 l.0238,0 l0,-.0794 c.0244,-.023 .0363,-.03 .0488,-.03 c.0155,0 .0219,.0077 .0219,.0236 l0,.0858 l.0238,0 l0,-.09 c0,-.0252 -.0127,-.0411 -.0391,-.0411 c-.018,0 -.0325,.0077 -.0566,.0308 z" />
    <path class="sym" id="x127" d="m.0336,.1456 l0,.2183 l.029,0 l0,-.0876 l.1036,0 l0,-.024 l-.1036,0 l0,-.0826 l.1146,0 l0,-.024 z m.2093,.2183 l.1383,0 l0,-.0239 l-.0533,0 l0,-.198 l-.008,0 l-.0773,.04 l0,.0296 l.0563,-.0293 l0,.1576 l-.056,0 z m.205,0 l.1383,0 l0,-.0239 l-.0533,0 l0,-.198 l-.008,0 l-.0773,.04 l0,.0296 l.0563,-.0293 l0,.1576 l-.056,0 z" />
    <path class="sym" id="x128" d="m.145,.2668 c0,-.0191 -.0072,-.0294 -.0427,-.0377 l-.0238,-.0055 c-.0208,-.0052 -.0244,-.01 -.0244,-.0183 c0,-.0088 .0077,-.0155 .0375,-.0155 c.0113,0 .0275,.0019 .045,.0058 l.0033,-.0202 c-.0163,-.003 -.0358,-.005 -.048,-.005 c-.0447,0 -.0622,.0155 -.0622,.0369 c0,.018 .0069,.0283 .0425,.0369 l.0241,.0055 c.0202,.005 .0247,.01 .0247,.0188 c0,.0105 -.0094,.0183 -.04,.0183 c-.0119,0 -.0311,-.0019 -.0511,-.0061 l-.0036,.0202 c.0211,.0041 .038,.0055 .0544,.0055 c.0452,0 .0644,-.0175 .0644,-.0397 z m.1171,-.0769 c.0125,0 .0241,.0022 .0486,.018 l.0111,-.0175 c-.0266,-.0175 -.0433,-.0208 -.06,-.0208 c-.0402,0 -.0713,.0294 -.0713,.0677 c0,.0436 .0286,.0697 .068,.0697 c.0194,0 .0366,-.0044 .0638,-.0202 l-.0102,-.0166 c-.0244,.0136 -.0386,.0166 -.0525,.0166 c-.0255,0 -.0444,-.0197 -.0444,-.0491 c0,-.028 .0191,-.0477 .0469,-.0477 z m.094,.093 l0,.02 l.0988,0 l0,-.02 l-.0413,0 l0,-.043 c.0308,-.0372 .035,-.0397 .058,-.0413 l.0263,-.0022 l-.0016,-.0236 l-.0272,.0016 c-.0194,.0013 -.0297,.0061 -.0566,.0444 l-.0013,-.045 l-.0494,0 l0,.02 l.0283,0 l0,.0891 z m.2415,.0241 c.04,0 .068,-.0277 .068,-.0683 c0,-.0411 -.0277,-.0691 -.0669,-.0691 c-.04,0 -.068,.0286 -.068,.0683 c0,.0416 .0277,.0691 .0669,.0691 z m.0005,-.02 c-.0258,0 -.0433,-.0183 -.0433,-.0488 c0,-.0302 .0177,-.0488 .0433,-.0488 c.0258,0 .0433,.0197 .0433,.0491 c0,.0311 -.0175,.0486 -.0433,.0486 z m.1529,-.03 c0,.0327 .0113,.0438 .045,.0458 l.033,.0019 l.0013,-.0205 l-.0302,-.0019 c-.0183,-.0008 -.0255,-.0077 -.0255,-.0277 l0,-.1488 l-.0744,0 l0,.02 l.0508,0 z m.171,0 c0,.0327 .0113,.0438 .045,.0458 l.033,.0019 l.0013,-.0205 l-.0302,-.0019 c-.0183,-.0008 -.0255,-.0077 -.0255,-.0277 l0,-.1488 l-.0744,0 l0,.02 l.0508,0 z m-.3655,.2388 l0,-.028 c0,-.0117 -.0042,-.0218 -.0127,-.0302 c-.0084,-.0084 -.0185,-.0127 -.0302,-.0127 c-.0117,0 -.0217,.0042 -.0302,.0127 c-.0084,.0084 -.0126,.0185 -.0126,.0302 l0,.028 z m-.0625,.1165 c.0056,.0056 .0121,.0084 .0195,.0084 c.0073,0 .0138,-.0028 .0195,-.0084 c.0056,-.0056 .0084,-.0121 .0084,-.0195 c0,-.0073 -.0028,-.0138 -.0084,-.0195 c-.0056,-.0056 -.0121,-.0084 -.0195,-.0084 c-.0073,0 -.0138,.0028 -.0195,.0084 c-.0056,.0056 -.0084,.0121 -.0084,.0195 c0,.0073 .0028,.0138 .0084,.0195 z m.1028,-.1165 c.0073,0 .0138,.0027 .0195,.0081 c.0056,.0054 .0084,.0118 .0084,.0192 l0,.1393 c0,.0073 -.0028,.0137 -.0084,.0192 c-.0056,.0054 -.0121,.0081 -.0195,.0081 l-.1666,0 c-.0073,0 -.0138,-.0027 -.0195,-.0081 c-.0056,-.0054 -.0084,-.0118 -.0084,-.0192 l0,-.1393 c0,-.0073 .0028,-.0137 .0084,-.0192 c.0056,-.0054 .0121,-.0081 .0195,-.0081 l.0136,0 l0,-.028 c0,-.019 .0068,-.0354 .0205,-.0491 c.0136,-.0136 .03,-.0205 .0491,-.0205 c.0191,0 .0354,.0068 .0491,.0205 c.0136,.0136 .0205,.03 .0205,.0491 l0,.028 z" />
    <path class="sym" id="x129" d="m.0494,.1057 l-.0238,0 l0,.1975 l.0069,0 l.0119,-.0086 c.0127,.0072 .0261,.0105 .04,.0105 c.0416,0 .0697,-.0305 .0697,-.0686 c0,-.04 -.0258,-.0655 -.0575,-.0655 c-.0175,0 -.0311,.0061 -.0472,.0227 z m.0405,.0852 c.0216,0 .0397,.0177 .0397,.0463 c0,.0244 -.0166,.0477 -.0486,.0477 c-.01,0 -.0202,-.003 -.0316,-.0105 l0,-.0616 c.0172,-.0172 .0286,-.0219 .0405,-.0219 z m.0951,.0919 l0,.02 l.0988,0 l0,-.02 l-.0413,0 l0,-.043 c.0308,-.0372 .035,-.0397 .058,-.0413 l.0263,-.0022 l-.0016,-.0236 l-.0272,.0016 c-.0194,.0013 -.0297,.0061 -.0566,.0444 l-.0013,-.045 l-.0494,0 l0,.02 l.0283,0 l0,.0891 z m.256,.0025 c-.0358,-.0011 -.0522,-.0127 -.0547,-.0386 l.1047,0 c.0005,-.0025 .0008,-.0058 .0008,-.01 c0,-.0441 -.0244,-.0672 -.0619,-.0672 c-.0388,0 -.0672,.0297 -.0672,.0708 c0,.04 .0213,.063 .0713,.0638 l.0327,.0005 l.0008,-.0186 z m-.0111,-.0969 c.0216,0 .0363,.0122 .0383,.0405 l-.0813,0 c.0036,-.0261 .0213,-.0405 .043,-.0405 z m.2187,.0819 l0,-.0566 c0,-.0294 -.0133,-.0422 -.0563,-.0422 c-.0119,0 -.0297,.0016 -.0491,.005 l.0025,.0191 c.0183,-.003 .0355,-.0047 .0458,-.0047 c.0275,0 .0338,.0058 .0338,.0222 l0,.0097 l-.048,.0055 c-.0344,.0038 -.0458,.015 -.0458,.0397 c0,.0236 .0161,.0366 .0391,.0366 c.02,0 .0366,-.0069 .053,-.0202 l.0025,0 c.0036,.0127 .0127,.018 .0316,.0188 l.013,.0005 l.0016,-.0183 l-.0125,-.0008 c-.0094,-.0008 -.0113,-.0036 -.0113,-.0144 z m-.0727,.0158 c-.0144,0 -.0208,-.0072 -.0208,-.0197 c0,-.0113 .0041,-.0191 .0263,-.0222 l.0438,-.0058 l0,.0263 c-.0225,.0166 -.0352,.0213 -.0494,.0213 z m.1623,-.1805 l-.0236,0 l0,.1972 l.0236,0 l0,-.0636 l.0675,.0636 l.0319,0 l0,-.0005 l-.0736,-.0675 l.0733,-.0605 l0,-.0005 l-.0305,0 l-.0686,.0577 z" />
    <path class="sym" id="x130" d="m.0336,.1456 l0,.2183 l.029,0 l0,-.0876 l.1036,0 l0,-.024 l-.1036,0 l0,-.0826 l.1146,0 l0,-.024 z m.2093,.2183 l.1383,0 l0,-.0239 l-.0533,0 l0,-.198 l-.008,0 l-.0773,.04 l0,.0296 l.0563,-.0293 l0,.1576 l-.056,0 z m.1953,0 l.1533,0 l0,-.0239 l-.1153,0 l0,-.001 l.054,-.0546 c.046,-.0466 .055,-.0603 .055,-.0846 c0,-.036 -.0273,-.059 -.0656,-.059 c-.029,0 -.0506,.01 -.086,.044 l.016,.0196 c.032,-.0303 .047,-.039 .0686,-.039 c.0243,0 .0373,.0143 .0373,.0353 c0,.0176 -.0063,.0283 -.047,.0703 l-.0703,.073 z" />
    <path class="sym" id="x131" d="m.0276,.2774 l.2434,0 l0,.0325 l-.2434,0 z m0,-.105 l.2434,0 l0,.0325 l-.2434,0 z m0,-.1054 l.2434,0 l0,.0325 l-.2434,0 z" />
  </defs>
  <style>
use .base { fill: inherit; }

.sym { fill: #000000; }
.key { fill: #eeeeee; }
.held { fill: #999999; }
.shade { fill: black; fill-opacity: 0.1; }
.arrow { fill: none; stroke: black; stroke-width:.02; }
.arrow.head { fill: black; }

@media (prefers-color-scheme: dark){
    .sym { fill: #cccccc; }
    .key { fill: #333333; }
    .held { fill: #555555; }
    .shade { fill: black; fill-opacity: 0.25; }
    .arrow { stroke: #cccccc; }
    .arrow.head { fill: #cccccc; }
}
</style>
  <g transform="translate(0.0 0.0)">
    <use class="key" href="#1u" x="-5.8" y="0" />
    <use class="key" href="#1u" x="-4.8" y="0" />
    <use class="key" href="#1u" x="-3.8" y="0" />
    <use class="key" href="#1u" x="-2.8" y="0" />
    <use class="key" href="#1u" x="-1.8" y="0" />
    <use class="key" href="#1u" x="1.8" y="0" />
    <use class="key" href="#1u" x="2.8" y="0" />
    <use class="key" href="#1u" x="3.8" y="0" />
    <use class="key" href="#1u" x="4.8" y="0" />
    <use class="key" href="#1u" x="5.8" y="0" />
    <use class="key" href="#1u" x="-5.8" y="1" />
    <use class="key" href="#1u" x="-4.8" y="1" />
    <use class="key" href="#1u" x="-3.8" y="1" />
    <use class="key" href="#1u_" x="-2.8" y="1" />
    <use class="key" href="#1u" x="-1.8" y="1" />
    <use class="key" href="#1u" x="-0.7" y="0.5" />
    <use class="key" href="#1u" x="0.7" y="0.5" />
    <use class="key" href="#1u" x="1.8" y="1" />
    <use class="key" href="#1u_" x="2.8" y="1" />
    <use class="key" href="#1u" x="3.8" y="1" />
    <use class="key" href="#1u" x="4.8" y="1" />
    <use class="key" href="#1u" x="5.8" y="1" />
    <use class="key" href="#1u" x="-5.8" y="2" />
    <use class="key" href="#1u" x="-4.8" y="2" />
    <use class="key" href="#1u" x="-3.8" y="2" />
    <use class="key" href="#1u" x="-2.8" y="2" />
    <use class="key" href="#1u" x="-1.8" y="2" />
    <use class="key" href="#1u" x="-0.7" y="1.5" />
    <use class="key" href="#1u" x="0.7" y="1.5" />
    <use class="key" href="#1u" x="1.8" y="2" />
    <use class="key" href="#1u" x="2.8" y="2" />
    <use class="key" href="#1u" x="3.8" y="2" />
    <use class="key" href="#1u" x="4.8" y="2" />
    <use class="key" href="#1u" x="5.8" y="2" />
    <use class="key" href="#1u" x="-3.3" y="3.1" />
    <use class="key" href="#1u_" x="-2.3" y="3.1" />
    <use class="key" href="#1u" x="-1.3" y="3.1" />
    <use class="key" href="#1u" x="1.3" y="3.1" />
    <use class="key" href="#1u_" x="2.3" y="3.1" />
    <use class="key" href="#1u" x="3.3" y="3.1" />
    <use href="#x0" transform="translate(-5.4025 0.2695)" />
    <use href="#x1" transform="translate(-4.4025 0.2695)" />
    <use href="#x2" transform="translate(-3.4025 0.2695)" />
    <use href="#x3" transform="translate(-2.4025 0.2695)" />
    <use href="#x4" transform="translate(-1.4025 0.2695)" />
    <use href="#x5" transform="translate(2.1975 0.2695)" />
    <use href="#x6" transform="translate(3.1975 0.2695)" />
    <use href="#x7" transform="translate(4.1975 0.2695)" />
    <use href="#x8" transform="translate(5.1975 0.2695)" />
    <use href="#x9" transform="translate(6.21106 0.1) scale(0.867679)" />
    <use href="#x10" transform="translate(6.21106 0.5) scale(0.867679)" />
    <use href="#x11" transform="translate(-5.4025 1.2695)" />
    <use href="#x12" transform="translate(-5.1778 1.60709) scale(0.944882)" />
    <use href="#x13" transform="translate(-4.4025 1.2695)" />
    <use href="#x14" transform="translate(-4.15796 1.62623) scale(0.718563)" />
    <use href="#x15" transform="translate(-3.4025 1.2695)" />
    <use href="#x16" transform="translate(-3.187 1.6505)" />
    <use href="#x17" transform="translate(-2.4025 1.2695)" />
    <use href="#x18" transform="translate(-2.15333 1.60476) scale(0.952381)" />
    <use href="#x19" transform="translate(-1.4025 1.2695)" />
    <use href="#x20" transform="translate(-0.6 0.850292) scale(0.779727)" />
    <use href="#x21" transform="translate(1.0975 0.7695)" />
    <use href="#x22" transform="translate(2.1975 1.2695)" />
    <use href="#x23" transform="translate(3.1975 1.2695)" />
    <use href="#x18" transform="translate(3.44667 1.60476) scale(0.952381)" />
    <use href="#x24" transform="translate(4.1975 1.2695)" />
    <use href="#x16" transform="translate(4.413 1.6505)" />
    <use href="#x25" transform="translate(5.1975 1.2695)" />
    <use href="#x14" transform="translate(5.44204 1.62623) scale(0.718563)" />
    <use href="#x26" transform="translate(6.1975 1.2695)" />
    <use href="#x12" transform="translate(6.4222 1.60709) scale(0.944882)" />
    <use href="#x27" transform="translate(-5.4025 2.2695)" />
    <use href="#x28" transform="translate(-4.4025 2.2695)" />
    <use href="#x29" transform="translate(-3.4025 2.2695)" />
    <use href="#x30" transform="translate(-2.4025 2.2695)" />
    <use href="#x31" transform="translate(-1.4025 2.2695)" />
    <use href="#x32" transform="translate(-0.4 1.8)" />
    <use href="#x33" transform="translate(1.0975 1.7695)" />
    <use href="#x34" transform="translate(2.1975 2.2695)" />
    <use href="#x35" transform="translate(3.1975 2.2695)" />
    <use href="#x36" transform="translate(4.21106 2.1) scale(0.867679)" />
    <use href="#x37" transform="translate(4.21106 2.5) scale(0.867679)" />
    <use href="#x38" transform="translate(5.21106 2.1) scale(0.867679)" />
    <use href="#x39" transform="translate(5.21106 2.5) scale(0.867679)" />
    <use href="#x40" transform="translate(6.21106 2.1) scale(0.867679)" />
    <use href="#x41" transform="translate(6.21106 2.5) scale(0.867679)" />
    <use href="#x42" transform="translate(-3.0565 3.408)" />
    <use href="#x43" transform="translate(-1.9275 3.351)" />
    <use href="#x44" transform="translate(-0.9395 3.4055)" />
    <use href="#x45" transform="translate(1.6605 3.4055)" />
    <use href="#x46" transform="translate(2.6035 3.438)" />
    <use href="#x47" transform="translate(3.6035 3.438)" />
  </g>
  <g transform="translate(13.6 0.0)">
    <use class="key" href="#1u" x="-5.8" y="0" />
    <use class="key" href="#1u" x="-4.8" y="0" />
    <use class="key" href="#1u" x="-3.8" y="0" />
    <use class="key" href="#1u" x="-2.8" y="0" />
    <use class="key" href="#1u" x="-1.8" y="0" />
    <use class="key" href="#1u" x="1.8" y="0" />
    <use class="key" href="#1u" x="2.8" y="0" />
    <use class="key" href="#1u" x="3.8" y="0" />
    <use class="key" href="#1u" x="4.8" y="0" />
    <use class="key" href="#1u" x="5.8" y="0" />
    <use class="key" href="#1u" x="-5.8" y="1" />
    <use class="key" href="#1u" x="-4.8" y="1" />
    <use class="key" href="#1u" x="-3.8" y="1" />
    <use class="key" href="#1u_" x="-2.8" y="1" />
    <use class="key" href="#1u" x="-1.8" y="1" />
    <use class="key" href="#1u" x="-0.7" y="0.5" />
    <use class="key" href="#1u" x="0.7" y="0.5" />
    <use class="key" href="#1u" x="1.8" y="1" />
    <use class="key" href="#1u_" x="2.8" y="1" />
    <use class="key" href="#1u" x="3.8" y="1" />
    <use class="key" href="#1u" x="4.8" y="1" />
    <use class="key" href="#1u" x="5.8" y="1" />
    <use class="key" href="#1u" x="-5.8" y="2" />
    <use class="key" href="#1u" x="-4.8" y="2" />
    <use class="key" href="#1u" x="-3.8" y="2" />
    <use class="key" href="#1u" x="-2.8" y="2" />
    <use class="key" href="#1u" x="-1.8" y="2" />
    <use class="key" href="#1u" x="-0.7" y="1.5" />
    <use class="key" href="#1u" x="0.7" y="1.5" />
    <use class="key" href="#1u" x="1.8" y="2" />
    <use class="key" href="#1u" x="2.8" y="2" />
    <use class="key" href="#1u" x="3.8" y="2" />
    <use class="key" href="#1u" x="4.8" y="2" />
    <use class="key" href="#1u" x="5.8" y="2" />
    <use class="key" href="#1u" x="-3.3" y="3.1" />
    <use class="key" href="#1u_" x="-2.3" y="3.1" />
    <use class="key" href="#1u" x="-1.3" y="3.1" />
    <use class="key" href="#1u" x="1.3" y="3.1" />
    <use class="held" href="#1u_" x="2.3" y="3.1" />
    <use class="key" href="#1u" x="3.3" y="3.1" />
    <use href="#x48" transform="translate(-5.4025 0.2695)" />
    <use href="#x49" transform="translate(-4.4025 0.2695)" />
    <use href="#x50" transform="translate(-3.4025 0.2695)" />
    <use href="#x51" transform="translate(-2.4025 0.2695)" />
    <use href="#x52" transform="translate(-1.4025 0.2695)" />
    <use href="#x53" transform="translate(6.1975 0.2695)" />
    <use href="#x54" transform="translate(-5.4025 1.2695)" />
    <use href="#x55" transform="translate(-4.4025 1.2695)" />
    <use href="#x56" transform="translate(-3.4025 1.2695)" />
    <use href="#x57" transform="translate(-2.4025 1.2695)" />
    <use href="#x58" transform="translate(-1.4025 1.2695)" />
    <use href="#x18" transform="translate(3.16 1.316)" />
    <use href="#x16" transform="translate(4.133 1.3705)" />
    <use href="#x14" transform="translate(5.108 1.286)" />
    <use href="#x12" transform="translate(6.133 1.317)" />
    <use href="#x59" transform="translate(-5.4025 2.2695)" />
    <use href="#x60" transform="translate(-3.4025 2.2695)" />
    <use href="#x61" transform="translate(-2.4025 2.2695)" />
    <use href="#x62" transform="translate(-1.4025 2.2695)" />
    <use href="#x63" transform="translate(4.1975 2.2695)" />
    <use href="#x64" transform="translate(5.1975 2.2695)" />
    <use href="#x65" transform="translate(6.1975 2.2695)" />
    <use href="#x66" transform="translate(-2.9025 3.3695)" />
    <use href="#x67" transform="translate(-1.9025 3.3695)" />
    <use href="#x33" transform="translate(-0.9025 3.3695)" />
  </g>
  <g transform="translate(0.0 5.1)">
    <use class="key" href="#1u" x="-5.8" y="0" />
    <use class="key" href="#1u" x="-4.8" y="0" />
    <use class="key" href="#1u" x="-3.8" y="0" />
    <use class="key" href="#1u" x="-2.8" y="0" />
    <use class="key" href="#1u" x="-1.8" y="0" />
    <use class="key" href="#1u" x="1.8" y="0" />
    <use class="key" href="#1u" x="2.8" y="0" />
    <use class="key" href="#1u" x="3.8" y="0" />
    <use class="key" href="#1u" x="4.8" y="0" />
    <use class="key" href="#1u" x="5.8" y="0" />
    <use class="key" href="#1u" x="-5.8" y="1" />
    <use class="key" href="#1u" x="-4.8" y="1" />
    <use class="key" href="#1u" x="-3.8" y="1" />
    <use class="key" href="#1u_" x="-2.8" y="1" />
    <use class="key" href="#1u" x="-1.8" y="1" />
    <use class="key" href="#1u" x="-0.7" y="0.5" />
    <use class="key" href="#1u" x="0.7" y="0.5" />
    <use class="key" href="#1u" x="1.8" y="1" />
    <use class="key" href="#1u_" x="2.8" y="1" />
    <use class="key" href="#1u" x="3.8" y="1" />
    <use class="key" href="#1u" x="4.8" y="1" />
    <use class="key" href="#1u" x="5.8" y="1" />
    <use class="key" href="#1u" x="-5.8" y="2" />
    <use class="key" href="#1u" x="-4.8" y="2" />
    <use class="key" href="#1u" x="-3.8" y="2" />
    <use class="key" href="#1u" x="-2.8" y="2" />
    <use class="key" href="#1u" x="-1.8" y="2" />
    <use class="key" href="#1u" x="-0.7" y="1.5" />
    <use class="key" href="#1u" x="0.7" y="1.5" />
    <use class="key" href="#1u" x="1.8" y="2" />
    <use class="key" href="#1u" x="2.8" y="2" />
    <use class="key" href="#1u" x="3.8" y="2" />
    <use class="key" href="#1u" x="4.8" y="2" />
    <use class="key" href="#1u" x="5.8" y="2" />
    <use class="key" href="#1u" x="-3.3" y="3.1" />
    <use class="held" href="#1u_" x="-2.3" y="3.1" />
    <use class="key" href="#1u" x="-1.3" y="3.1" />
    <use class="key" href="#1u" x="1.3" y="3.1" />
    <use class="key" href="#1u_" x="2.3" y="3.1" />
    <use class="key" href="#1u" x="3.3" y="3.1" />
    <use href="#x68" transform="translate(-5.6165 0.267)" />
    <use href="#x69" transform="translate(-4.4395 0.3055)" />
    <use href="#x70" transform="translate(-3.4395 0.3055)" />
    <use href="#x71" transform="translate(-2.4395 0.3055)" />
    <use href="#x72" transform="translate(-1.5 0.3)" />
    <use href="#x9" transform="translate(6.1975 0.2695)" />
    <use href="#x73" transform="translate(-5.6165 1.267)" />
    <use href="#x74" transform="translate(-4.4395 1.3055)" />
    <use href="#x75" transform="translate(-3.4395 1.3055)" />
    <use href="#x76" transform="translate(-2.4395 1.3055)" />
    <use href="#x77" transform="translate(-1.5 1.3)" />
    <use href="#x78" transform="translate(-0.4 0.8)" />
    <use href="#x79" transform="translate(1 0.8)" />
    <use href="#x18" transform="translate(3.16 1.316)" />
    <use href="#x16" transform="translate(4.133 1.3705)" />
    <use href="#x14" transform="translate(5.108 1.286)" />
    <use href="#x12" transform="translate(6.133 1.317)" />
    <use href="#x45" transform="translate(-5.4395 2.3055)" />
    <use href="#x80" transform="translate(-4.4395 2.3055)" />
    <use href="#x81" transform="translate(-2.4395 2.3055)" />
    <use href="#x82" transform="translate(-1.5 2.3)" />
    <use href="#x46" transform="translate(-0.3965 1.838)" />
    <use href="#x36" transform="translate(4.1975 2.2695)" />
    <use href="#x38" transform="translate(5.1975 2.2695)" />
    <use href="#x40" transform="translate(6.1975 2.2695)" />
    <use href="#x83" transform="translate(1.6 3.4)" />
    <use href="#x78" transform="translate(2.6 3.4)" />
  </g>
  <g transform="translate(13.6 5.1)">
    <use class="key" href="#1u" x="-5.8" y="0" />
    <use class="key" href="#1u" x="-4.8" y="0" />
    <use class="key" href="#1u" x="-3.8" y="0" />
    <use class="key" href="#1u" x="-2.8" y="0" />
    <use class="key" href="#1u" x="-1.8" y="0" />
    <use class="key" href="#1u" x="1.8" y="0" />
    <use class="key" href="#1u" x="2.8" y="0" />
    <use class="key" href="#1u" x="3.8" y="0" />
    <use class="key" href="#1u" x="4.8" y="0" />
    <use class="key" href="#1u" x="5.8" y="0" />
    <use class="key" href="#1u" x="-5.8" y="1" />
    <use class="key" href="#1u" x="-4.8" y="1" />
    <use class="key" href="#1u" x="-3.8" y="1" />
    <use class="key" href="#1u_" x="-2.8" y="1" />
    <use class="key" href="#1u" x="-1.8" y="1" />
    <use class="key" href="#1u" x="-0.7" y="0.5" />
    <use class="key" href="#1u" x="0.7" y="0.5" />
    <use class="key" href="#1u" x="1.8" y="1" />
    <use class="key" href="#1u_" x="2.8" y="1" />
    <use class="key" href="#1u" x="3.8" y="1" />
    <use class="key" href="#1u" x="4.8" y="1" />
    <use class="key" href="#1u" x="5.8" y="1" />
    <use class="key" href="#1u" x="-5.8" y="2" />
    <use class="key" href="#1u" x="-4.8" y="2" />
    <use class="key" href="#1u" x="-3.8" y="2" />
    <use class="key" href="#1u" x="-2.8" y="2" />
    <use class="key" href="#1u" x="-1.8" y="2" />
    <use class="key" href="#1u" x="-0.7" y="1.5" />
    <use class="key" href="#1u" x="0.7" y="1.5" />
    <use class="key" href="#1u" x="1.8" y="2" />
    <use class="key" href="#1u" x="2.8" y="2" />
    <use class="key" href="#1u" x="3.8" y="2" />
    <use class="key" href="#1u" x="4.8" y="2" />
    <use class="key" href="#1u" x="5.8" y="2" />
    <use class="key" href="#1u" x="-3.3" y="3.1" />
    <use class="key" href="#1u_" x="-2.3" y="3.1" />
    <use class="key" href="#1u" x="-1.3" y="3.1" />
    <use class="held" href="#1u" x="1.3" y="3.1" />
    <use class="key" href="#1u_" x="2.3" y="3.1" />
    <use class="key" href="#1u" x="3.3" y="3.1" />
    <use href="#x84" transform="translate(-5.4025 0.2695)" />
    <use href="#x85" transform="translate(-4.4025 0.2695)" />
    <use href="#x86" transform="translate(-3.4025 0.2695)" />
    <use href="#x87" transform="translate(-2.4025 0.2695)" />
    <use href="#x88" transform="translate(-1.4025 0.2695)" />
    <use href="#x89" transform="translate(2.1975 0.2695)" />
    <use href="#x90" transform="translate(3.1975 0.2695)" />
    <use href="#x91" transform="translate(4.1975 0.2695)" />
    <use href="#x92" transform="translate(5.1975 0.2695)" />
    <use href="#x93" transform="translate(6.1975 0.2695)" />
    <use href="#x12" transform="translate(-5.467 1.317)" />
    <use href="#x14" transform="translate(-4.492 1.286)" />
    <use href="#x16" transform="translate(-3.467 1.3705)" />
    <use href="#x18" transform="translate(-2.44 1.316)" />
    <use href="#x66" transform="translate(1.0975 0.7695)" />
    <use href="#x21" transform="translate(2.1975 1.2695)" />
    <use href="#x87" transform="translate(3.1975 1.2695)" />
    <use href="#x88" transform="translate(4.1975 1.2695)" />
    <use href="#x89" transform="translate(5.1975 1.2695)" />
    <use href="#x39" transform="translate(6.1975 1.2695)" />
    <use href="#x59" transform="translate(-5.4025 2.2695)" />
    <use href="#x60" transform="translate(-3.4025 2.2695)" />
    <use href="#x94" transform="translate(-2.4025 2.2695)" />
    <use href="#x95" transform="translate(-1.4025 2.2695)" />
    <use href="#x59" transform="translate(1.0975 1.7695)" />
    <use href="#x93" transform="translate(2.1975 2.2695)" />
    <use href="#x84" transform="translate(3.1975 2.2695)" />
    <use href="#x85" transform="translate(4.1975 2.2695)" />
    <use href="#x86" transform="translate(5.1975 2.2695)" />
    <use href="#x41" transform="translate(6.1975 2.2695)" />
    <use href="#x66" transform="translate(-2.9025 3.3695)" />
    <use href="#x21" transform="translate(-1.9025 3.3695)" />
    <use href="#x33" transform="translate(-0.9025 3.3695)" />
    <use href="#x96" transform="translate(3.5435 3.241)" />
  </g>
  <g transform="translate(0.0 10.2)">
    <use class="key" href="#1u" x="-5.8" y="0" />
    <use class="key" href="#1u" x="-4.8" y="0" />
    <use class="key" href="#1u" x="-3.8" y="0" />
    <use class="key" href="#1u" x="-2.8" y="0" />
    <use class="key" href="#1u" x="-1.8" y="0" />
    <use class="key" href="#1u" x="1.8" y="0" />
    <use class="key" href="#1u" x="2.8" y="0" />
    <use class="key" href="#1u" x="3.8" y="0" />
    <use class="key" href="#1u" x="4.8" y="0" />
    <use class="key" href="#1u" x="5.8" y="0" />
    <use class="key" href="#1u" x="-5.8" y="1" />
    <use class="key" href="#1u" x="-4.8" y="1" />
    <use class="key" href="#1u" x="-3.8" y="1" />
    <use class="key" href="#1u_" x="-2.8" y="1" />
    <use class="key" href="#1u" x="-1.8" y="1" />
    <use class="key" href="#1u" x="-0.7" y="0.5" />
    <use class="key" href="#1u" x="0.7" y="0.5" />
    <use class="key" href="#1u" x="1.8" y="1" />
    <use class="key" href="#1u_" x="2.8" y="1" />
    <use class="key" href="#1u" x="3.8" y="1" />
    <use class="key" href="#1u" x="4.8" y="1" />
    <use class="key" href="#1u" x="5.8" y="1" />
    <use class="key" href="#1u" x="-5.8" y="2" />
    <use class="key" href="#1u" x="-4.8" y="2" />
    <use class="key" href="#1u" x="-3.8" y="2" />
    <use class="key" href="#1u" x="-2.8" y="2" />
    <use class="key" href="#1u" x="-1.8" y="2" />
    <use class="key" href="#1u" x="-0.7" y="1.5" />
    <use class="key" href="#1u" x="0.7" y="1.5" />
    <use class="key" href="#1u" x="1.8" y="2" />
    <use class="key" href="#1u" x="2.8" y="2" />
    <use class="key" href="#1u" x="3.8" y="2" />
    <use class="key" href="#1u" x="4.8" y="2" />
    <use class="key" href="#1u" x="5.8" y="2" />
    <use class="key" href="#1u" x="-3.3" y="3.1" />
    <use class="key" href="#1u_" x="-2.3" y="3.1" />
    <use class="held" href="#1u" x="-1.3" y="3.1" />
    <use class="key" href="#1u" x="1.3" y="3.1" />
    <use class="key" href="#1u_" x="2.3" y="3.1" />
    <use class="key" href="#1u" x="3.3" y="3.1" />
    <use href="#x97" transform="translate(-5.5 0.3)" />
    <use href="#x98" transform="translate(-4.5 0.3)" />
    <use href="#x99" transform="translate(-3.5 0.3)" />
    <use href="#x100" transform="translate(-2.5 0.3)" />
    <use href="#x101" transform="translate(-1.5 0.3)" />
    <use href="#x102" transform="translate(-5.5 1.3)" />
    <use href="#x103" transform="translate(-4.5 1.3)" />
    <use href="#x104" transform="translate(-3.5 1.3)" />
    <use href="#x105" transform="translate(-2.5 1.3)" />
    <use href="#x106" transform="translate(-1.5 1.3)" />
    <use href="#x107" transform="translate(-0.5075 0.7695)" />
    <use href="#x108" transform="translate(0.8925 0.7695)" />
    <use href="#x18" transform="translate(3.16 1.316)" />
    <use href="#x16" transform="translate(4.133 1.3705)" />
    <use href="#x14" transform="translate(5.108 1.286)" />
    <use href="#x12" transform="translate(6.133 1.317)" />
    <use href="#x109" transform="translate(-4.5 2.3)" />
    <use href="#x110" transform="translate(-3.5 2.3)" />
    <use href="#x111" transform="translate(-2.5 2.3)" />
    <use href="#x112" transform="translate(-1.5 2.3)" />
    <use href="#x113" transform="translate(-0.5075 1.7695)" />
    <use href="#x114" transform="translate(0.8925 1.7695)" />
  </g>
  <g transform="translate(13.6 10.2)">
    <use class="key" href="#1u" x="-5.8" y="0" />
    <use class="key" href="#1u" x="-4.8" y="0" />
    <use class="key" href="#1u" x="-3.8" y="0" />
    <use class="key" href="#1u" x="-2.8" y="0" />
    <use class="key" href="#1u" x="-1.8" y="0" />
    <use class="key" href="#1u" x="1.8" y="0" />
    <use class="key" href="#1u" x="2.8" y="0" />
    <use class="key" href="#1u" x="3.8" y="0" />
    <use class="key" href="#1u" x="4.8" y="0" />
    <use class="key" href="#1u" x="5.8" y="0" />
    <use class="key" href="#1u" x="-5.8" y="1" />
    <use class="key" href="#1u" x="-4.8" y="1" />
    <use class="key" href="#1u" x="-3.8" y="1" />
    <use class="key" href="#1u_" x="-2.8" y="1" />
    <use class="key" href="#1u" x="-1.8" y="1" />
    <use class="key" href="#1u" x="-0.7" y="0.5" />
    <use class="key" href="#1u" x="0.7" y="0.5" />
    <use class="key" href="#1u" x="1.8" y="1" />
    <use class="key" href="#1u_" x="2.8" y="1" />
    <use class="key" href="#1u" x="3.8" y="1" />
    <use class="key" href="#1u" x="4.8" y="1" />
    <use class="key" href="#1u" x="5.8" y="1" />
    <use class="key" href="#1u" x="-5.8" y="2" />
    <use class="key" href="#1u" x="-4.8" y="2" />
    <use class="key" href="#1u" x="-3.8" y="2" />
    <use class="key" href="#1u" x="-2.8" y="2" />
    <use class="key" href="#1u" x="-1.8" y="2" />
    <use class="key" href="#1u" x="-0.7" y="1.5" />
    <use class="key" href="#1u" x="0.7" y="1.5" />
    <use class="key" href="#1u" x="1.8" y="2" />
    <use class="key" href="#1u" x="2.8" y="2" />
    <use class="key" href="#1u" x="3.8" y="2" />
    <use class="key" href="#1u" x="4.8" y="2" />
    <use class="key" href="#1u" x="5.8" y="2" />
    <use class="key" href="#1u" x="-3.3" y="3.1" />
    <use class="key" href="#1u_" x="-2.3" y="3.1" />
    <use class="key" href="#1u" x="-1.3" y="3.1" />
    <use class="key" href="#1u" x="1.3" y="3.1" />
    <use class="key" href="#1u_" x="2.3" y="3.1" />
    <use class="held" href="#1u" x="3.3" y="3.1" />
    <use href="#x115" transform="translate(-5.505 0.2695)" />
    <use href="#x116" transform="translate(-4.505 0.2695)" />
    <use href="#x117" transform="translate(-3.505 0.2695)" />
    <use href="#x118" transform="translate(-2.505 0.2695)" />
    <use href="#x119" transform="translate(-1.505 0.2695)" />
    <use href="#x120" transform="translate(2.095 0.2695)" />
    <use href="#x121" transform="translate(3.095 0.2695)" />
    <use href="#x122" transform="translate(4.095 0.2695)" />
    <use href="#x123" transform="translate(5.095 0.2695)" />
    <use href="#x124" transform="translate(5.9925 0.2695)" />
    <use href="#x12" transform="translate(-5.467 1.317)" />
    <use href="#x14" transform="translate(-4.492 1.286)" />
    <use href="#x16" transform="translate(-3.467 1.3705)" />
    <use href="#x18" transform="translate(-2.44 1.316)" />
    <use href="#x125" transform="translate(-1.642 1.141)" />
    <use href="#x126" transform="translate(1.9 1.20058) scale(0.779727)" />
    <use href="#x118" transform="translate(3.095 1.2695)" />
    <use href="#x119" transform="translate(4.095 1.2695)" />
    <use href="#x120" transform="translate(5.095 1.2695)" />
    <use href="#x127" transform="translate(5.9925 1.2695)" />
    <use href="#x126" transform="translate(-4.7 2.20058) scale(0.779727)" />
    <use href="#x128" transform="translate(-3.7 2.22008) scale(0.779727)" />
    <use href="#x129" transform="translate(-2.7 2.32035) scale(0.935673)" />
    <use href="#x20" transform="translate(-1.7 2.35029) scale(0.779727)" />
    <use href="#x115" transform="translate(3.095 2.2695)" />
    <use href="#x116" transform="translate(4.095 2.2695)" />
    <use href="#x117" transform="translate(5.095 2.2695)" />
    <use href="#x130" transform="translate(5.9925 2.2695)" />
    <use href="#x16" transform="translate(-2.967 3.4705)" />
    <use href="#x131" transform="translate(-1.9495 3.4115)" />
  </g>
</svg>